<svg viewBox="-6.21794871794873 74.70000000000005 820.7692307692305 921.2999999999997" fill="none" xmlns="http://www.w3.org/2000/svg" xmlns:xlink="http://www.w3.org/1999/xlink" overflow="visible" width="820.7692307692305px" height="921.2999999999997px"><g id="Master/Character/Standing"><g id="Lower Body/Standing" transform="translate(0.939453 443) scale(0.998641304347826 1)"><g id="Lower Body/Standing/Running"><g id="Running"><path id="Pants" fill-rule="evenodd" clip-rule="evenodd" d="M484.709 0.302673C484.709 0.302673 556.741 242.331 560.583 258.658C564.425 274.987 628.773 512.212 628.773 512.212C628.773 512.212 496.234 515.094 474.145 513.173C452.055 511.252 412.677 124.199 412.677 124.199L373.299 291.314C373.299 291.314 366.576 323.008 354.091 333.573C341.605 344.137 276.296 341.256 276.296 341.256L55.397 329.731C55.397 329.731 49.634 182.784 52.516 174.141C55.01 166.657 216.612 206.69 259.942 217.57C265.892 219.064 271.974 215.658 273.814 209.807L339.684 0.302673H484.709Z" fill="#3973B0"/><path id="Pant details" fill-rule="evenodd" clip-rule="evenodd" d="M420.202 10.1255C420.202 12.975 417.892 15.2855 415.042 15.2855C412.193 15.2855 409.883 12.9749 409.883 10.1255C409.883 7.27605 412.193 4.96545 415.042 4.96545C417.892 4.96545 420.202 7.27586 420.202 10.1255ZM418.202 10.1255C418.202 8.38036 416.787 6.96545 415.042 6.96545C413.298 6.96545 411.883 8.38047 411.883 10.1255C411.883 11.8704 413.298 13.2855 415.042 13.2855C416.787 13.2855 418.202 11.8706 418.202 10.1255ZM333.484 18.4334C333.477 18.9857 333.92 19.4384 334.472 19.4447L335.119 19.4519C335.652 19.4577 336.279 19.4645 336.997 19.4722C339.048 19.4941 341.413 19.5185 344.061 19.5447C348.331 19.5871 352.839 19.6294 357.54 19.6709C357.672 30.4126 354.694 41.4213 349.151 50.4019C345.305 56.6316 339.773 61.296 333.386 63.4433C331.417 64.105 329.484 64.5572 327.287 64.9013C325.99 65.1044 324.784 65.2499 322.657 65.4753L321.875 65.5579C321.557 65.5915 321.316 65.6171 321.079 65.6425C320.469 65.708 319.948 65.7659 319.441 65.8251C318.892 65.8891 318.499 66.3857 318.563 66.9342C318.627 67.4828 319.124 67.8756 319.672 67.8117C320.173 67.7532 320.689 67.696 321.293 67.6311C321.529 67.6058 321.768 67.5803 322.085 67.5468L322.868 67.4641C325.026 67.2355 326.258 67.0868 327.596 66.8772C329.899 66.5166 331.94 66.039 334.023 65.3391C336.041 64.6606 337.977 63.7504 339.808 62.635L290.334 226.365C287.779 234.768 279.355 239.943 270.702 238.425L76.9226 204.411L76.8771 203.856C76.2693 196.477 75.6182 189.706 74.9669 183.693C74.7389 181.588 74.5271 179.728 74.337 178.131C74.2705 177.571 74.2113 177.085 74.1603 176.673C74.1296 176.426 74.1084 176.258 74.0974 176.172C74.027 175.624 73.5258 175.237 72.9781 175.308C72.4303 175.378 72.0433 175.879 72.1137 176.427C72.1244 176.51 72.1452 176.675 72.1755 176.919C72.2261 177.327 72.2849 177.811 72.3511 178.367C72.5403 179.957 72.7513 181.811 72.9785 183.909C73.628 189.905 74.2775 196.658 74.8838 204.02C77.2223 232.416 78.2698 261.35 77.3024 288.34C76.7661 303.304 75.6137 317.155 73.7807 329.666C73.7007 330.213 74.0788 330.721 74.6252 330.801C75.1717 330.881 75.6796 330.503 75.7596 329.956C77.604 317.367 78.7623 303.445 79.3011 288.412C80.242 262.161 79.2838 234.097 77.0886 206.47L270.356 240.395C280.005 242.088 289.398 236.317 292.248 226.945L342.389 61.0077C342.405 60.9549 342.416 60.9018 342.423 60.8488C345.703 58.3535 348.564 55.1607 350.853 51.4524C356.59 42.1574 359.669 30.7923 359.541 19.6884C362.54 19.7143 365.612 19.7399 368.748 19.7648C386.242 19.9039 403.445 20.0056 419.548 20.054L421.249 20.059L423.343 85.2589C423.285 85.4153 423.265 85.5885 423.293 85.765L423.375 86.2743L423.397 86.9372L411.724 123.897C411.557 124.424 411.849 124.986 412.376 125.152C412.903 125.318 413.464 125.026 413.631 124.499L424.161 91.1569L489.321 496.074L488.733 496.072C482.879 496.055 477.474 496.036 472.648 496.018C470.959 496.011 469.463 496.005 468.176 496L467.001 495.995L466.599 495.993C466.047 495.991 465.597 496.436 465.595 496.989C465.592 497.541 466.038 497.991 466.59 497.993L466.993 497.995L468.167 498C469.455 498.005 470.951 498.011 472.641 498.018C477.467 498.036 482.873 498.055 488.728 498.072C507.947 498.129 527.325 498.159 545.405 498.149C590.142 498.125 618.667 497.863 623.604 497.282C624.152 497.218 624.545 496.721 624.48 496.172C624.416 495.624 623.919 495.232 623.37 495.296C618.559 495.862 589.906 496.125 545.404 496.149C528.146 496.159 509.705 496.131 491.348 496.08L425.507 86.9319C432.458 66.5564 436.456 50.7368 438.017 38.9148C439.177 30.1301 438.916 24.23 437.75 20.6202C437.689 20.4303 437.627 20.2521 437.565 20.085C450.468 20.0886 461.811 20.0468 471.337 19.9544C471.249 30.8864 473.816 42.0394 478.585 51.3819C481.966 58.0024 486.864 62.994 492.582 65.3176C496.241 66.8041 498.298 67.2763 503.554 68.0185C504.101 68.0957 504.607 67.715 504.684 67.1681C504.761 66.6212 504.381 66.1153 503.834 66.0381C498.726 65.3169 496.813 64.8778 493.334 63.4647C488.1 61.3378 483.543 56.693 480.367 50.4724C475.74 41.4093 473.246 30.5595 473.337 19.934C479.331 19.8696 484.557 19.7839 488.946 19.6756C489.498 19.6619 489.934 19.2033 489.921 18.6512C489.907 18.0991 489.448 17.6625 488.896 17.6762C477.045 17.9688 459.057 18.0959 436.316 18.0845C436.02 17.9243 435.661 17.9242 435.365 18.084C430.32 18.0806 425.045 18.0705 419.554 18.054C403.454 18.0056 386.255 17.9039 368.764 17.7649C359.958 17.6949 351.645 17.6198 344.081 17.5448C341.433 17.5186 339.069 17.4942 337.018 17.4723C336.301 17.4647 335.674 17.4579 335.141 17.452L334.495 17.4448C333.943 17.4386 333.49 17.8812 333.484 18.4334ZM425.223 81.4919C431.149 63.5221 434.617 49.3896 436.034 38.653C437.158 30.1395 436.91 24.5267 435.847 21.235C435.694 20.7606 435.536 20.3802 435.382 20.084C431.474 20.0814 427.427 20.0748 423.25 20.0643L425.223 81.4919Z" fill="#94C0E9"/><path id="Shoes" fill-rule="evenodd" clip-rule="evenodd" d="M5.70207 331.232L55.3981 329.447L52.0441 211C52.0441 211 11.6481 214.049 10.8851 221.671C10.3191 227.327 23.6681 238.377 30.5901 243.701C32.6621 245.294 32.9411 248.308 31.1951 250.254C10.9751 272.786 3.24307 311.636 0.996073 325.937C0.548073 328.788 2.81807 331.336 5.70207 331.232ZM640.764 544.468L628.775 511.928L506.146 513.643C506.146 513.643 504.443 546.474 509.572 549.324C513.207 551.343 525.25 539.92 531.959 533.093C534.566 530.44 538.66 529.875 541.84 531.803C572.319 550.281 623.077 549.39 637.983 548.678C640.096 548.577 641.495 546.453 640.764 544.468Z" fill="#F3705A"/></g></g></g><g id="Hairstyle" transform="translate(268.939 82) scale(0.9953051643192489 1)"><g id="Hairstyle/Curly"><g id="Curly"><path id="Skin" fill-rule="evenodd" clip-rule="evenodd" d="M111.169 50.5537C79.6149 50.5537 54.0359 73.3127 54.0359 101.388C54.0359 107.136 55.1239 112.654 57.0999 117.806C56.9059 117.8 56.7149 117.782 56.5189 117.782C48.2039 117.782 41.4629 123.327 41.4629 130.168C41.4629 137.008 48.2039 142.553 56.5189 142.553C61.1149 142.553 65.2249 140.855 67.9849 138.183C68.9809 137.218 70.5219 137.116 71.5759 138.017C79.2959 144.627 89.0929 149.329 100.017 151.254C101.421 151.501 102.413 152.765 102.331 154.189L100.771 182H127.21L125.986 160.052C125.688 154.864 128.726 150.006 133.583 148.16C153.996 140.407 168.302 122.384 168.302 101.388C168.302 73.3127 142.723 50.5537 111.169 50.5537Z" fill="#c68e80"/><path id="Hair" fill-rule="evenodd" clip-rule="evenodd" d="M118.274 29.3042C123.535 19.0522 133.457 12.1352 144.84 12.1352C161.722 12.1352 175.407 27.3382 175.407 46.0932C175.407 64.8462 161.722 80.0502 144.84 80.0502C137.741 80.0502 130.569 74.0482 125.38 69.5372C122.086 77.8192 112.311 84.8822 99.201 85.9712C90.2837 86.713 82.3907 81.8373 77.352 78.7247C77.0104 78.5137 76.6819 78.3108 76.367 78.1182C76.589 79.4182 76.716 80.7542 76.716 82.1252C76.716 93.7172 75.495 102.26 62.032 107.709C63.011 110 63.572 112.539 63.572 115.225C63.572 125.185 56.065 133.26 46.805 133.26C37.545 133.26 30.038 125.185 30.038 115.225C30.038 106.971 35.198 100.029 42.235 97.8862C24.701 91.1262 21.446 66.5442 36.629 55.4312C43.409 50.4682 51.616 50.0342 59.525 52.0442C50.247 40.3052 47.94 23.8212 58.415 11.9712C64.783 4.76824 74.783 1.00024 84.289 1.00024C101.918 1.00024 116.426 13.3912 118.274 29.3042ZM57.9726 142.486C61.9756 142.169 65.5196 140.57 67.9836 138.183C68.9796 137.218 70.5216 137.116 71.5746 138.017C78.8066 144.209 87.8616 148.727 97.9586 150.855C95.6396 152.915 92.2526 153.978 88.6776 153.447C85.6816 153.002 83.1296 151.526 81.4286 149.503C78.7766 152.03 74.3176 153.339 69.5266 152.627C62.9856 151.655 58.1276 147.264 57.9726 142.486Z" fill="#B9B3B8"/></g></g></g><g id="Expression" transform="translate(351.939 173) scale(0.989010989010989 1)"><g id="Expression/Cheerful"><g id="Cheerful"><path id="Stroke 1" fill-rule="evenodd" clip-rule="evenodd" d="M16.3536 21.9607C15.7678 22.5464 14.8181 22.5464 14.2323 21.9607C13.6465 21.3749 13.6465 20.4251 14.2323 19.8393C14.9828 19.0888 16.312 18.0103 18.1314 16.9383C25.1901 12.7794 33.0644 12.6277 40.6849 19.1332C41.3149 19.671 41.3897 20.6178 40.8518 21.2479C40.3139 21.878 39.3671 21.9527 38.7371 21.4148C32.2013 15.8354 25.7006 15.9606 19.6543 19.5231C18.7309 20.0671 17.9041 20.6501 17.1886 21.2306C16.7681 21.5718 16.4852 21.8291 16.3536 21.9607Z" fill="#010101"/><path id="Stroke 3" fill-rule="evenodd" clip-rule="evenodd" d="M59.6044 21.6593C59.1851 22.3737 58.266 22.613 57.5515 22.1936C56.837 21.7743 56.5978 20.8552 57.0172 20.1407C57.5589 19.2177 58.5649 17.8997 60.0343 16.5829C65.971 11.263 73.6471 11.263 82.2234 19.8393C82.8092 20.4251 82.8092 21.3749 82.2234 21.9607C81.6377 22.5465 80.6879 22.5465 80.1021 21.9607C72.6785 14.537 66.8127 14.537 62.0364 18.8171C61.3299 19.4503 60.7141 20.1312 60.1959 20.8101C59.8913 21.2092 59.6925 21.5092 59.6044 21.6593Z" fill="#010101"/><path id="Stroke 5" fill-rule="evenodd" clip-rule="evenodd" d="M25.0391 31.4361H63.0191C63.8816 31.4361 64.5664 32.1617 64.5166 33.0228C64.4792 33.6688 64.3358 34.7411 64.0164 36.1016C63.4869 38.3568 62.6377 40.6131 61.3918 42.7295C57.7334 48.9443 51.4933 52.6432 42.2792 52.4969C34.4149 52.3719 29.1359 48.6605 26.1069 42.6425C25.0437 40.53 24.3379 38.2815 23.9163 36.0353C23.6625 34.6828 23.5588 33.6188 23.5397 32.9809C23.5145 32.1353 24.1931 31.4361 25.0391 31.4361Z" fill="#E74B33"/><path id="Stroke 7" fill-rule="evenodd" clip-rule="evenodd" d="M29.8233 43.7947C30.4108 43.6318 31.0743 43.4697 31.8021 43.3188C35.3765 42.5774 39.0874 42.3619 42.6005 43.0009C46.6241 43.7327 50.0061 45.5435 52.4621 48.6336C53.0648 49.3918 52.8015 50.5139 51.9246 50.9251C51.4506 51.1473 50.6286 51.4588 49.5137 51.7643C43.6794 53.363 36.4942 53 31.1663 48.9073C30.3059 48.2465 29.4094 47.3649 28.5207 46.5538C27.6748 45.7818 27.9711 44.385 29.0575 44.0229C29.2046 43.9738 29.4639 43.8943 29.8233 43.7947Z" fill="#F3705A"/></g></g></g><g id="Upper Body" transform="translate(87.9395 44) scale(0.9988674971687429 1)"><g id="Upper Body/Pointing"><g id="Body"><g id="Jumper"><path id="Jumper_2" fill-rule="evenodd" clip-rule="evenodd" d="M194.253 253.272C166.221 299.369 146.823 425.155 144.2 495.314C141.616 564.437 139.417 587.117 165.961 593.334L162.881 612.966C162.881 612.966 198.755 621.43 211.213 621.43L213.704 598.914C213.704 598.914 248.206 608.392 244.741 501.342C241.315 395.469 241.122 415.213 241.122 415.213C241.122 415.213 356.992 418.536 406.827 412.929C406.827 412.929 413.267 473.108 484.282 445.698C555.297 418.289 606.378 367.208 606.378 367.208C606.378 367.208 629.468 345.09 618.255 323.91L640.058 308.337C640.058 308.337 625.17 281.447 612.026 267.846L587.109 283.419C587.109 283.419 564.554 251.81 496.318 324.487L461.233 360.979C461.233 360.979 443.585 221.701 337.63 219.267C323.693 218.947 222.285 207.174 194.253 253.272Z" fill="#010101"/><g id="Object"><mask id="mask0_413_827528dad5674-b75c-4a1e-ae77-7d5701be1daf" style="mask-type:alpha" maskUnits="userSpaceOnUse" x="142" y="217" width="499" height="405" fill="#ffffff"><path id="Jumper_3" fill-rule="evenodd" clip-rule="evenodd" d="M194.253 253.272C166.221 299.369 146.823 425.155 144.2 495.314C141.616 564.437 139.417 587.117 165.961 593.334L162.881 612.966C162.881 612.966 198.755 621.43 211.213 621.43L213.704 598.914C213.704 598.914 248.206 608.392 244.741 501.342C241.315 395.469 241.122 415.213 241.122 415.213C241.122 415.213 356.992 418.536 406.827 412.929C406.827 412.929 413.267 473.108 484.282 445.698C555.297 418.289 606.378 367.208 606.378 367.208C606.378 367.208 629.468 345.09 618.255 323.91L640.058 308.337C640.058 308.337 625.17 281.447 612.026 267.846L587.109 283.419C587.109 283.419 564.554 251.81 496.318 324.487L461.233 360.979C461.233 360.979 443.585 221.701 337.63 219.267C323.693 218.947 222.285 207.174 194.253 253.272Z" fill="#ffffff"/></mask><g mask="url(#mask0_413_827528dad5674-b75c-4a1e-ae77-7d5701be1daf)"><g id="Jumper_4"><path id="Pattern" fill-rule="evenodd" clip-rule="evenodd" d="M98.0738 223.046C97.2704 223.248 96.783 224.063 96.9851 224.866L99.4252 234.564C99.6274 235.367 100.443 235.855 101.246 235.653C102.049 235.451 102.537 234.635 102.335 233.832L99.8945 224.134C99.6923 223.331 98.8772 222.844 98.0738 223.046ZM315.536 228.417C315.214 227.654 314.335 227.296 313.571 227.618L304.357 231.503C303.593 231.824 303.235 232.704 303.557 233.467C303.879 234.231 304.759 234.589 305.522 234.267L314.737 230.382C315.5 230.06 315.858 229.181 315.536 228.417ZM132.309 242.027C132.309 242.855 132.981 243.527 133.809 243.527H143.809C144.638 243.527 145.309 242.855 145.309 242.027C145.309 241.198 144.638 240.527 143.809 240.527H133.809C132.981 240.527 132.309 241.198 132.309 242.027ZM242.84 245.479C242.277 246.086 242.312 247.035 242.919 247.599L250.247 254.404C250.854 254.967 251.803 254.932 252.367 254.325C252.93 253.718 252.895 252.769 252.288 252.205L244.96 245.401C244.353 244.837 243.404 244.872 242.84 245.479ZM114.809 376.527C113.981 376.527 113.309 375.855 113.309 375.027C113.309 374.198 113.981 373.527 114.809 373.527H124.809C125.638 373.527 126.309 374.198 126.309 375.027C126.309 375.855 125.638 376.527 124.809 376.527H114.809ZM251.309 404.027C251.309 404.855 251.981 405.527 252.809 405.527H262.809C263.638 405.527 264.309 404.855 264.309 404.027C264.309 403.198 263.638 402.527 262.809 402.527H252.809C251.981 402.527 251.309 403.198 251.309 404.027ZM170.786 266.618C171.549 266.296 172.429 266.654 172.751 267.417C173.073 268.181 172.715 269.06 171.951 269.382L162.737 273.267C161.973 273.589 161.094 273.231 160.772 272.467C160.45 271.704 160.808 270.824 161.571 270.503L170.786 266.618ZM310.751 296.417C310.429 295.654 309.549 295.296 308.786 295.618L299.571 299.503C298.808 299.824 298.45 300.704 298.772 301.467C299.094 302.231 299.973 302.589 300.737 302.267L309.951 298.382C310.715 298.06 311.073 297.181 310.751 296.417ZM151.786 399.618C152.549 399.296 153.429 399.654 153.751 400.417C154.073 401.181 153.715 402.06 152.951 402.382L143.737 406.267C142.973 406.589 142.094 406.231 141.772 405.467C141.45 404.704 141.808 403.824 142.571 403.503L151.786 399.618ZM197.465 237.278C197.312 236.463 197.848 235.679 198.662 235.526C199.476 235.373 200.26 235.908 200.414 236.722L202.264 246.55C202.417 247.364 201.881 248.148 201.067 248.301C200.253 248.455 199.469 247.919 199.315 247.105L197.465 237.278ZM339.134 269.552C338.32 269.706 337.784 270.49 337.937 271.304L339.788 281.131C339.941 281.946 340.725 282.481 341.539 282.328C342.353 282.175 342.889 281.391 342.736 280.576L340.886 270.749C340.732 269.935 339.948 269.399 339.134 269.552ZM180.938 375.304C180.784 374.49 181.32 373.706 182.134 373.552C182.948 373.399 183.732 373.935 183.886 374.749L185.736 384.576C185.889 385.391 185.353 386.175 184.539 386.328C183.725 386.481 182.941 385.946 182.788 385.131L180.938 375.304ZM320.134 402.552C319.32 402.706 318.784 403.49 318.938 404.304L320.788 414.131C320.941 414.946 321.725 415.481 322.539 415.328C323.353 415.175 323.889 414.391 323.736 413.576L321.886 403.749C321.732 402.935 320.948 402.399 320.134 402.552ZM143.723 304.187C143.638 303.363 144.237 302.626 145.061 302.541C145.885 302.456 146.622 303.055 146.708 303.879L147.735 313.826C147.82 314.65 147.221 315.387 146.397 315.472C145.573 315.557 144.836 314.958 144.751 314.134L143.723 304.187ZM283.061 331.541C282.237 331.626 281.638 332.363 281.723 333.187L282.751 343.134C282.836 343.958 283.573 344.557 284.397 344.472C285.221 344.387 285.82 343.65 285.735 342.826L284.708 332.879C284.622 332.055 283.885 331.456 283.061 331.541ZM256.447 278.154C256.362 277.33 256.961 276.593 257.785 276.508C258.609 276.423 259.346 277.022 259.432 277.846L260.459 287.793C260.544 288.617 259.945 289.354 259.121 289.439C258.297 289.524 257.56 288.925 257.475 288.101L256.447 278.154ZM126.061 427.508C125.237 427.593 124.638 428.33 124.723 429.154L125.751 439.101C125.836 439.925 126.573 440.524 127.397 440.439C128.221 440.354 128.82 439.617 128.735 438.793L127.708 428.846C127.622 428.022 126.885 427.423 126.061 427.508ZM181.717 312.339C181.013 311.903 180.795 310.979 181.231 310.274C181.667 309.57 182.591 309.352 183.296 309.788L191.8 315.049C192.504 315.485 192.722 316.409 192.286 317.114C191.851 317.818 190.926 318.036 190.222 317.6L181.717 312.339ZM319.231 339.274C318.795 339.979 319.013 340.903 319.717 341.339L328.222 346.6C328.926 347.036 329.851 346.818 330.286 346.114C330.722 345.409 330.504 344.485 329.8 344.049L321.296 338.788C320.591 338.352 319.667 338.57 319.231 339.274ZM99.3979 299.522C98.6092 299.775 97.7645 299.341 97.5112 298.552C97.258 297.763 97.6922 296.919 98.481 296.665L108.002 293.609C108.791 293.355 109.636 293.79 109.889 294.578C110.142 295.367 109.708 296.212 108.919 296.465L99.3979 299.522ZM235.511 327.552C235.764 328.341 236.609 328.775 237.398 328.522L246.919 325.465C247.708 325.212 248.142 324.367 247.889 323.578C247.636 322.79 246.791 322.355 246.002 322.609L236.481 325.665C235.692 325.919 235.258 326.763 235.511 327.552ZM81.8983 429.985C81.1096 430.238 80.2649 429.804 80.0116 429.016C79.7584 428.227 80.1926 427.382 80.9814 427.129L90.5028 424.072C91.2915 423.819 92.1363 424.253 92.3895 425.042C92.6427 425.831 92.2085 426.675 91.4198 426.929L81.8983 429.985ZM83.4848 354.366C83.2827 353.563 83.7701 352.747 84.5734 352.545C85.3768 352.343 86.192 352.831 86.3941 353.634L88.8342 363.332C89.0363 364.135 88.5489 364.95 87.7455 365.152C86.9422 365.355 86.127 364.867 85.9249 364.064L83.4848 354.366ZM217.573 383.545C216.77 383.747 216.283 384.563 216.485 385.366L218.925 395.064C219.127 395.867 219.942 396.355 220.746 396.152C221.549 395.95 222.036 395.135 221.834 394.332L219.394 384.634C219.192 383.831 218.377 383.343 217.573 383.545ZM272.485 430.366C272.283 429.563 272.77 428.747 273.573 428.545C274.377 428.343 275.192 428.831 275.394 429.634L277.834 439.332C278.036 440.135 277.549 440.95 276.746 441.152C275.942 441.355 275.127 440.867 274.925 440.064L272.485 430.366ZM213.518 307.715C213.783 308.5 214.634 308.921 215.419 308.656L224.893 305.454C225.678 305.189 226.099 304.338 225.833 303.553C225.568 302.768 224.717 302.347 223.932 302.612L214.459 305.814C213.674 306.079 213.253 306.931 213.518 307.715ZM349.92 328.123C349.135 328.389 348.284 327.967 348.019 327.183C347.754 326.398 348.175 325.547 348.96 325.281L358.433 322.079C359.218 321.814 360.069 322.235 360.334 323.02C360.6 323.805 360.178 324.656 359.394 324.921L349.92 328.123ZM194.019 439.183C194.284 439.967 195.135 440.389 195.92 440.123L205.394 436.921C206.178 436.656 206.6 435.805 206.334 435.02C206.069 434.235 205.218 433.814 204.433 434.079L194.96 437.281C194.175 437.547 193.754 438.398 194.019 439.183ZM109.708 325.298C109.487 324.5 109.956 323.674 110.755 323.453C111.553 323.233 112.379 323.702 112.6 324.501L115.259 334.14C115.479 334.939 115.01 335.765 114.212 335.985C113.413 336.206 112.587 335.737 112.367 334.938L109.708 325.298ZM248.755 352.453C247.956 352.674 247.487 353.5 247.708 354.298L250.367 363.938C250.587 364.737 251.413 365.206 252.212 364.985C253.01 364.765 253.479 363.939 253.259 363.14L250.6 353.501C250.379 352.702 249.553 352.233 248.755 352.453ZM156.589 369.879C155.953 370.41 155.007 370.325 154.477 369.689C153.946 369.053 154.031 368.107 154.667 367.576L162.343 361.167C162.979 360.637 163.925 360.722 164.456 361.358C164.987 361.993 164.902 362.939 164.266 363.47L156.589 369.879ZM292.477 398.689C293.007 399.325 293.953 399.41 294.589 398.879L302.266 392.47C302.902 391.939 302.987 390.993 302.456 390.358C301.925 389.722 300.979 389.637 300.343 390.167L292.667 396.576C292.031 397.107 291.946 398.053 292.477 398.689ZM207.063 363.394C206.238 363.467 205.51 362.857 205.437 362.032C205.364 361.207 205.973 360.478 206.798 360.405L216.759 359.523C217.585 359.45 218.313 360.06 218.386 360.885C218.459 361.71 217.849 362.438 217.024 362.511L207.063 363.394ZM343.437 391.032C343.51 391.857 344.238 392.467 345.063 392.394L355.024 391.511C355.849 391.438 356.459 390.71 356.386 389.885C356.313 389.06 355.585 388.45 354.759 388.523L344.798 389.405C343.973 389.478 343.364 390.207 343.437 391.032Z" fill="#B9B3B8"/></g><g id="Jumper_5"><path id="Pattern_2" fill-rule="evenodd" clip-rule="evenodd" d="M98.0738 441.046C97.2704 441.248 96.783 442.063 96.9851 442.866L99.4252 452.564C99.6274 453.367 100.443 453.855 101.246 453.653C102.049 453.451 102.537 452.635 102.335 451.832L99.8945 442.134C99.6923 441.331 98.8772 440.844 98.0738 441.046ZM315.536 446.417C315.214 445.654 314.335 445.296 313.571 445.618L304.357 449.503C303.593 449.824 303.235 450.704 303.557 451.467C303.879 452.231 304.759 452.589 305.522 452.267L314.737 448.382C315.5 448.06 315.858 447.181 315.536 446.417ZM132.309 460.027C132.309 460.855 132.981 461.527 133.809 461.527H143.809C144.638 461.527 145.309 460.855 145.309 460.027C145.309 459.198 144.638 458.527 143.809 458.527H133.809C132.981 458.527 132.309 459.198 132.309 460.027ZM242.84 463.479C242.277 464.086 242.312 465.035 242.919 465.599L250.247 472.404C250.854 472.967 251.803 472.932 252.367 472.325C252.93 471.718 252.895 470.769 252.288 470.205L244.96 463.401C244.353 462.837 243.404 462.872 242.84 463.479ZM114.809 594.527C113.981 594.527 113.309 593.855 113.309 593.027C113.309 592.198 113.981 591.527 114.809 591.527H124.809C125.638 591.527 126.309 592.198 126.309 593.027C126.309 593.855 125.638 594.527 124.809 594.527H114.809ZM251.309 622.027C251.309 622.855 251.981 623.527 252.809 623.527H262.809C263.638 623.527 264.309 622.855 264.309 622.027C264.309 621.198 263.638 620.527 262.809 620.527H252.809C251.981 620.527 251.309 621.198 251.309 622.027ZM170.786 484.618C171.549 484.296 172.429 484.654 172.751 485.417C173.073 486.181 172.715 487.06 171.951 487.382L162.737 491.267C161.973 491.589 161.094 491.231 160.772 490.467C160.45 489.704 160.808 488.824 161.571 488.503L170.786 484.618ZM310.751 514.417C310.429 513.654 309.549 513.296 308.786 513.618L299.571 517.503C298.808 517.824 298.45 518.704 298.772 519.467C299.094 520.231 299.973 520.589 300.737 520.267L309.951 516.382C310.715 516.06 311.073 515.181 310.751 514.417ZM151.786 617.618C152.549 617.296 153.429 617.654 153.751 618.417C154.073 619.181 153.715 620.06 152.951 620.382L143.737 624.267C142.973 624.589 142.094 624.231 141.772 623.467C141.45 622.704 141.808 621.824 142.571 621.503L151.786 617.618ZM197.465 455.278C197.312 454.463 197.848 453.679 198.662 453.526C199.476 453.373 200.26 453.908 200.414 454.722L202.264 464.55C202.417 465.364 201.881 466.148 201.067 466.301C200.253 466.455 199.469 465.919 199.315 465.105L197.465 455.278ZM339.134 487.552C338.32 487.706 337.784 488.49 337.937 489.304L339.788 499.131C339.941 499.946 340.725 500.481 341.539 500.328C342.353 500.175 342.889 499.391 342.736 498.576L340.886 488.749C340.732 487.935 339.948 487.399 339.134 487.552ZM180.938 593.304C180.784 592.49 181.32 591.706 182.134 591.552C182.948 591.399 183.732 591.935 183.886 592.749L185.736 602.576C185.889 603.391 185.353 604.175 184.539 604.328C183.725 604.481 182.941 603.946 182.788 603.131L180.938 593.304ZM320.134 620.552C319.32 620.706 318.784 621.49 318.938 622.304L320.788 632.131C320.941 632.946 321.725 633.481 322.539 633.328C323.353 633.175 323.889 632.391 323.736 631.576L321.886 621.749C321.732 620.935 320.948 620.399 320.134 620.552ZM143.723 522.187C143.638 521.363 144.237 520.626 145.061 520.541C145.885 520.456 146.622 521.055 146.708 521.879L147.735 531.826C147.82 532.65 147.221 533.387 146.397 533.472C145.573 533.557 144.836 532.958 144.751 532.134L143.723 522.187ZM283.061 549.541C282.237 549.626 281.638 550.363 281.723 551.187L282.751 561.134C282.836 561.958 283.573 562.557 284.397 562.472C285.221 562.387 285.82 561.65 285.735 560.826L284.708 550.879C284.622 550.055 283.885 549.456 283.061 549.541ZM256.447 496.154C256.362 495.33 256.961 494.593 257.785 494.508C258.609 494.423 259.346 495.022 259.432 495.846L260.459 505.793C260.544 506.617 259.945 507.354 259.121 507.439C258.297 507.524 257.56 506.925 257.475 506.101L256.447 496.154ZM126.061 645.508C125.237 645.593 124.638 646.33 124.723 647.154L125.751 657.101C125.836 657.925 126.573 658.524 127.397 658.439C128.221 658.354 128.82 657.617 128.735 656.793L127.708 646.846C127.622 646.022 126.885 645.423 126.061 645.508ZM181.717 530.339C181.013 529.903 180.795 528.979 181.231 528.274C181.667 527.57 182.591 527.352 183.296 527.788L191.8 533.049C192.504 533.485 192.722 534.409 192.286 535.114C191.851 535.818 190.926 536.036 190.222 535.6L181.717 530.339ZM319.231 557.274C318.795 557.979 319.013 558.903 319.717 559.339L328.222 564.6C328.926 565.036 329.851 564.818 330.286 564.114C330.722 563.409 330.504 562.485 329.8 562.049L321.296 556.788C320.591 556.352 319.667 556.57 319.231 557.274ZM99.3979 517.522C98.6092 517.775 97.7645 517.341 97.5112 516.552C97.258 515.763 97.6922 514.919 98.481 514.665L108.002 511.609C108.791 511.355 109.636 511.79 109.889 512.578C110.142 513.367 109.708 514.212 108.919 514.465L99.3979 517.522ZM235.511 545.552C235.764 546.341 236.609 546.775 237.398 546.522L246.919 543.465C247.708 543.212 248.142 542.367 247.889 541.578C247.636 540.79 246.791 540.355 246.002 540.609L236.481 543.665C235.692 543.919 235.258 544.763 235.511 545.552ZM81.8983 647.985C81.1096 648.238 80.2649 647.804 80.0116 647.016C79.7584 646.227 80.1926 645.382 80.9814 645.129L90.5028 642.072C91.2915 641.819 92.1363 642.253 92.3895 643.042C92.6427 643.831 92.2085 644.675 91.4198 644.929L81.8983 647.985ZM83.4848 572.366C83.2827 571.563 83.7701 570.747 84.5734 570.545C85.3768 570.343 86.192 570.831 86.3941 571.634L88.8342 581.332C89.0363 582.135 88.5489 582.95 87.7455 583.152C86.9422 583.355 86.127 582.867 85.9249 582.064L83.4848 572.366ZM217.573 601.545C216.77 601.747 216.283 602.563 216.485 603.366L218.925 613.064C219.127 613.867 219.942 614.355 220.746 614.152C221.549 613.95 222.036 613.135 221.834 612.332L219.394 602.634C219.192 601.831 218.377 601.343 217.573 601.545ZM272.485 648.366C272.283 647.563 272.77 646.747 273.573 646.545C274.377 646.343 275.192 646.831 275.394 647.634L277.834 657.332C278.036 658.135 277.549 658.95 276.746 659.152C275.942 659.355 275.127 658.867 274.925 658.064L272.485 648.366ZM213.518 525.715C213.783 526.5 214.634 526.921 215.419 526.656L224.893 523.454C225.678 523.189 226.099 522.338 225.833 521.553C225.568 520.768 224.717 520.347 223.932 520.612L214.459 523.814C213.674 524.079 213.253 524.931 213.518 525.715ZM349.92 546.123C349.135 546.389 348.284 545.967 348.019 545.183C347.754 544.398 348.175 543.547 348.96 543.281L358.433 540.079C359.218 539.814 360.069 540.235 360.334 541.02C360.6 541.805 360.178 542.656 359.394 542.921L349.92 546.123ZM194.019 657.183C194.284 657.967 195.135 658.389 195.92 658.123L205.394 654.921C206.178 654.656 206.6 653.805 206.334 653.02C206.069 652.235 205.218 651.814 204.433 652.079L194.96 655.281C194.175 655.547 193.754 656.398 194.019 657.183ZM109.708 543.298C109.487 542.5 109.956 541.674 110.755 541.453C111.553 541.233 112.379 541.702 112.6 542.501L115.259 552.14C115.479 552.939 115.01 553.765 114.212 553.985C113.413 554.206 112.587 553.737 112.367 552.938L109.708 543.298ZM248.755 570.453C247.956 570.674 247.487 571.5 247.708 572.298L250.367 581.938C250.587 582.737 251.413 583.206 252.212 582.985C253.01 582.765 253.479 581.939 253.259 581.14L250.6 571.501C250.379 570.702 249.553 570.233 248.755 570.453ZM156.589 587.879C155.953 588.41 155.007 588.325 154.477 587.689C153.946 587.053 154.031 586.107 154.667 585.576L162.343 579.167C162.979 578.637 163.925 578.722 164.456 579.358C164.987 579.993 164.902 580.939 164.266 581.47L156.589 587.879ZM292.477 616.689C293.007 617.325 293.953 617.41 294.589 616.879L302.266 610.47C302.902 609.939 302.987 608.993 302.456 608.358C301.925 607.722 300.979 607.637 300.343 608.167L292.667 614.576C292.031 615.107 291.946 616.053 292.477 616.689ZM207.063 581.394C206.238 581.467 205.51 580.857 205.437 580.032C205.364 579.207 205.973 578.478 206.798 578.405L216.759 577.523C217.585 577.45 218.313 578.06 218.386 578.885C218.459 579.71 217.849 580.438 217.024 580.511L207.063 581.394ZM343.437 609.032C343.51 609.857 344.238 610.467 345.063 610.394L355.024 609.511C355.849 609.438 356.459 608.71 356.386 607.885C356.313 607.06 355.585 606.45 354.759 606.523L344.798 607.405C343.973 607.478 343.364 608.207 343.437 609.032Z" fill="#B9B3B8"/></g><g id="Jumper_6"><path id="Pattern_3" fill-rule="evenodd" clip-rule="evenodd" d="M378.074 223.046C377.27 223.248 376.783 224.063 376.985 224.866L379.425 234.564C379.627 235.367 380.443 235.855 381.246 235.653C382.049 235.451 382.537 234.635 382.335 233.832L379.894 224.134C379.692 223.331 378.877 222.844 378.074 223.046ZM595.536 228.417C595.214 227.654 594.335 227.296 593.571 227.618L584.357 231.503C583.593 231.824 583.235 232.704 583.557 233.467C583.879 234.231 584.759 234.589 585.522 234.267L594.737 230.382C595.5 230.06 595.858 229.181 595.536 228.417ZM412.309 242.027C412.309 242.855 412.981 243.527 413.809 243.527H423.809C424.638 243.527 425.309 242.855 425.309 242.027C425.309 241.198 424.638 240.527 423.809 240.527H413.809C412.981 240.527 412.309 241.198 412.309 242.027ZM522.84 245.479C522.277 246.086 522.312 247.035 522.919 247.599L530.247 254.404C530.854 254.967 531.803 254.932 532.367 254.325C532.93 253.718 532.895 252.769 532.288 252.205L524.96 245.401C524.353 244.837 523.404 244.872 522.84 245.479ZM394.809 376.527C393.981 376.527 393.309 375.855 393.309 375.027C393.309 374.198 393.981 373.527 394.809 373.527H404.809C405.638 373.527 406.309 374.198 406.309 375.027C406.309 375.855 405.638 376.527 404.809 376.527H394.809ZM531.309 404.027C531.309 404.855 531.981 405.527 532.809 405.527H542.809C543.638 405.527 544.309 404.855 544.309 404.027C544.309 403.198 543.638 402.527 542.809 402.527H532.809C531.981 402.527 531.309 403.198 531.309 404.027ZM450.786 266.618C451.549 266.296 452.429 266.654 452.751 267.417C453.073 268.181 452.715 269.06 451.951 269.382L442.737 273.267C441.973 273.589 441.094 273.231 440.772 272.467C440.45 271.704 440.808 270.824 441.571 270.503L450.786 266.618ZM590.751 296.417C590.429 295.654 589.549 295.296 588.786 295.618L579.571 299.503C578.808 299.824 578.45 300.704 578.772 301.467C579.094 302.231 579.973 302.589 580.737 302.267L589.951 298.382C590.715 298.06 591.073 297.181 590.751 296.417ZM431.786 399.618C432.549 399.296 433.429 399.654 433.751 400.417C434.073 401.181 433.715 402.06 432.951 402.382L423.737 406.267C422.973 406.589 422.094 406.231 421.772 405.467C421.45 404.704 421.808 403.824 422.571 403.503L431.786 399.618ZM477.465 237.278C477.312 236.463 477.848 235.679 478.662 235.526C479.476 235.373 480.26 235.908 480.414 236.722L482.264 246.55C482.417 247.364 481.881 248.148 481.067 248.301C480.253 248.455 479.469 247.919 479.315 247.105L477.465 237.278ZM619.134 269.552C618.32 269.706 617.784 270.49 617.937 271.304L619.788 281.131C619.941 281.946 620.725 282.481 621.539 282.328C622.353 282.175 622.889 281.391 622.736 280.576L620.886 270.749C620.732 269.935 619.948 269.399 619.134 269.552ZM460.938 375.304C460.784 374.49 461.32 373.706 462.134 373.552C462.948 373.399 463.732 373.935 463.886 374.749L465.736 384.576C465.889 385.391 465.353 386.175 464.539 386.328C463.725 386.481 462.941 385.946 462.788 385.131L460.938 375.304ZM600.134 402.552C599.32 402.706 598.784 403.49 598.938 404.304L600.788 414.131C600.941 414.946 601.725 415.481 602.539 415.328C603.353 415.175 603.889 414.391 603.736 413.576L601.886 403.749C601.732 402.935 600.948 402.399 600.134 402.552ZM423.723 304.187C423.638 303.363 424.237 302.626 425.061 302.541C425.885 302.456 426.622 303.055 426.708 303.879L427.735 313.826C427.82 314.65 427.221 315.387 426.397 315.472C425.573 315.557 424.836 314.958 424.751 314.134L423.723 304.187ZM563.061 331.541C562.237 331.626 561.638 332.363 561.723 333.187L562.751 343.134C562.836 343.958 563.573 344.557 564.397 344.472C565.221 344.387 565.82 343.65 565.735 342.826L564.708 332.879C564.622 332.055 563.885 331.456 563.061 331.541ZM536.447 278.154C536.362 277.33 536.961 276.593 537.785 276.508C538.609 276.423 539.346 277.022 539.432 277.846L540.459 287.793C540.544 288.617 539.945 289.354 539.121 289.439C538.297 289.524 537.56 288.925 537.475 288.101L536.447 278.154ZM406.061 427.508C405.237 427.593 404.638 428.33 404.723 429.154L405.751 439.101C405.836 439.925 406.573 440.524 407.397 440.439C408.221 440.354 408.82 439.617 408.735 438.793L407.708 428.846C407.622 428.022 406.885 427.423 406.061 427.508ZM461.717 312.339C461.013 311.903 460.795 310.979 461.231 310.274C461.667 309.57 462.591 309.352 463.296 309.788L471.8 315.049C472.504 315.485 472.722 316.409 472.286 317.114C471.851 317.818 470.926 318.036 470.222 317.6L461.717 312.339ZM599.231 339.274C598.795 339.979 599.013 340.903 599.717 341.339L608.222 346.6C608.926 347.036 609.851 346.818 610.286 346.114C610.722 345.409 610.504 344.485 609.8 344.049L601.296 338.788C600.591 338.352 599.667 338.57 599.231 339.274ZM379.398 299.522C378.609 299.775 377.764 299.341 377.511 298.552C377.258 297.763 377.692 296.919 378.481 296.665L388.002 293.609C388.791 293.355 389.636 293.79 389.889 294.578C390.142 295.367 389.708 296.212 388.919 296.465L379.398 299.522ZM515.511 327.552C515.764 328.341 516.609 328.775 517.398 328.522L526.919 325.465C527.708 325.212 528.142 324.367 527.889 323.578C527.636 322.79 526.791 322.355 526.002 322.609L516.481 325.665C515.692 325.919 515.258 326.763 515.511 327.552ZM361.898 429.985C361.11 430.238 360.265 429.804 360.012 429.016C359.758 428.227 360.193 427.382 360.981 427.129L370.503 424.072C371.292 423.819 372.136 424.253 372.389 425.042C372.643 425.831 372.209 426.675 371.42 426.929L361.898 429.985ZM363.485 354.366C363.283 353.563 363.77 352.747 364.573 352.545C365.377 352.343 366.192 352.831 366.394 353.634L368.834 363.332C369.036 364.135 368.549 364.95 367.746 365.152C366.942 365.355 366.127 364.867 365.925 364.064L363.485 354.366ZM497.573 383.545C496.77 383.747 496.283 384.563 496.485 385.366L498.925 395.064C499.127 395.867 499.942 396.355 500.746 396.152C501.549 395.95 502.036 395.135 501.834 394.332L499.394 384.634C499.192 383.831 498.377 383.343 497.573 383.545ZM552.485 430.366C552.283 429.563 552.77 428.747 553.573 428.545C554.377 428.343 555.192 428.831 555.394 429.634L557.834 439.332C558.036 440.135 557.549 440.95 556.746 441.152C555.942 441.355 555.127 440.867 554.925 440.064L552.485 430.366ZM493.518 307.715C493.783 308.5 494.634 308.921 495.419 308.656L504.893 305.454C505.678 305.189 506.099 304.338 505.833 303.553C505.568 302.768 504.717 302.347 503.932 302.612L494.459 305.814C493.674 306.079 493.253 306.931 493.518 307.715ZM629.92 328.123C629.135 328.389 628.284 327.967 628.019 327.183C627.754 326.398 628.175 325.547 628.96 325.281L638.433 322.079C639.218 321.814 640.069 322.235 640.334 323.02C640.6 323.805 640.178 324.656 639.394 324.921L629.92 328.123ZM474.019 439.183C474.284 439.967 475.135 440.389 475.92 440.123L485.394 436.921C486.178 436.656 486.6 435.805 486.334 435.02C486.069 434.235 485.218 433.814 484.433 434.079L474.96 437.281C474.175 437.547 473.754 438.398 474.019 439.183ZM389.708 325.298C389.487 324.5 389.956 323.674 390.755 323.453C391.553 323.233 392.379 323.702 392.6 324.501L395.259 334.14C395.479 334.939 395.01 335.765 394.212 335.985C393.413 336.206 392.587 335.737 392.367 334.938L389.708 325.298ZM528.755 352.453C527.956 352.674 527.487 353.5 527.708 354.298L530.367 363.938C530.587 364.737 531.413 365.206 532.212 364.985C533.01 364.765 533.479 363.939 533.259 363.14L530.6 353.501C530.379 352.702 529.553 352.233 528.755 352.453ZM436.589 369.879C435.953 370.41 435.007 370.325 434.477 369.689C433.946 369.053 434.031 368.107 434.667 367.576L442.343 361.167C442.979 360.637 443.925 360.722 444.456 361.358C444.987 361.993 444.902 362.939 444.266 363.47L436.589 369.879ZM572.477 398.689C573.007 399.325 573.953 399.41 574.589 398.879L582.266 392.47C582.902 391.939 582.987 390.993 582.456 390.358C581.925 389.722 580.979 389.637 580.343 390.167L572.667 396.576C572.031 397.107 571.946 398.053 572.477 398.689ZM487.063 363.394C486.238 363.467 485.51 362.857 485.437 362.032C485.364 361.207 485.973 360.478 486.798 360.405L496.759 359.523C497.585 359.45 498.313 360.06 498.386 360.885C498.459 361.71 497.849 362.438 497.024 362.511L487.063 363.394ZM623.437 391.032C623.51 391.857 624.238 392.467 625.063 392.394L635.024 391.511C635.849 391.438 636.459 390.71 636.386 389.885C636.313 389.06 635.585 388.45 634.759 388.523L624.798 389.405C623.973 389.478 623.364 390.207 623.437 391.032Z" fill="#B9B3B8"/></g></g></g><path id="Jumper Details" fill-rule="evenodd" clip-rule="evenodd" d="M231.766 412.752C230.385 412.386 229.271 411.997 228.403 411.612C228.23 411.536 228.081 411.466 227.956 411.405L230.356 326.028C230.372 325.476 229.937 325.016 229.385 325C228.832 324.985 228.372 325.42 228.357 325.972L225.94 411.957C225.93 412.301 226.098 412.626 226.385 412.817C227.128 413.313 228.696 414.007 231.254 414.685C233.916 415.39 237.163 415.921 241.048 416.21C241.599 416.251 242.079 415.838 242.12 415.287C242.161 414.737 241.747 414.257 241.197 414.216C237.432 413.936 234.306 413.425 231.766 412.752ZM407.037 413.907C407.577 413.792 407.921 413.26 407.805 412.72L390.883 333.76C390.767 333.22 390.236 332.876 389.696 332.992C389.156 333.108 388.812 333.639 388.928 334.179L405.849 413.139C405.965 413.679 406.497 414.023 407.037 413.907Z" fill="#B9B3B8"/></g><path id="Skin" fill-rule="evenodd" clip-rule="evenodd" d="M612.025 268.846C612.025 268.846 610.879 248.023 639.424 232.01C639.424 232.01 651.895 224.587 660.755 224.685C663.709 224.718 666.014 225.322 667.289 228.509L707.949 211.008C709.687 210.315 711.547 209.927 713.416 210.012C715.818 210.12 718.494 212.033 718.307 215.307C717.68 226.279 700.206 234.333 700.206 234.333C700.206 234.333 703.806 236.133 705.006 241.532C706.235 247.064 704.406 251.281 704.406 251.281C704.406 251.281 708.14 252.426 708.867 258.485C709.135 260.715 709.086 264.894 706.797 266.97C706.797 266.97 713.884 270.881 709.679 281.295C709.679 281.295 700.58 299.185 673.618 296.938C673.618 296.938 657.894 306.569 640.057 309.337C640.057 309.337 620.528 275.273 612.025 268.846ZM162.88 613.965C153.442 623.96 149.932 642.872 149.932 642.872C149.932 642.872 127.477 682.471 126.965 695.455C126.284 712.74 138.803 707.066 138.803 707.066C137.353 714.117 138.075 716.325 142.992 718.528C146.227 719.979 151.417 714.931 151.417 714.931C153.673 725.884 159.361 723.303 161.11 722.51C161.169 722.483 161.224 722.458 161.274 722.436C165.102 720.732 171.599 708.778 171.599 708.778C169.268 724.767 184.059 723.739 184.726 722.407C185.392 721.075 190.286 697.943 190.286 697.943L211.213 622.429L186.166 619.031L162.88 613.965ZM332.484 218.864C333.566 218.864 306.376 244.132 273.016 218.571C273.016 218.571 310.818 215.968 332.484 218.864Z" fill="#c68e80"/><path id="Skin Shadows" fill-rule="evenodd" clip-rule="evenodd" d="M647.687 269.989C648.776 268.264 649.417 264.689 649.776 259.661C650.023 256.193 650.098 252.591 650.078 249.566C663.015 244.512 668.268 237.089 668.289 228.511C668.29 227.959 667.843 227.51 667.291 227.509C666.739 227.507 666.29 227.954 666.289 228.506C666.27 236.381 661.369 243.176 648.718 247.946C648.323 248.095 648.064 248.476 648.071 248.898C648.072 248.964 648.074 249.092 648.075 249.277C648.103 252.314 648.032 255.996 647.781 259.519C647.448 264.192 646.839 267.586 645.996 268.921C645.701 269.388 645.841 270.005 646.308 270.3C646.775 270.595 647.392 270.456 647.687 269.989ZM701.095 233.874C700.842 233.383 700.239 233.191 699.748 233.444L699.368 233.639L698.87 233.896L698.293 234.192C697.135 234.788 695.842 235.451 694.448 236.166C690.463 238.208 686.461 240.251 682.7 242.156L682.252 242.383C673.884 246.621 668.01 249.526 665.79 250.493C659.763 253.116 656.772 256.586 656.485 260.466C656.272 263.349 657.714 266.271 659.512 267.596C661.464 269.034 663.639 269.35 668.138 268.419C664.804 270.865 662.798 273.62 662.76 276.719C662.708 281.064 664.552 283.654 667.607 284.669C668.294 284.897 668.994 285.032 669.684 285.093L669.634 285.159C667.912 287.431 667.219 289.958 668.244 292.546C669.243 295.068 670.969 296.763 673.305 297.711C673.816 297.918 674.4 297.672 674.607 297.16C674.815 296.648 674.568 296.065 674.057 295.857C672.219 295.112 670.898 293.814 670.103 291.81C669.38 289.983 669.886 288.137 671.228 286.367C671.557 285.932 671.911 285.54 672.264 285.198C672.366 285.099 672.456 285.016 672.53 284.949C672.578 284.94 672.631 284.93 672.688 284.919C673.029 284.851 673.423 284.769 673.867 284.672C675.13 284.393 676.536 284.046 678.05 283.625C682.375 282.422 686.702 280.866 690.748 278.918C694.095 277.307 697.105 275.491 699.695 273.457C702.598 271.177 704.688 269.522 706.099 268.391C706.594 267.995 706.969 267.691 707.241 267.47C707.407 267.334 707.502 267.255 707.544 267.22C707.966 266.863 708.019 266.232 707.662 265.81C707.305 265.389 706.674 265.336 706.253 265.693C706.22 265.72 706.133 265.792 705.976 265.92C705.709 266.138 705.339 266.437 704.848 266.831C703.443 267.957 701.358 269.608 698.46 271.884C695.992 273.822 693.104 275.564 689.88 277.116C685.951 279.008 681.733 280.524 677.514 281.698C676.037 282.109 674.666 282.448 673.437 282.718C673.008 282.813 672.628 282.892 672.302 282.956C672.241 282.968 672.187 282.979 672.139 282.988C672.09 282.997 672.047 283.005 672.011 283.012L671.931 283.027L671.909 283.031C671.901 283.032 671.893 283.034 671.884 283.035C671.819 283.047 671.715 283.062 671.571 283.078C670.511 283.194 669.326 283.133 668.238 282.771C666.009 282.03 664.719 280.218 664.76 276.743C664.792 274.135 666.884 271.587 670.422 269.27C671.716 268.423 673.108 267.671 674.5 267.025C674.987 266.798 675.439 266.602 675.843 266.436C675.981 266.38 676.095 266.334 676.183 266.299C676.249 266.274 676.3 266.255 676.336 266.241L676.353 266.235C676.489 266.194 676.627 266.153 676.766 266.111C685.478 263.498 701.193 255.228 705.043 252.052C705.469 251.7 705.529 251.07 705.177 250.644C704.826 250.218 704.196 250.158 703.77 250.509C700.129 253.513 684.652 261.657 676.191 264.196C665.926 267.275 662.88 267.594 660.698 265.985C659.438 265.057 658.319 262.789 658.48 260.613C658.705 257.557 661.188 254.677 666.588 252.326C668.861 251.337 674.741 248.429 683.156 244.167L683.604 243.94C687.368 242.033 691.373 239.99 695.36 237.946C696.755 237.231 698.049 236.567 699.208 235.971C699.614 235.762 699.854 235.639 700.284 235.417L700.664 235.221C701.155 234.968 701.348 234.365 701.095 233.874ZM180.697 680.165C180.882 679.644 181.454 679.372 181.974 679.557C182.495 679.742 182.767 680.314 182.582 680.834L172.541 709.113C172.356 709.634 171.785 709.906 171.264 709.721C170.744 709.536 170.472 708.964 170.656 708.444L180.697 680.165ZM168.162 682.009C167.681 681.737 167.071 681.906 166.799 682.387C166.766 682.446 166.702 682.558 166.61 682.722C166.457 682.995 166.279 683.312 166.079 683.67C165.507 684.693 164.869 685.841 164.183 687.086C162.221 690.644 160.26 694.272 158.429 697.759C158.075 698.431 157.73 699.093 157.393 699.743C153.886 706.504 151.455 711.655 150.468 714.615C150.293 715.139 150.576 715.705 151.1 715.88C151.624 716.055 152.19 715.772 152.365 715.248C153.307 712.421 155.711 707.33 159.168 700.664C159.504 700.017 159.848 699.358 160.199 698.689C162.024 695.215 163.979 691.598 165.934 688.051C166.619 686.81 167.254 685.666 167.824 684.646C168.024 684.29 168.201 683.974 168.353 683.703C168.445 683.54 168.508 683.428 168.54 683.372C168.812 682.891 168.642 682.281 168.162 682.009ZM150.783 677.057C151.096 676.603 151.719 676.488 152.174 676.801C152.629 677.114 152.744 677.737 152.431 678.192C152.397 678.24 152.328 678.344 152.225 678.502C152.05 678.771 151.846 679.093 151.616 679.469C150.956 680.547 150.218 681.833 149.422 683.323C147.143 687.591 144.861 692.63 142.731 698.409C141.675 701.271 140.682 704.253 139.762 707.35C139.604 707.88 139.048 708.181 138.518 708.024C137.989 707.867 137.687 707.31 137.844 706.781C138.777 703.641 139.784 700.619 140.854 697.717C143.017 691.85 145.336 686.728 147.658 682.381C148.472 680.856 149.23 679.536 149.911 678.424C150.15 678.033 150.364 677.695 150.548 677.411C150.661 677.238 150.74 677.12 150.783 677.057ZM150.26 641.928C149.739 641.747 149.169 642.022 148.987 642.544C148.948 642.655 148.9 642.83 148.854 643.061C148.535 644.67 148.792 646.482 150.048 648.183C150.713 649.082 151.626 649.885 152.806 650.573C153.283 650.852 153.895 650.69 154.173 650.213C154.452 649.736 154.291 649.124 153.814 648.846C152.863 648.291 152.156 647.669 151.657 646.994C150.775 645.8 150.598 644.551 150.816 643.449C150.843 643.314 150.867 643.228 150.876 643.201C151.058 642.68 150.782 642.11 150.26 641.928Z" fill="#371D0A"/></g></g></g></g></svg>