<svg viewBox="331.79999999999995 354.58064516129025 1631.3500000000001 1024.959677419355" fill="none" xmlns="http://www.w3.org/2000/svg" xmlns:xlink="http://www.w3.org/1999/xlink" overflow="visible" width="1631.3500000000001px" height="1024.959677419355px"><g id="Master/Scene/Study"><g id="Desk"><path id="Fill 1" fill-rule="evenodd" clip-rule="evenodd" d="M767.187 1159.41L365.941 1373.84H1300.34L1530.33 1159.41H767.187Z" fill="#FFF5EE"/><path id="Fill 2" fill-rule="evenodd" clip-rule="evenodd" d="M509.928 1331.85C508.557 1338.59 512.913 1345.17 519.657 1346.54C520.494 1346.71 521.33 1346.79 522.153 1346.79C527.955 1346.79 533.151 1342.72 534.352 1336.81L628.288 874.919C628.403 874.357 628.464 873.798 628.5 873.242L603.704 870.743L509.928 1331.85Z" fill="#5BA092"/><path id="Fill 4" fill-rule="evenodd" clip-rule="evenodd" d="M711.911 844.699L801.988 1336.18C803.09 1342.19 808.33 1346.4 814.232 1346.4C814.976 1346.4 815.734 1346.33 816.492 1346.19C823.261 1344.95 827.744 1338.46 826.504 1331.69L736.865 842.599L711.943 840.088C711.656 841.568 711.623 843.124 711.911 844.699" fill="#5BA092"/><path id="Fill 6" fill-rule="evenodd" clip-rule="evenodd" d="M920.337 1189.46C919.201 1196.25 923.784 1202.67 930.571 1203.8C931.268 1203.92 931.959 1203.98 932.643 1203.98C938.622 1203.98 943.899 1199.66 944.919 1193.57L1001.54 855.194C1001.73 854.057 1001.75 852.934 1001.63 851.841L976.024 856.657L920.337 1189.46Z" fill="#5BA092"/><path id="Fill 8" fill-rule="evenodd" clip-rule="evenodd" d="M1191.75 1200.04L1091.38 799.901C1091.25 799.358 1091.07 798.839 1090.87 798.334L1066.85 802.853C1066.84 803.879 1066.95 804.921 1067.21 805.965L1167.58 1206.1C1169 1211.76 1174.08 1215.53 1179.66 1215.53C1180.66 1215.53 1181.68 1215.41 1182.7 1215.15C1189.37 1213.48 1193.43 1206.71 1191.75 1200.04" fill="#5BA092"/><path id="Fill 10" fill-rule="evenodd" clip-rule="evenodd" d="M508.844 900.22V867.859L978.838 829.817L1171.65 797.456V829.817L797.385 900.22H508.844Z" fill="#5BA092"/><path id="Fill 12" fill-rule="evenodd" clip-rule="evenodd" d="M508.844 867.858L978.838 797.457H1171.65L797.385 867.858H508.844Z" fill="#2F6858"/><path id="Fill 14" fill-rule="evenodd" clip-rule="evenodd" d="M844.141 833.254H822.194L836.98 788.494H773.594L756.188 838.692L754.937 841.759C754.594 842.599 754.447 843.504 754.504 844.409C754.706 847.569 757.33 850.029 760.496 850.029H844.141C848.775 850.029 852.53 846.274 852.53 841.642C852.53 837.009 848.775 833.254 844.141 833.254" fill="#B9B3B8"/><path id="Fill 16" fill-rule="evenodd" clip-rule="evenodd" d="M622.906 594.236L986.563 576.68C995.405 576.255 1002.82 583.289 1002.85 592.142L1003.5 762.839C1003.53 770.929 997.347 777.689 989.286 778.379L622.906 809.733V594.236Z" fill="#010101"/><path id="Fill 20" fill-rule="evenodd" clip-rule="evenodd" d="M608.348 594.236H622.906V809.733H608.348C598.388 809.733 590.316 801.661 590.316 791.704V612.265C590.316 602.308 598.388 594.236 608.348 594.236" fill="#B9B3B8"/></g><g id="UI"><g id="UI Simple"><path id="Fill 1_2" fill-rule="evenodd" clip-rule="evenodd" d="M715.145 434.389V765.636L1076.19 638.708V374.179L715.145 434.389Z" fill="#E3D4C5"/><path id="Fill 2_2" fill-rule="evenodd" clip-rule="evenodd" d="M859.291 549.815L754.172 568.673V483.812L859.291 466.712V549.815Z" fill="#CDB1AA"/><path id="Fill 3" fill-rule="evenodd" clip-rule="evenodd" d="M859.291 362.47L754.172 364.379V464.43L859.291 446.62V362.47Z" fill="#CDB1AA"/><path id="Fill 4_2" fill-rule="evenodd" clip-rule="evenodd" d="M859.291 648.294L754.172 670.82V590.72L859.291 568.859V648.294Z" fill="#CDB1AA"/><path id="Fill 5" fill-rule="evenodd" clip-rule="evenodd" d="M754.172 696.487V790.253L860.095 750.965L859.291 674.674L754.172 696.487Z" fill="#CDB1AA"/><path id="Fill 6_2" fill-rule="evenodd" clip-rule="evenodd" d="M1093.46 587.75L908.859 646.158V454.921L1093.46 416.297V587.75Z" fill="#94C0E9"/><path id="Fill 6 Copy" fill-rule="evenodd" clip-rule="evenodd" d="M952.541 496.354L917.371 507.524V470.954L952.541 463.568V496.354Z" fill="white"/><path id="Fill 6 Copy 2" fill-rule="evenodd" clip-rule="evenodd" d="M952.541 537.839L917.371 549.281V511.815L952.541 500.93V537.839Z" fill="white"/><path id="Fill 6 Copy 3" fill-rule="evenodd" clip-rule="evenodd" d="M952.541 579.596L917.371 591.039V553.573L952.541 542.688V579.596Z" fill="white"/><path id="Fill 6 Copy 4" fill-rule="evenodd" clip-rule="evenodd" d="M952.541 621.354L917.371 632.797V595.331L952.541 584.446V621.354Z" fill="white"/><path id="Fill 7" fill-rule="evenodd" clip-rule="evenodd" d="M908.845 463.917C908.845 463.917 906.459 451.875 912.44 450.348L1087.92 412.701C1090.44 412.158 1094.65 411.011 1093.46 423.039C1094 425.562 908.845 463.917 908.845 463.917Z" fill="#3973B0"/></g><path id="Fill 24" fill-rule="evenodd" clip-rule="evenodd" d="M921.766 455.876C921.766 457.697 920.29 459.172 918.469 459.172C916.648 459.172 915.172 457.697 915.172 455.876C915.172 454.056 916.648 452.579 918.469 452.579C920.29 452.579 921.766 454.056 921.766 455.876" fill="#F4F0F0"/><path id="Fill 26" fill-rule="evenodd" clip-rule="evenodd" d="M931.657 453.678C931.657 455.499 930.181 456.974 928.36 456.974C926.538 456.974 925.062 455.499 925.062 453.678C925.062 451.857 926.538 450.381 928.36 450.381C930.181 450.381 931.657 451.857 931.657 453.678" fill="#F4F0F0"/><path id="Fill 28" fill-rule="evenodd" clip-rule="evenodd" d="M940.45 451.48C940.45 453.301 938.974 454.776 937.153 454.776C935.332 454.776 933.855 453.301 933.855 451.48C933.855 449.66 935.332 448.183 937.153 448.183C938.974 448.183 940.45 449.66 940.45 451.48" fill="#F4F0F0"/><path id="Fill 6 Copy 5" fill-rule="evenodd" clip-rule="evenodd" d="M1085.53 578.951L969.027 615.711V456.974L1085.53 430.601V578.951Z" fill="white"/><mask id="mask0_413_1058229bf889ec-c7c8-428f-9116-441d554e3f15" style="mask-type:alpha" maskUnits="userSpaceOnUse" x="969" y="430" width="117" height="186" fill="#ffffff"><path id="Fill 6 Copy 5_2" fill-rule="evenodd" clip-rule="evenodd" d="M1085.53 578.951L969.027 615.711V456.974L1085.53 430.601V578.951Z" fill="#ffffff"/></mask><g mask="url(#mask0_413_1058229bf889ec-c7c8-428f-9116-441d554e3f15)"><g id="Patterns" transform="translate(937.152 403.129) scale(1.095145337522242 1.0988919319362815)"><g id="Patterns/Pattern 1"><path id="Pattern" fill-rule="evenodd" clip-rule="evenodd" d="M132.529 0.566134C132.697 1.93604 131.839 4.12228 130.47 4.29015C129.1 4.45801 127.74 2.54455 127.571 1.17565C127.403 -0.194256 128.33 -1.81796 129.7 -1.98582C131.068 -2.15369 132.361 -0.802769 132.529 0.566134ZM161.44 7.28775C162.809 7.11988 163.667 4.93363 163.499 3.56373C163.331 2.19483 162.038 0.843911 160.67 1.01178C159.3 1.17964 158.373 2.80334 158.541 4.17324C158.71 5.54215 160.07 7.45561 161.44 7.28775ZM247.576 14.9383C248.679 14.9383 249.574 12.9799 249.574 11.6719C249.574 10.364 248.679 8.94312 247.576 8.94312C246.473 8.94312 245.578 10.364 245.578 11.6719C245.578 12.9799 246.473 14.9383 247.576 14.9383ZM35.3952 22.5047C36.4982 22.5047 37.3933 20.5473 37.3933 19.2384C37.3933 17.9304 36.4982 16.5096 35.3952 16.5096C34.2923 16.5096 33.3972 17.9304 33.3972 19.2384C33.3972 20.5473 34.2923 22.5047 35.3952 22.5047ZM237.086 36.0855C238.189 36.0855 239.084 34.128 239.084 32.8191C239.084 31.5111 238.189 30.0903 237.086 30.0903C235.983 30.0903 235.088 31.5111 235.088 32.8191C235.088 34.128 235.983 36.0855 237.086 36.0855ZM214.108 36.541C215.488 36.541 216.606 38.0388 216.606 39.4187C216.606 40.7986 215.488 42.8639 214.108 42.8639C212.729 42.8639 211.611 40.7986 211.611 39.4187C211.611 38.0388 212.729 36.541 214.108 36.541ZM74.743 115.358C74.743 116.738 73.6251 118.803 72.2454 118.803C70.8658 118.803 69.7478 116.738 69.7478 115.358C69.7478 113.978 70.8658 112.48 72.2454 112.48C73.6251 112.48 74.743 113.978 74.743 115.358ZM144.176 196.74C145.556 196.74 146.674 194.676 146.674 193.296C146.674 191.916 145.556 190.418 144.176 190.418C142.796 190.418 141.678 191.916 141.678 193.296C141.678 194.676 142.796 196.74 144.176 196.74ZM181.884 117.804C180.505 117.804 179.386 115.739 179.386 114.359C179.386 112.979 180.505 111.481 181.884 111.481C183.263 111.481 184.381 112.979 184.381 114.359C184.381 115.739 183.263 117.804 181.884 117.804ZM40.0206 193.742C41.4003 193.742 42.5182 191.678 42.5182 190.298C42.5182 188.918 41.4003 187.42 40.0206 187.42C38.642 187.42 37.523 188.918 37.523 190.298C37.523 191.678 38.642 193.742 40.0206 193.742ZM253.814 189.418C255.194 189.418 256.312 190.916 256.312 192.296C256.312 193.676 255.194 195.74 253.814 195.74C252.436 195.74 251.317 193.676 251.317 192.296C251.317 190.916 252.436 189.418 253.814 189.418ZM105.486 44.6201C106.865 44.6201 107.983 42.5548 107.983 41.1749C107.983 39.795 106.865 38.2972 105.486 38.2972C104.106 38.2972 102.988 39.795 102.988 41.1749C102.988 42.5548 104.106 44.6201 105.486 44.6201ZM50.7832 47.1701C50.7832 48.55 49.6643 50.6153 48.2857 50.6153C46.906 50.6153 45.7881 48.55 45.7881 47.1701C45.7881 45.7902 46.906 44.2924 48.2857 44.2924C49.6643 44.2924 50.7832 45.7902 50.7832 47.1701ZM97.2213 108.758C97.2213 110.067 96.3262 112.025 95.2232 112.025C94.1203 112.025 93.2252 110.067 93.2252 108.758C93.2252 107.45 94.1203 106.029 95.2232 106.029C96.3262 106.029 97.2213 107.45 97.2213 108.758ZM169.152 186.696C169.152 188.004 168.257 189.962 167.154 189.962C166.051 189.962 165.156 188.004 165.156 186.696C165.156 185.388 166.051 183.967 167.154 183.967C168.257 183.967 169.152 185.388 169.152 186.696ZM204.861 111.025C205.965 111.025 206.86 109.068 206.86 107.759C206.86 106.451 205.965 105.03 204.861 105.03C203.759 105.03 202.863 106.451 202.863 107.759C202.863 109.068 203.759 111.025 204.861 111.025ZM64.9965 183.698C64.9965 185.006 64.1024 186.965 62.9984 186.965C61.8955 186.965 61.0004 185.006 61.0004 183.698C61.0004 182.39 61.8955 180.969 62.9984 180.969C64.1024 180.969 64.9965 182.39 64.9965 183.698ZM276.792 182.968C275.689 182.968 274.794 184.389 274.794 185.697C274.794 187.005 275.689 188.963 276.792 188.963C277.896 188.963 278.79 187.005 278.79 185.697C278.79 184.389 277.896 182.968 276.792 182.968ZM130.462 34.5755C130.462 35.8834 129.566 37.8419 128.464 37.8419C127.361 37.8419 126.465 35.8834 126.465 34.5755C126.465 33.2675 127.361 31.8467 128.464 31.8467C129.566 31.8467 130.462 33.2675 130.462 34.5755ZM107.711 87.6111C107.711 88.919 106.816 90.8774 105.713 90.8774C104.61 90.8774 103.715 88.919 103.715 87.6111C103.715 86.3031 104.61 84.8823 105.713 84.8823C106.816 84.8823 107.711 86.3031 107.711 87.6111ZM175.646 165.549C175.646 166.857 176.541 168.815 177.644 168.815C178.747 168.815 179.642 166.857 179.642 165.549C179.642 164.24 178.747 162.82 177.644 162.82C176.541 162.82 175.646 164.24 175.646 165.549ZM213.353 86.6119C213.353 85.3039 214.248 83.8831 215.351 83.8831C216.455 83.8831 217.349 85.3039 217.349 86.6119C217.349 87.9198 216.455 89.8783 215.351 89.8783C214.248 89.8783 213.353 87.9198 213.353 86.6119ZM73.4883 165.817C74.5923 165.817 75.4864 163.859 75.4864 162.551C75.4864 161.243 74.5923 159.822 73.4883 159.822C72.3854 159.822 71.4902 161.243 71.4902 162.551C71.4902 163.859 72.3854 165.817 73.4883 165.817ZM29.875 178.729C29.875 180.037 28.9809 181.995 27.877 181.995C26.774 181.995 25.8789 180.037 25.8789 178.729C25.8789 177.421 26.774 176 27.877 176C28.9809 176 29.875 177.421 29.875 178.729ZM17.8151 118.344C17.8151 119.652 18.7092 121.611 19.8131 121.611C20.9161 121.611 21.8112 119.652 21.8112 118.344C21.8112 117.036 20.9161 115.615 19.8131 115.615C18.7092 115.615 17.8151 117.036 17.8151 118.344ZM140.951 13.4283C140.951 14.7363 140.056 16.6947 138.953 16.6947C137.85 16.6947 136.955 14.7363 136.955 13.4283C136.955 12.1204 137.85 10.6995 138.953 10.6995C140.056 10.6995 140.951 12.1204 140.951 13.4283ZM249.157 63.037C250.452 62.5653 250.798 60.2422 250.326 58.9452C249.854 57.6493 248.29 56.6241 246.995 57.0957C245.698 57.5673 245.16 59.3579 245.632 60.6549C246.104 61.9508 247.861 63.5086 249.157 63.037ZM107.293 138.976C105.998 139.448 104.24 137.89 103.769 136.594C103.297 135.297 103.835 133.506 105.131 133.035C106.428 132.563 107.991 133.588 108.462 134.885C108.935 136.181 108.59 138.504 107.293 138.976ZM177.062 210.973C175.765 211.444 175.228 213.235 175.699 214.532C176.171 215.827 177.928 217.385 179.224 216.914C180.52 216.442 180.865 214.118 180.393 212.823C179.921 211.526 178.358 210.5 177.062 210.973ZM218.101 133.885C218.573 135.182 218.228 137.505 216.932 137.977C215.637 138.449 213.879 136.891 213.408 135.595C212.936 134.298 213.474 132.507 214.769 132.036C216.066 131.564 217.63 132.589 218.101 133.885ZM71.5444 211.534C72.0159 212.83 73.7732 214.387 75.069 213.917C76.3657 213.444 76.7094 211.121 76.2379 209.825C75.7663 208.528 74.2028 207.503 72.9071 207.975C71.6103 208.446 71.0728 210.237 71.5444 211.534ZM141.703 60.7016C142.175 61.9986 141.83 64.3217 140.534 64.7934C139.238 65.265 137.481 63.7072 137.009 62.4103C136.538 61.1143 137.076 59.3237 138.372 58.8521C139.668 58.3805 141.231 59.4057 141.703 60.7016ZM264.475 71.7444C264.643 73.1143 266.005 75.0278 267.374 74.8589C268.743 74.691 269.601 72.5048 269.433 71.1359C269.265 69.767 267.972 68.4151 266.603 68.5829C265.235 68.7518 264.308 70.3745 264.475 71.7444ZM125.51 150.798C124.142 150.967 122.78 149.053 122.612 147.684C122.444 146.314 123.372 144.691 124.74 144.522C126.109 144.354 127.402 145.706 127.57 147.075C127.738 148.444 126.88 150.63 125.51 150.798ZM232.251 146.684C232.418 148.054 233.78 149.968 235.15 149.799C236.518 149.631 237.377 147.445 237.209 146.076C237.04 144.707 235.748 143.355 234.379 143.523C233.01 143.692 232.083 145.314 232.251 146.684ZM157.98 70.3399C159.35 70.171 160.643 71.522 160.811 72.8919C160.979 74.2608 160.12 76.447 158.751 76.6159C157.382 76.7837 156.02 74.8693 155.853 73.5004C155.685 72.1315 156.612 70.5078 157.98 70.3399ZM237.838 80.4718C239.208 80.3039 240.065 78.1177 239.898 76.7478C239.729 75.3789 238.436 74.028 237.068 74.1958C235.698 74.3637 234.771 75.9874 234.94 77.3563C235.108 78.7262 236.468 80.6397 237.838 80.4718ZM95.2042 150.135C96.5738 149.967 97.8666 151.318 98.0344 152.687C98.2023 154.057 97.3441 156.243 95.9744 156.411C94.6057 156.579 93.244 154.665 93.0762 153.295C92.9084 151.926 93.8355 150.303 95.2042 150.135ZM207.673 151.688C207.841 153.058 206.982 155.244 205.614 155.412C204.244 155.58 202.883 153.666 202.715 152.296C202.547 150.927 203.474 149.304 204.843 149.136C206.212 148.968 207.505 150.319 207.673 151.688ZM129.215 82.2277C130.585 82.0598 131.442 79.8736 131.275 78.5037C131.106 77.1348 129.814 75.7838 128.445 75.9517C127.075 76.1196 126.148 77.7433 126.317 79.1132C126.485 80.4821 127.846 82.3955 129.215 82.2277ZM208.928 73.7502C209.095 75.1201 208.238 77.3063 206.868 77.4742C205.498 77.6421 204.137 75.7286 203.97 74.3587C203.801 72.9898 204.728 71.3661 206.098 71.1982C207.466 71.0304 208.759 72.3813 208.928 73.7502ZM65.0048 153.413C66.3745 153.245 67.2317 151.059 67.0638 149.689C66.896 148.32 65.6032 146.969 64.2346 147.137C62.8649 147.305 61.9378 148.929 62.1066 150.298C62.2744 151.668 63.6351 153.581 65.0048 153.413ZM13.3891 105.482C13.556 106.852 12.6988 109.038 11.3291 109.206C9.96045 109.374 8.59876 107.46 8.43093 106.092C8.26209 104.722 9.18919 103.098 10.5589 102.93C11.9276 102.762 13.2203 104.113 13.3891 105.482ZM275.9 152.297C276.068 153.666 277.429 155.58 278.798 155.412C280.168 155.243 281.026 153.057 280.858 151.688C280.689 150.319 279.396 148.967 278.028 149.135C276.659 149.304 275.732 150.928 275.9 152.297ZM174.644 152.414C176.012 152.246 176.87 150.06 176.703 148.69C176.535 147.321 175.242 145.97 173.873 146.138C172.504 146.306 171.577 147.93 171.745 149.299C171.913 150.669 173.274 152.582 174.644 152.414ZM100.305 75.5061C100.472 76.876 99.6149 79.0622 98.2452 79.2301C96.8755 79.3979 95.5149 77.4845 95.347 76.1156C95.1782 74.7457 96.1053 73.122 97.475 72.9541C98.8436 72.7862 100.136 74.1372 100.305 75.5061ZM41.045 85.2253C42.4137 85.0574 43.2719 82.8712 43.1041 81.5013C42.9362 80.1324 41.6435 78.7814 40.2748 78.9493C38.9051 79.1172 37.978 80.7409 38.1468 82.1108C38.3147 83.4797 39.6754 85.3932 41.045 85.2253ZM199.874 51.4953C198.506 51.6632 197.144 49.7497 196.976 48.3798C196.808 47.0109 197.735 45.3872 199.104 45.2183C200.473 45.0505 201.765 46.4024 201.934 47.7713C202.102 49.1402 201.244 51.3265 199.874 51.4953ZM58.0116 127.434C59.3812 127.266 60.2384 125.08 60.0706 123.71C59.9027 122.341 58.61 120.99 57.2413 121.158C55.8716 121.326 54.9445 122.95 55.1134 124.319C55.2812 125.689 56.6419 127.602 58.0116 127.434ZM271.034 123.156C272.404 122.989 273.697 124.34 273.865 125.708C274.033 127.078 273.174 129.265 271.805 129.432C270.436 129.6 269.075 127.687 268.906 126.317C268.739 124.948 269.666 123.324 271.034 123.156ZM129.942 205.372C131.312 205.203 132.169 203.018 132.002 201.648C131.833 200.278 130.541 198.928 129.172 199.096C127.802 199.264 126.875 200.887 127.044 202.257C127.212 203.626 128.572 205.54 129.942 205.372ZM167.65 126.435C166.281 126.603 164.92 124.69 164.752 123.32C164.584 121.951 165.511 120.327 166.88 120.158C168.248 119.99 169.541 121.342 169.709 122.711C169.878 124.08 169.019 126.266 167.65 126.435ZM27.8464 198.65C27.6785 197.281 26.3858 195.93 25.0161 196.098C23.6474 196.265 22.7203 197.889 22.8892 199.259C23.057 200.628 24.4177 202.542 25.7874 202.374C27.156 202.206 28.0142 200.019 27.8464 198.65ZM241.64 200.648C241.808 202.018 240.95 204.204 239.581 204.372C238.211 204.54 236.851 202.627 236.683 201.258C236.514 199.888 237.441 198.264 238.811 198.097C240.179 197.929 241.472 199.279 241.64 200.648ZM88.3534 50.1362C88.5212 51.5061 89.8829 53.4196 91.2516 53.2507C92.6213 53.0828 93.4794 50.8966 93.3116 49.5277C93.1427 48.1578 91.85 46.8069 90.4813 46.9747C89.1126 47.1426 88.1855 48.7663 88.3534 50.1362ZM34.0514 59.2459C32.6827 59.4148 31.321 57.5013 31.1532 56.1314C30.9854 54.7615 31.9125 53.1378 33.2811 52.9699C34.6498 52.8021 35.9426 54.153 36.1104 55.5229C36.2792 56.8918 35.4201 59.078 34.0514 59.2459ZM218.859 22.4533C219.764 21.4121 218.939 19.2129 217.898 18.3086C216.857 17.4033 214.992 17.2635 214.087 18.3046C213.182 19.3468 213.58 21.1733 214.621 22.0786C215.662 22.9839 217.954 23.4945 218.859 22.4533ZM76.0346 94.2477C77.0756 95.152 77.9008 97.3513 76.9956 98.3924C76.0905 99.4336 73.7987 98.923 72.7577 98.0177C71.7167 97.1124 71.3191 95.2859 72.2242 94.2438C73.1294 93.2026 74.9936 93.3425 76.0346 94.2477ZM17.1676 8.87257C18.0728 7.83141 17.2476 5.63217 16.2066 4.72789C15.1656 3.82262 13.3014 3.68273 12.3962 4.7239C11.4911 5.76606 11.8887 7.5926 12.9297 8.49787C13.9707 9.40315 16.2625 9.91374 17.1676 8.87257ZM147.965 172.185C149.006 173.09 149.831 175.288 148.926 176.33C148.021 177.371 145.729 176.86 144.688 175.955C143.647 175.05 143.25 173.223 144.155 172.182C145.06 171.141 146.924 171.28 147.965 172.185ZM181.863 93.2448C180.958 94.2859 181.356 96.1135 182.397 97.0187C183.438 97.924 185.729 98.4346 186.634 97.3934C187.54 96.3523 186.715 94.153 185.674 93.2477C184.633 92.3435 182.768 92.2036 181.863 93.2448ZM40.5336 172.957C39.4926 172.053 39.095 170.225 40.0001 169.184C40.9053 168.143 42.7695 168.283 43.8105 169.187C44.8515 170.092 45.6767 172.29 44.7705 173.333C43.8664 174.373 41.5746 173.863 40.5336 172.957ZM28.3827 149.729C27.4775 150.771 27.8751 152.598 28.9161 153.502C29.9571 154.409 32.2489 154.918 33.1541 153.877C34.0592 152.836 33.234 150.638 32.193 149.732C31.152 148.827 29.2878 148.688 28.3827 149.729ZM254.327 174.955C253.286 174.051 252.889 172.223 253.794 171.182C254.699 170.141 256.563 170.281 257.604 171.185C258.645 172.091 259.47 174.289 258.564 175.331C257.66 176.371 255.368 175.862 254.327 174.955ZM110.236 24.2097C111.141 23.1685 110.316 20.9693 109.275 20.064C108.234 19.1587 106.37 19.0198 105.465 20.061C104.56 21.1022 104.957 22.9297 105.998 23.835C107.039 24.7403 109.331 25.2508 110.236 24.2097ZM52.0748 26.0592C53.1158 26.9645 53.941 29.1637 53.0359 30.2049C52.1307 31.246 49.839 30.7355 48.798 29.8302C47.757 28.9249 47.3593 27.0974 48.2645 26.0562C49.1696 25.015 51.0338 25.1539 52.0748 26.0592ZM192.457 33.2688C194.096 33.4986 195.77 31.2315 196 29.5928C196.23 27.9531 195.152 25.9857 193.513 25.7548C191.874 25.525 190.294 27.1188 190.064 28.7584C189.835 30.3971 190.818 33.039 192.457 33.2688ZM48.2008 104.698C48.4316 103.058 50.0101 101.464 51.6495 101.694C53.2889 101.925 54.3679 103.892 54.1371 105.532C53.9063 107.171 52.2329 109.438 50.5935 109.208C48.9551 108.978 47.9711 106.336 48.2008 104.698ZM265.443 103.692C263.804 103.463 262.225 105.056 261.994 106.696C261.765 108.335 262.749 110.977 264.387 111.206C266.027 111.436 267.7 109.169 267.931 107.53C268.161 105.891 267.083 103.923 265.443 103.692ZM122.524 187.146C120.885 186.915 119.902 184.275 120.132 182.635C120.362 180.995 121.941 179.402 123.58 179.631C125.22 179.862 126.298 181.83 126.067 183.469C125.837 185.109 124.164 187.376 122.524 187.146ZM163.776 104.533C164.005 102.893 162.927 100.925 161.288 100.695C159.65 100.465 158.07 102.058 157.84 103.698C157.61 105.338 158.594 107.979 160.233 108.209C161.871 108.439 163.546 106.172 163.776 104.533ZM8.91228 186.026C9.14306 184.386 10.7215 182.792 12.361 183.022C14.0004 183.252 15.0783 185.22 14.8486 186.86C14.6178 188.499 12.9444 190.767 11.305 190.537C9.66555 190.305 8.68151 187.664 8.91228 186.026ZM229.771 181.636C229.54 183.275 230.524 185.915 232.163 186.147C233.803 186.377 235.476 184.11 235.706 182.47C235.937 180.83 234.858 178.863 233.219 178.632C231.58 178.402 230 179.996 229.771 181.636ZM87.3769 31.3482C87.1471 32.9878 85.4737 35.255 83.8343 35.0252C82.1949 34.7944 81.2119 32.1535 81.4416 30.5138C81.6714 28.8751 83.2509 27.2814 84.8903 27.5112C86.5297 27.7411 87.6077 29.7095 87.3769 31.3482ZM26.6342 41.0204C28.2736 41.2502 29.947 38.983 30.1767 37.3434C30.4075 35.7047 29.3286 33.7363 27.6901 33.5064C26.0507 33.2766 24.4712 34.8703 24.2415 36.509C24.0107 38.1487 24.9947 40.7896 26.6342 41.0204ZM182.664 36.353C183.374 37.535 183.48 39.8821 182.297 40.5926C181.114 41.303 179.092 40.1089 178.383 38.9269C177.671 37.7438 177.858 35.8833 179.041 35.1729C180.223 34.4625 181.953 35.1709 182.664 36.353ZM36.5191 114.866C37.2294 116.048 39.2515 117.242 40.4333 116.531C41.6162 115.822 41.5113 113.475 40.801 112.293C40.0907 111.11 38.3603 110.401 37.1775 111.112C35.9956 111.823 35.8088 113.682 36.5191 114.866ZM254.227 118.53C253.045 119.24 251.023 118.046 250.313 116.864C249.602 115.681 249.789 113.821 250.971 113.11C252.154 112.4 253.884 113.108 254.595 114.291C255.305 115.473 255.41 117.82 254.227 118.53ZM112.364 194.469C113.547 193.759 113.441 191.412 112.731 190.23C112.021 189.047 110.29 188.338 109.109 189.05C107.926 189.76 107.739 191.62 108.45 192.803C109.159 193.986 111.182 195.18 112.364 194.469ZM150.44 111.293C151.15 112.475 151.255 114.822 150.072 115.532C148.89 116.243 146.867 115.049 146.158 113.867C145.448 112.684 145.634 110.823 146.816 110.113C147.998 109.402 149.728 110.111 150.44 111.293ZM7.20904 213.704C8.3919 212.994 8.287 210.647 7.57669 209.465C6.86537 208.281 5.13504 207.573 3.95318 208.284C2.77132 208.995 2.5845 210.854 3.29482 212.037C4.00413 213.221 6.02718 214.415 7.20904 213.704ZM218.088 191.804C217.377 190.621 217.564 188.761 218.747 188.051C219.929 187.339 221.659 188.048 222.369 189.231C223.08 190.413 223.185 192.76 222.003 193.47C220.821 194.181 218.798 192.986 218.088 191.804ZM16.4741 48.3441C17.6559 47.6337 17.551 45.2866 16.8407 44.1045C16.1304 42.9225 14.4001 42.2131 13.2182 42.9245C12.0353 43.6349 11.8485 45.4954 12.5588 46.6775C13.2692 47.8605 15.2912 49.0546 16.4741 48.3441ZM197.079 8.83281C198.12 9.73808 198.945 11.9373 198.04 12.9785C197.135 14.0197 194.843 13.5091 193.802 12.6038C192.761 11.6985 192.363 9.87098 193.269 8.82981C194.174 7.78865 196.038 7.92753 197.079 8.83281ZM56.1769 88.9176C57.0821 87.8765 56.2569 85.6772 55.2159 84.7719C54.1749 83.8667 52.3107 83.7278 51.4055 84.769C50.5004 85.8101 50.898 87.6376 51.939 88.5429C52.98 89.4482 55.2718 89.9588 56.1769 88.9176ZM28.193 74.7324C29.234 75.6377 30.0592 77.8369 29.1541 78.8781C28.2489 79.9192 25.9571 79.4086 24.9161 78.5034C23.8751 77.5981 23.4775 75.7705 24.3827 74.7294C25.2878 73.6882 27.152 73.8271 28.193 74.7324ZM265.199 86.7674C264.294 87.8086 264.692 89.6361 265.733 90.5414C266.774 91.4467 269.066 91.9573 269.971 90.9161C270.876 89.875 270.051 87.6757 269.01 86.7704C267.969 85.8652 266.104 85.7263 265.199 86.7674ZM127.146 162.71C128.187 163.615 129.013 165.813 128.107 166.855C127.202 167.896 124.911 167.385 123.87 166.48C122.829 165.576 122.431 163.748 123.336 162.707C124.241 161.666 126.105 161.805 127.146 162.71ZM164.855 83.7729C163.814 82.8676 161.95 82.7287 161.044 83.7699C160.139 84.811 160.537 86.6385 161.578 87.5438C162.619 88.4491 164.911 88.9597 165.815 87.9185C166.721 86.8774 165.896 84.6781 164.855 83.7729ZM9.91614 167.502C8.87515 166.598 8.47753 164.77 9.38266 163.729C10.2878 162.688 12.152 162.828 13.193 163.732C14.234 164.637 15.0592 166.836 14.1531 167.877C13.2489 168.918 10.9571 168.408 9.91614 167.502ZM237.746 165.855C238.651 164.814 237.827 162.616 236.786 161.711C235.745 160.805 233.879 160.667 232.975 161.708C232.069 162.749 232.467 164.576 233.508 165.481C234.549 166.386 236.841 166.897 237.746 165.855ZM88.4562 10.5897C89.4972 11.494 90.3224 13.6932 89.4172 14.7344C88.5121 15.7755 86.2203 15.265 85.1793 14.3597C84.1383 13.4544 83.7407 11.6279 84.6459 10.5867C85.551 9.54554 87.4152 9.68443 88.4562 10.5897ZM44.1416 10.8704C45.0467 9.82928 44.2215 7.63004 43.1805 6.72577C42.1395 5.82049 40.2753 5.6816 39.3702 6.72277C38.4651 7.76393 38.8627 9.59047 39.9037 10.4957C40.9447 11.401 43.2365 11.9116 44.1416 10.8704ZM271.727 54.5702C270.686 53.665 270.288 51.8374 271.193 50.7963C272.099 49.7551 273.963 49.894 275.004 50.7993C276.045 51.7045 276.87 53.9038 275.965 54.945C275.06 55.9861 272.768 55.4755 271.727 54.5702ZM129.33 126.735C128.425 127.777 128.823 129.604 129.864 130.509C130.905 131.415 133.197 131.925 134.102 130.884C135.007 129.843 134.182 127.644 133.141 126.738C132.1 125.833 130.236 125.694 129.33 126.735ZM205.071 204.676C206.112 205.582 206.937 207.78 206.032 208.821C205.127 209.862 202.835 209.352 201.794 208.446C200.753 207.542 200.356 205.715 201.261 204.673C202.166 203.632 204.03 203.771 205.071 204.676ZM242.779 125.739C241.738 124.834 239.874 124.695 238.969 125.736C238.064 126.777 238.462 128.605 239.503 129.51C240.544 130.415 242.835 130.926 243.74 129.885C244.646 128.844 243.82 126.644 242.779 125.739ZM97.6396 205.448C96.5986 204.544 96.201 202.717 97.1061 201.675C98.0112 200.634 99.8754 200.774 100.916 201.678C101.957 202.584 102.783 204.782 101.877 205.823C100.972 206.864 98.6806 206.355 97.6396 205.448ZM162.571 52.5528C161.666 53.5939 162.063 55.4215 163.104 56.3257C164.145 57.232 166.437 57.7426 167.342 56.7004C168.247 55.6593 167.422 53.461 166.381 52.5558C165.34 51.6505 163.476 51.5116 162.571 52.5528ZM266.242 38.6261C266.713 39.9231 266.369 42.2452 265.073 42.7178C263.776 43.1895 262.02 41.6317 261.548 40.3348C261.076 39.0388 261.614 37.2472 262.91 36.7756C264.207 36.304 265.77 37.3292 266.242 38.6261ZM123.21 118.657C124.506 118.184 124.85 115.862 124.379 114.565C123.907 113.268 122.344 112.243 121.047 112.715C119.751 113.186 119.213 114.978 119.685 116.274C120.157 117.571 121.913 119.129 123.21 118.657ZM191.615 194.212C191.144 192.915 191.682 191.125 192.978 190.653C194.274 190.18 195.837 191.207 196.309 192.503C196.781 193.798 196.437 196.123 195.141 196.594C193.844 197.066 192.087 195.508 191.615 194.212ZM232.848 117.658C234.144 117.185 234.49 114.863 234.017 113.566C233.546 112.269 231.982 111.244 230.686 111.716C229.39 112.187 228.852 113.979 229.324 115.275C229.795 116.572 231.552 118.129 232.848 117.658ZM87.4604 191.215C86.9889 189.918 87.5274 188.127 88.8231 187.655C90.1189 187.183 91.6824 188.209 92.1539 189.506C92.6264 190.801 92.2818 193.125 90.985 193.597C89.6893 194.068 87.932 192.51 87.4604 191.215ZM156.45 44.4742C157.746 44.0016 158.091 41.6795 157.619 40.3825C157.148 39.0856 155.584 38.0604 154.287 38.532C152.992 39.0036 152.453 40.7942 152.926 42.0912C153.397 43.3881 155.154 44.9459 156.45 44.4742ZM275.233 18.6421C275.705 19.9391 275.36 22.2612 274.064 22.7339C272.767 23.2055 271.011 21.6477 270.54 20.3508C270.067 19.0548 270.606 17.2633 271.901 16.7916C273.198 16.32 274.762 17.3452 275.233 18.6421ZM130.039 92.731C128.743 93.2026 128.204 94.9941 128.676 96.2901C129.148 97.5861 130.905 99.1448 132.202 98.6732C133.497 98.2006 133.842 95.8774 133.37 94.5815C132.898 93.2845 131.334 92.2593 130.039 92.731ZM204.131 176.611C202.835 177.081 201.078 175.525 200.607 174.228C200.134 172.931 200.673 171.14 201.969 170.669C203.265 170.197 204.829 171.222 205.3 172.519C205.772 173.815 205.428 176.138 204.131 176.611ZM239.677 91.7318C238.381 92.2034 237.843 93.9949 238.315 95.2909C238.786 96.5869 240.544 98.1456 241.839 97.674C243.135 97.2014 243.481 94.8782 243.008 93.5823C242.537 92.2853 240.973 91.2601 239.677 91.7318ZM96.4518 171.231C95.9802 169.934 96.5177 168.143 97.8144 167.671C99.1102 167.199 100.674 168.225 101.145 169.522C101.618 170.817 101.272 173.141 99.9763 173.613C98.6806 174.084 96.9233 172.527 96.4518 171.231ZM161.917 22.1074C162.388 23.4033 164.145 24.9611 165.441 24.4905C166.738 24.0178 167.082 21.6947 166.61 20.3987C166.139 19.1018 164.575 18.0766 163.279 18.5482C161.983 19.0198 161.444 20.8104 161.917 22.1074ZM236.758 49.5409C235.488 49.0023 235.357 47.1098 235.897 45.8399C236.436 44.5699 237.976 44.0733 239.246 44.6128C240.515 45.1524 241.034 46.5223 240.495 47.7923C239.956 49.0623 238.028 50.0805 236.758 49.5409ZM94.895 125.48C96.1647 126.02 98.0929 125.002 98.6323 123.732C99.1708 122.462 98.6523 121.091 97.3826 120.552C96.1128 120.013 94.5733 120.509 94.0338 121.779C93.4953 123.049 93.6252 124.941 94.895 125.48ZM10.7965 27.374C10.2571 28.644 8.32893 29.6622 7.05915 29.1226C5.78938 28.5831 5.65951 26.6916 6.19799 25.4216C6.73747 24.1516 8.27698 23.655 9.54675 24.1946C10.8165 24.7332 11.335 26.1041 10.7965 27.374ZM165.964 199.716C165.425 200.986 165.556 202.878 166.826 203.417C168.095 203.957 170.024 202.938 170.563 201.668C171.101 200.399 170.583 199.029 169.313 198.489C168.043 197.949 166.504 198.446 165.964 199.716ZM204.533 124.481C203.264 123.942 203.134 122.05 203.672 120.78C204.212 119.51 205.751 119.013 207.021 119.553C208.291 120.092 208.809 121.462 208.271 122.732C207.731 124.002 205.803 125.02 204.533 124.481ZM61.8092 196.718C61.2707 197.988 61.4006 199.881 62.6704 200.419C63.9401 200.959 65.8683 199.941 66.4078 198.671C66.9462 197.402 66.4277 196.031 65.158 195.491C63.8882 194.952 62.3487 195.448 61.8092 196.718ZM276.464 202.418C275.194 201.879 275.064 199.987 275.603 198.717C276.142 197.447 277.682 196.95 278.952 197.49C280.221 198.029 280.74 199.4 280.201 200.669C279.662 201.939 277.734 202.957 276.464 202.418ZM130.623 46.3692C129.353 45.8297 127.813 46.3263 127.274 47.5962C126.735 48.8662 126.866 50.7587 128.135 51.2973C129.405 51.8358 131.333 50.8187 131.872 49.5487C132.411 48.2787 131.893 46.9078 130.623 46.3692ZM181.702 67.846C180.433 67.3074 180.302 65.415 180.841 64.145C181.381 62.875 182.92 62.3784 184.19 62.918C185.46 63.4575 185.978 64.8274 185.44 66.0974C184.9 67.3674 182.972 68.3856 181.702 67.846ZM38.9781 140.084C38.4387 141.354 38.5695 143.247 39.8393 143.785C41.1091 144.325 43.0372 143.307 43.5767 142.037C44.1152 140.767 43.5967 139.397 42.3269 138.857C41.0571 138.318 39.5176 138.814 38.9781 140.084ZM11.8796 127.806C11.3401 129.076 9.41198 130.094 8.14221 129.554C6.87243 129.015 6.74256 127.123 7.28104 125.853C7.82052 124.583 9.36003 124.087 10.6298 124.626C11.8996 125.165 12.4181 126.536 11.8796 127.806ZM252.772 142.083C252.232 143.352 252.363 145.245 253.633 145.784C254.903 146.323 256.831 145.305 257.37 144.035C257.909 142.765 257.39 141.395 256.121 140.855C254.851 140.316 253.311 140.813 252.772 142.083ZM149.478 142.786C148.208 142.247 148.077 140.355 148.616 139.085C149.156 137.815 150.695 137.318 151.965 137.858C153.235 138.397 153.754 139.767 153.215 141.037C152.676 142.307 150.747 143.326 149.478 142.786ZM73.0795 69.6025C74.3493 70.1421 76.2774 69.1239 76.8169 67.8539C77.3554 66.5839 76.8369 65.213 75.5671 64.6745C74.2973 64.1349 72.7578 64.6315 72.2183 65.9015C71.6799 67.1714 71.8097 69.0629 73.0795 69.6025ZM18.0402 64.1437C16.7705 63.6051 16.6396 61.7126 17.1791 60.4426C17.7185 59.1726 19.2581 58.676 20.5278 59.2156C21.7976 59.7552 22.3161 61.1251 21.7776 62.3951C21.2381 63.665 19.31 64.6832 18.0402 64.1437ZM222.663 7.89416C223.932 8.43373 225.861 7.41554 226.4 6.14556C226.939 4.87558 226.42 3.50468 225.15 2.96611C223.881 2.42654 222.341 2.92315 221.802 4.19313C221.263 5.46311 221.393 7.35459 222.663 7.89416ZM84.5371 82.0847C83.9976 83.3547 82.0694 84.3729 80.7997 83.8333C79.5299 83.2937 79.4 81.4022 79.9385 80.1323C80.478 78.8623 82.0175 78.3657 83.2873 78.9053C84.557 79.4438 85.0755 80.8147 84.5371 82.0847ZM155.218 156.843C153.948 156.303 152.408 156.801 151.869 158.07C151.33 159.341 151.461 161.232 152.73 161.771C154 162.309 155.928 161.292 156.467 160.022C157.006 158.752 156.488 157.382 155.218 156.843ZM194.175 81.0855C193.636 82.3555 191.708 83.3737 190.438 82.8341C189.169 82.2945 189.038 80.403 189.577 79.1331C190.116 77.8631 191.656 77.3665 192.926 77.9061C194.196 78.4446 194.714 79.8155 194.175 81.0855ZM276.04 103.144C277.31 103.683 279.238 102.665 279.777 101.395C280.316 100.125 279.798 98.7542 278.528 98.2156C277.258 97.676 275.718 98.1726 275.179 99.4426C274.64 100.713 274.77 102.604 276.04 103.144ZM51.0632 153.845C52.3329 154.384 52.8514 155.755 52.312 157.025C51.7725 158.295 49.8453 159.312 48.5756 158.773C47.3058 158.235 47.1749 156.342 47.7134 155.072C48.2529 153.802 49.7934 153.306 51.0632 153.845ZM16.8785 144.542C18.1482 145.082 20.0764 144.064 20.6149 142.794C21.1543 141.524 20.6358 140.153 19.3661 139.614C18.0963 139.075 16.5558 139.571 16.0173 140.841C15.4778 142.111 15.6087 144.003 16.8785 144.542ZM266.105 159.023C265.567 160.293 263.639 161.31 262.369 160.772C261.099 160.233 260.968 158.341 261.508 157.071C262.046 155.801 263.587 155.304 264.857 155.844C266.126 156.382 266.645 157.753 266.105 159.023ZM114.04 9.65055C115.31 10.1901 117.238 9.17194 117.777 7.90195C118.316 6.63197 117.797 5.26107 116.528 4.7225C115.258 4.18294 113.718 4.67954 113.179 5.94952C112.64 7.2195 112.77 9.11098 114.04 9.65055ZM60.5763 13.8972C60.0378 15.1671 58.1097 16.1853 56.8399 15.6457C55.5701 15.1062 55.4392 13.2147 55.9787 11.9447C56.5172 10.6747 58.0577 10.1781 59.3275 10.7177C60.5973 11.2563 61.1158 12.6272 60.5763 13.8972ZM220.665 62.8501C221.934 63.3897 223.863 62.3715 224.402 61.1015C224.941 59.8315 224.422 58.4606 223.152 57.9221C221.882 57.3825 220.343 57.8791 219.803 59.1491C219.265 60.4191 219.395 62.3105 220.665 62.8501ZM82.539 137.041C81.9995 138.311 80.0714 139.329 78.8016 138.789C77.5318 138.25 77.4019 136.358 77.9404 135.088C78.4799 133.818 80.0194 133.322 81.2892 133.861C82.559 134.4 83.0775 135.771 82.539 137.041ZM25.1258 94.5825C26.3956 95.122 28.3237 94.1039 28.8632 92.8339C29.4017 91.5639 28.8832 90.193 27.6134 89.6544C26.3436 89.1149 24.8041 89.6115 24.2646 90.8814C23.7262 92.1514 23.856 94.0429 25.1258 94.5825ZM9.77718 77.3951C9.2377 78.665 7.30956 79.6832 6.03979 79.1437C4.77002 78.6041 4.64014 76.7126 5.17862 75.4426C5.7181 74.1726 7.25761 73.676 8.52739 74.2156C9.79716 74.7542 10.3157 76.1251 9.77718 77.3951ZM153.22 211.799C151.95 211.26 150.41 211.756 149.871 213.026C149.332 214.296 149.463 216.189 150.732 216.727C152.002 217.266 153.93 216.248 154.469 214.979C155.008 213.708 154.49 212.338 153.22 211.799ZM192.177 136.041C191.638 137.311 189.71 138.33 188.44 137.79C187.171 137.25 187.04 135.359 187.579 134.089C188.118 132.819 189.658 132.322 190.928 132.862C192.198 133.401 192.716 134.771 192.177 136.041ZM46.5773 213.729C47.8471 214.268 49.7752 213.251 50.3137 211.981C50.8532 210.711 50.3347 209.34 49.0649 208.801C47.7951 208.262 46.2546 208.758 45.7161 210.028C45.1767 211.298 45.3075 213.191 46.5773 213.729ZM264.107 213.979C263.569 215.249 261.641 216.266 260.371 215.728C259.101 215.189 258.97 213.297 259.51 212.027C260.048 210.757 261.589 210.26 262.858 210.8C264.128 211.338 264.647 212.709 264.107 213.979ZM112.042 64.6065C113.312 65.1461 115.24 64.1279 115.779 62.8579C116.318 61.5879 115.799 60.217 114.53 59.6785C113.26 59.1389 111.72 59.6355 111.181 60.9055C110.642 62.1755 110.772 64.0669 112.042 64.6065ZM58.5782 68.8531C58.0397 70.1231 56.1116 71.1413 54.8418 70.6017C53.572 70.0621 53.4412 68.1706 53.9807 66.9007C54.5191 65.6307 56.0596 65.1341 57.3294 65.6737C58.5992 66.2122 59.1177 67.5831 58.5782 68.8531Z" fill="#010101"/></g></g></g></g><g id="Dog"><path id="Fill 1_3" fill-rule="evenodd" clip-rule="evenodd" d="M1585 1095.48C1611.26 1086.91 1665.98 1081.44 1692.31 1169.71C1692.31 1169.71 1766.9 1169.37 1809.13 1175.18C1858.43 1181.97 1859.69 1204.43 1879.95 1215.14C1927.45 1240.27 1962.3 1243.04 1962.47 1248.53C1962.98 1265.55 1892.27 1244.91 1883.6 1242.02C1883.6 1242.02 1896.88 1278.72 1878.86 1362.14C1878.21 1365.12 1875.48 1367.19 1872.44 1366.99L1863.7 1366.39C1860.48 1366.17 1857.99 1363.49 1857.99 1360.26V1313.75C1857.99 1311.4 1856.02 1309.54 1853.68 1309.67L1853.54 1309.68C1851.47 1309.79 1849.82 1311.43 1849.69 1313.5L1846.7 1360.7C1846.49 1363.93 1843.82 1366.45 1840.58 1366.45H1833.85C1830.56 1366.45 1827.86 1363.84 1827.73 1360.55L1824.82 1286.53C1824.82 1286.53 1721.74 1311.22 1680.06 1309.88L1673.88 1367.6C1673.56 1370.57 1671.16 1372.88 1668.19 1373.08L1665.03 1373.29C1662.06 1373.49 1659.37 1371.52 1658.66 1368.62L1646.35 1318.13C1645.88 1316.21 1644.11 1314.9 1642.14 1315.01L1641.54 1315.05C1639.47 1315.17 1637.83 1316.82 1637.7 1318.88L1634.66 1367.55C1634.48 1370.54 1632.16 1372.96 1629.19 1373.28L1622.99 1373.93C1619.79 1374.27 1616.87 1372.07 1616.31 1368.9L1588.18 1210.2C1588.18 1210.2 1524.99 1161.86 1555.59 1117.12C1562.65 1106.8 1573.13 1099.36 1585 1095.48" fill="#9B7368"/><path id="Fill 4_3" fill-rule="evenodd" clip-rule="evenodd" d="M1739.72 1253.5C1738.66 1243.74 1727.74 1238.47 1719.31 1243.46C1708.02 1250.15 1694.39 1262.01 1713.45 1273.36C1732.68 1284.82 1741.28 1267.82 1739.72 1253.5" fill="#F7D3BB"/><path id="Fill 6_3" fill-rule="evenodd" clip-rule="evenodd" d="M1616.11 1114.66C1615.09 1119.16 1611.9 1122.27 1608.99 1121.61C1606.07 1120.94 1604.53 1116.76 1605.55 1112.27C1606.57 1107.77 1609.76 1104.66 1612.67 1105.32C1615.59 1105.98 1617.13 1110.17 1616.11 1114.66" fill="#010101"/><path id="Fill 8_2" fill-rule="evenodd" clip-rule="evenodd" d="M1587.76 1134.47C1587.35 1133.72 1586.4 1133.44 1585.65 1133.85C1585.59 1133.88 1580.22 1136.75 1575.12 1135C1572.18 1133.99 1569.86 1131.59 1568.23 1127.86L1567.95 1127.21L1575.49 1118.84C1576.4 1117.82 1575.82 1116.2 1574.47 1115.99L1565.12 1114.55C1563.87 1114.35 1562.84 1115.54 1563.22 1116.75L1566.23 1126.62L1565.54 1127.56C1565.47 1127.66 1558.23 1137.39 1548.06 1133.47C1547.27 1133.16 1546.36 1133.56 1546.05 1134.37C1545.74 1135.17 1546.14 1136.07 1546.94 1136.38C1556.2 1139.95 1563.37 1134.34 1566.44 1131.24C1568.36 1134.61 1570.93 1136.86 1574.11 1137.96C1575.65 1138.49 1577.19 1138.69 1578.65 1138.69C1583.21 1138.69 1586.93 1136.7 1587.14 1136.59C1587.89 1136.18 1588.17 1135.23 1587.76 1134.47" fill="#010101"/><path id="Fill 10_2" fill-rule="evenodd" clip-rule="evenodd" d="M1640.97 1196.1C1653.63 1213.32 1671.98 1153.84 1677.63 1134C1669.54 1119.62 1660.37 1109.72 1650.87 1103.08C1646.31 1117.06 1627.62 1177.92 1640.97 1196.1" fill="#6D4038"/><path id="Fill 12_2" fill-rule="evenodd" clip-rule="evenodd" d="M1770.36 1219.2C1796.21 1259.73 1839.68 1205.01 1835.86 1181.83C1828.87 1179.03 1820.22 1176.71 1809.14 1175.18C1799.01 1173.79 1787.01 1172.75 1774.63 1171.97C1763.31 1179.68 1754.25 1193.94 1770.36 1219.2" fill="#F7D3BB"/><path id="Fill 14_2" fill-rule="evenodd" clip-rule="evenodd" d="M1550.18 1160.37C1542.26 1169.52 1523.17 1195.13 1534.39 1218.23C1544.95 1239.97 1557.5 1203.24 1562.98 1184.08C1557.82 1177.07 1553.08 1169.01 1550.18 1160.37" fill="#6D4038"/></g><g id="Object/Floor" transform="translate(318.941 898) scale(0.9974811083123426 1)"><g id="Object/Floor/Plant 1"><g id="Plant 1"><path id="Combined Shape" fill-rule="evenodd" clip-rule="evenodd" d="M56.8369 193.781C90.6009 178.963 129.973 182.921 159.128 205.494C163.988 209.257 171.01 216.311 174.707 220.476L165.828 238.044L180.12 228.185C202.312 262.399 195.02 302.158 193.773 308.046C185.146 317.997 128.568 305.516 91.0809 279.731L97.7319 240.5L75.9399 268.077C75.3979 267.578 74.8619 267.075 74.3379 266.57C38.2729 231.824 14.8789 218.369 14.8789 218.369C27.6759 207.656 45.2579 198.863 56.8369 193.781ZM288.147 228.518C232.045 266.395 249.862 318.677 249.862 318.677C249.862 318.677 287.786 348.764 342.451 304.46C397.116 260.157 380.95 209.685 380.95 209.685C380.95 209.685 361.482 199.583 329.228 208.728L322.697 231.734L319.773 211.851C317.654 212.649 315.491 213.53 313.283 214.499L307.202 245.895L297.025 222.89C294.124 224.61 291.164 226.482 288.147 228.518Z" fill="#5BA092"/><path id="Fill 7" fill-rule="evenodd" clip-rule="evenodd" d="M121.836 476.963L123.59 412.198C124.773 368.509 156.769 333.617 196.148 333.072C235.607 332.526 268.414 366.657 270.472 410.397L273.474 474.23L121.836 476.963Z" fill="#F3705A"/><path id="Combined Shape_2" fill-rule="evenodd" clip-rule="evenodd" d="M130.146 380.872C142.731 382.37 152.499 393.258 152.499 406.475C152.499 420.716 141.162 432.26 127.178 432.26C125.773 432.26 124.397 432.139 123.055 431.914L123.588 412.199C123.891 401.038 126.214 390.458 130.146 380.872ZM268.421 395.06C264.927 393.295 261.025 392.305 256.908 392.305C241.957 392.305 229.836 405.305 229.836 421.342C229.836 437.379 241.957 450.379 256.908 450.379C262.546 450.379 267.78 448.53 272.115 445.367L270.471 410.397C270.223 405.129 269.519 400.005 268.421 395.06ZM182.697 445.733C168.571 445.733 156.945 459.137 155.452 476.357L209.843 475.377C208.003 458.631 196.554 445.733 182.697 445.733Z" fill="#F4F0F0"/><path id="Fill 9" fill-rule="evenodd" clip-rule="evenodd" d="M228.79 356.813C228.79 362.934 214.535 367.896 196.95 367.896C179.365 367.896 165.109 362.934 165.109 356.813C165.109 350.693 179.365 345.731 196.95 345.731C214.535 345.731 228.79 350.693 228.79 356.813" fill="#E74B33"/><path id="Combined Shape_3" fill-rule="evenodd" clip-rule="evenodd" d="M125.641 226.708C125.668 226.79 125.688 226.872 125.701 226.954C133.983 231.339 141.91 236.955 149.439 243.784C161.001 254.271 171.647 267.62 181.186 283.577L179.178 261.066C179.109 260.287 179.685 259.598 180.464 259.528C181.253 259.454 181.932 260.036 182.002 260.814L184.551 289.397C185.599 291.269 186.632 293.174 187.651 295.112C198.916 316.548 206.092 337.714 210.061 351.37C229.204 333.2 261.222 303.425 290.78 278.811L280.599 253.017C280.312 252.289 280.669 251.466 281.397 251.178C282.122 250.892 282.949 251.247 283.236 251.976L293.076 276.906C313.062 260.375 331.73 246.426 344.273 240.316C344.98 239.975 345.825 240.266 346.169 240.969C346.512 241.673 346.219 242.522 345.516 242.865C342.307 244.428 338.56 246.595 334.297 249.348L362.378 254.267C363.15 254.402 363.665 255.137 363.531 255.907C363.409 256.596 362.811 257.081 362.136 257.081C362.055 257.081 361.972 257.073 361.89 257.06L332.009 251.825C331.688 251.768 331.411 251.608 331.207 251.385C316.936 260.976 297.549 276.402 273.809 297.066L314.399 300.34C315.18 300.403 315.761 301.087 315.698 301.867C315.638 302.608 315.017 303.17 314.287 303.17C314.248 303.17 314.21 303.169 314.171 303.166L270.825 299.671C265.702 304.155 260.385 308.874 254.879 313.824C237.8 329.178 222.033 343.941 210.944 354.467C212.704 360.774 213.657 364.997 213.917 366.19C213.019 366.387 212.091 366.57 211.135 366.735C210.888 365.609 210.077 362.024 208.616 356.68C203.256 361.781 199.204 365.687 196.921 367.897C195.572 367.896 194.246 367.864 192.942 367.806C194.106 366.67 199.524 361.397 207.746 353.57C203.909 340.125 196.69 318.391 185.112 296.374C184.172 294.587 183.219 292.828 182.255 291.098C182.013 290.888 181.842 290.596 181.786 290.261C176.697 281.218 171.269 272.962 165.536 265.539L127.881 267.282L127.862 267.283L127.851 267.283L127.83 267.283L127.815 267.283C127.062 267.283 126.435 266.691 126.4 265.931C126.364 265.149 126.968 264.486 127.751 264.45L163.377 262.801C158.31 256.508 153.014 250.851 147.51 245.861C130.089 230.068 110.511 220.937 89.3207 218.723C88.5417 218.642 87.9767 217.945 88.0587 217.167C88.1387 216.387 88.8577 215.817 89.6147 215.905C100.926 217.087 111.784 220.178 122.111 225.142L112.402 196.661C112.15 195.921 112.545 195.115 113.286 194.862C114.025 194.607 114.832 195.005 115.085 195.747L125.641 226.708Z" fill="#2F6858"/></g></g></g><g id="Object/Chair" transform="matrix(-1 0 0 1 1480.94 747) scale(0.9978858350951374 1)"><g id="Object/Chair/Stool"><g id="Chair"><path id="Fill 37" fill-rule="evenodd" clip-rule="evenodd" d="M407.952 624C402.998 624.001 398.718 620.221 398.12 615.081L367.593 352.359C364.139 322.63 339.393 300.212 310.03 300.212H228.582C214 300.212 200.059 305.757 189.328 315.826C178.598 325.894 172.023 339.598 170.815 354.415L149.671 613.748C149.219 619.31 144.439 623.442 138.971 622.981C133.516 622.52 129.46 617.635 129.914 612.072L151.058 352.741C152.679 332.857 161.502 314.465 175.902 300.952C190.302 287.44 209.011 280 228.582 280H310.03C349.436 280 382.647 310.085 387.282 349.982L417.809 612.704C418.453 618.247 414.568 623.273 409.131 623.93C408.734 623.978 408.342 624 407.952 624" fill="#2F6858"/><path id="Fill 36" fill-rule="evenodd" clip-rule="evenodd" d="M327.952 624C322.998 624.001 318.718 620.221 318.12 615.081L287.593 352.359C284.139 322.63 259.393 300.212 230.03 300.212H148.582C134 300.212 120.059 305.757 109.328 315.826C98.5977 325.894 92.0231 339.598 90.8151 354.415L69.6714 613.748C69.2187 619.31 64.4387 623.442 58.9711 622.981C53.5156 622.52 49.4599 617.635 49.9135 612.072L71.0582 352.741C72.6789 332.857 81.5017 314.465 95.9019 300.952C110.302 287.44 129.011 280 148.582 280H230.03C269.436 280 302.647 310.085 307.282 349.982L337.809 612.704C338.453 618.247 334.568 623.273 329.131 623.93C328.734 623.978 328.342 624 327.952 624" fill="#5BA092"/><path id="Fill 38" fill-rule="evenodd" clip-rule="evenodd" d="M382.09 487H79.6675C72.6035 487 66.8789 483.195 66.8789 478.5C66.8789 473.806 72.6035 470 79.6675 470H382.09C389.154 470 394.879 473.806 394.879 478.5C394.879 483.195 389.154 487 382.09 487" fill="#5BA092"/><path id="Fill 38 Copy" fill-rule="evenodd" clip-rule="evenodd" d="M321.783 487C322.081 487 319.91 470 319.879 470H391.739C393.473 470 394.879 473.806 394.879 478.5C394.879 483.195 393.473 487 391.739 487H321.783Z" fill="#2F6858"/><path id="Fill 39" fill-rule="evenodd" clip-rule="evenodd" d="M362.841 300H86.9176C77.507 300 69.8789 290.597 69.8789 279C69.8789 267.403 77.507 258 86.9176 258H362.841C372.251 258 379.879 267.403 379.879 279C379.879 290.597 372.251 300 362.841 300" fill="#78BFB1"/></g></g></g><g id="Master/Character/Sitting" transform="matrix(-1 0 0 1 1722.94 407) scale(0.9989690721649485 1)"><g id="Master/Character/Sitting"><g id="Lower Body/Sitting" transform="translate(15.9395 331) scale(0.9988674971687429 1)"><g id="Lower Body/Sitting/Legs up"><g id="Legs up"><path id="Shoe" fill-rule="evenodd" clip-rule="evenodd" d="M539.528 486.212C539.528 486.212 514.948 557.454 481.631 574.049C481.631 574.049 462.008 582.498 460.014 558.031L466.282 477.303L484.005 460.762L539.528 486.212Z" fill="#F3705A"/><path id="Pants" fill-rule="evenodd" clip-rule="evenodd" d="M565.416 7.77766C538.87 21.7877 395.152 110.242 395.152 110.242L289.008 109.766C289.008 109.766 218.068 270 309.94 270C330.083 270.87 471.17 270.706 473.715 270.345C476.62 269.933 557.027 246.679 557.027 246.679L456.819 427.054C456.819 427.054 486.881 496.429 550.86 489.491L644.902 232.804C644.902 232.804 668.211 167.019 627.783 144.578C630.435 130.572 642.695 63.6024 640.597 32.8377C638.248 -1.62034 593.608 -7.10234 565.416 7.77766Z" fill="#3973B0"/><path id="Pants details" fill-rule="evenodd" clip-rule="evenodd" d="M569.504 114.913L552.33 137.812L441.689 142.375L421.269 128.495C420.813 128.184 420.191 128.303 419.88 128.759C419.57 129.216 419.688 129.838 420.145 130.149L440.838 144.215C441.015 144.335 441.227 144.396 441.441 144.387L590.983 138.22C604.94 137.855 616.293 139.984 625.216 144.365C625.712 144.609 626.311 144.404 626.555 143.908C626.798 143.413 626.594 142.813 626.098 142.57C616.864 138.036 605.193 135.848 590.916 136.221L554.91 137.706L571.104 116.113C571.435 115.671 571.346 115.044 570.904 114.713C570.462 114.382 569.835 114.471 569.504 114.913ZM556.141 247.146C556.4 247.634 557.005 247.821 557.493 247.563L575.95 237.802C576.438 237.543 576.625 236.938 576.366 236.45C576.108 235.962 575.503 235.775 575.015 236.034L556.558 245.795C556.07 246.053 555.883 246.658 556.141 247.146Z" fill="#94C0E9"/></g></g></g><g id="Hairstyle" transform="translate(247.939 64) scale(0.9953051643192489 1)"><g id="Hairstyle/Bun"><g id="Bun"><path id="Skin" fill-rule="evenodd" clip-rule="evenodd" d="M177.264 103.925C176.402 103.979 175.671 103.312 175.688 102.449C175.693 102.205 175.696 101.96 175.696 101.716C175.696 74.0482 148.285 51.6202 114.473 51.6202C80.6604 51.6202 53.2495 74.0482 53.2495 101.716C53.2495 101.976 53.2525 102.236 53.2575 102.496C53.2755 103.368 52.5295 104.044 51.6605 103.963C51.1675 103.917 50.6675 103.893 50.1595 103.893C42.3065 103.893 35.9395 109.241 35.9395 115.837C35.9395 122.434 42.3065 127.781 50.1595 127.781C53.3455 127.781 56.2805 126.895 58.6495 125.407C59.3905 124.941 60.3485 125.134 60.8375 125.859C69.0825 138.097 83.3905 147.207 100.456 150.479C101.929 150.762 102.961 152.097 102.875 153.594L101.253 182H127.692L126.071 153.594C125.985 152.096 127.017 150.762 128.49 150.479C145.458 147.226 159.701 138.201 167.968 126.069C168.443 125.372 169.361 125.161 170.086 125.592C172.4 126.968 175.218 127.781 178.268 127.781C186.121 127.781 192.487 122.434 192.487 115.837C192.487 109.241 186.121 103.893 178.268 103.893C177.93 103.893 177.595 103.904 177.264 103.925Z" fill="#8d574d"/><path id="Hair" fill-rule="evenodd" clip-rule="evenodd" d="M175.696 101.716C175.696 74.049 148.285 51.62 114.473 51.62C113.866 51.62 113.264 51.634 112.662 51.648C129.327 48.386 141.376 38.191 140.736 26.833C140.047 14.612 124.912 5.37398 106.129 5.14398C113.737 2.99698 119.241 -3.20102 119.241 -10.522C119.241 -19.622 110.744 -26.999 100.261 -26.999C89.779 -26.999 81.281 -19.622 81.281 -10.522C81.281 -2.33902 88.161 4.43198 97.168 5.71698C78.955 8.27498 65.385 19.004 66.064 31.039C66.764 43.479 82.434 52.823 101.683 52.728C74.012 57.542 53.25 77.639 53.25 101.716C53.25 101.976 53.253 102.236 53.258 102.496C53.27 103.105 53.322 103.023 53.322 103.023C58.993 101.976 91.116 100.349 105.027 63.347C105.07 63.344 104.984 63.349 105.027 63.347C115.836 100.946 175.688 102.449 175.688 102.449" fill="#E58857"/></g></g></g><g id="Expression" transform="translate(321.939 155) scale(0.989010989010989 1)"><g id="Expression/Smily"><g id="Smily"><path id="Stroke 1" fill-rule="evenodd" clip-rule="evenodd" d="M14.9952 21.9372C14.7209 21.1555 15.1322 20.2995 15.9139 20.0252C16.6957 19.7509 17.5517 20.1623 17.826 20.944C17.8931 21.1353 18.05 21.5123 18.3009 22.0113C18.7252 22.855 19.2526 23.6994 19.8838 24.4815C21.6304 26.6457 23.7985 27.9066 26.4736 27.9066C29.1864 27.9066 31.4258 26.7198 33.2588 24.6961C33.9166 23.9698 34.4721 23.187 34.9242 22.4056C35.1908 21.9451 35.359 21.5983 35.4312 21.4245C35.7488 20.6594 36.6266 20.2966 37.3917 20.6142C38.1568 20.9319 38.5196 21.8096 38.2019 22.5747C37.7572 23.646 36.8718 25.1761 35.4823 26.7101C33.1222 29.3158 30.1203 30.9066 26.4736 30.9066C22.7892 30.9066 19.8208 29.1802 17.5493 26.3656C16.2202 24.7188 15.3964 23.0808 14.9952 21.9372Z" fill="#010101"/><path id="Stroke 3" fill-rule="evenodd" clip-rule="evenodd" d="M55.6071 21.8417C55.2311 21.1035 55.5246 20.2003 56.2628 19.8242C57.0009 19.4482 57.9042 19.7417 58.2802 20.4799C58.3739 20.6637 58.5788 21.0206 58.8899 21.4917C59.4156 22.2878 60.0383 23.0851 60.7501 23.8248C62.7194 25.8715 64.9557 27.0688 67.4257 27.0688C69.8128 27.0688 71.7905 25.7867 73.4119 23.5622C74.0054 22.748 74.5039 21.8675 74.9069 20.987C75.1462 20.4642 75.297 20.0675 75.3629 19.8629C75.6169 19.0744 76.462 18.641 77.2506 18.895C78.0391 19.149 78.4724 19.9941 78.2184 20.7827C78.1183 21.0934 77.9263 21.5986 77.6348 22.2355C77.1532 23.2876 76.5575 24.3397 75.8362 25.3293C73.701 28.2587 70.9089 30.0688 67.4257 30.0688C64.0262 30.0688 61.0739 28.4881 58.5883 25.9048C57.1347 24.3942 56.1404 22.8884 55.6071 21.8417Z" fill="#010101"/><path id="Stroke 5" fill-rule="evenodd" clip-rule="evenodd" d="M33.9154 39.5937C33.4598 38.9019 33.6512 37.9716 34.3431 37.516C35.035 37.0603 35.9652 37.2518 36.4209 37.9436C36.5179 38.091 36.7492 38.3948 37.116 38.8031C37.7467 39.5052 38.5169 40.2117 39.4274 40.8726C43.4434 43.7875 48.6633 44.863 55.2833 42.9875C56.0803 42.7617 56.9095 43.2248 57.1353 44.0218C57.3611 44.8189 56.8981 45.6481 56.101 45.8739C48.5656 48.0088 42.4024 46.7389 37.6652 43.3005C35.7902 41.9396 34.5543 40.5637 33.9154 39.5937Z" fill="#010101"/></g></g></g><g id="Upper Body" transform="translate(64.9395 26) scale(0.9988674971687429 1)"><g id="Upper Body/Reading"><g id="Body"><path id="Skin" fill-rule="evenodd" clip-rule="evenodd" d="M246.656 437.57C243.002 438.899 244.925 422.796 245.611 410.283C245.722 408.265 247.471 406.735 249.486 406.891L326.337 412.837M483.999 450.176C468.702 389.313 448.913 329.83 421.561 272.956C389.439 206.162 287.155 217.581 283.78 217.977C283.717 217.984 283.672 217.988 283.61 217.992C280.69 218.181 202.577 223.688 177.238 273.85C151.414 324.97 169.86 445.369 177.238 471.193C183.004 491.373 207.64 529.543 269.991 503.867C308.269 488.105 375.228 444.926 399.639 418.676L403.229 418.848C415.729 445.463 419.929 469.203 438.858 538.609L453.129 588.775C453.129 588.775 453.864 589.414 450.193 596.277C448.69 599.088 443.25 606.012 440.697 615.349C439.568 619.477 444.703 622.773 448.589 619.501C455.699 613.513 458.664 605.721 458.664 605.721C461.739 618.021 463.18 634.568 469.837 648.509C473.363 655.893 480.277 658.137 482.971 656.505C484.551 655.547 483.783 653.603 483.544 651.444C483.305 649.283 482.596 646.907 482.299 645.084C481.689 641.354 482.931 647.36 482.237 644.645C482.281 644.959 482.367 645.262 482.491 645.554C483.314 647.492 489.136 654.838 493.346 652.074C493.536 651.949 493.9 651.607 494.049 651.331C494.746 650.034 493.695 643.618 494.13 645.024C495.504 649.464 500.887 649.207 502.04 647.965C502.154 647.841 503.077 647.469 503.185 647.201C503.736 645.827 504.228 645.291 505.681 645.012C510.025 644.178 514.94 644.901 515.122 628.988C515.868 563.642 499.928 513.556 483.999 450.176" fill="#8d574d"/><g id="Tshirt"><path id="Tshirt_2" fill-rule="evenodd" clip-rule="evenodd" d="M355.928 234.329C341.634 229.802 353.502 222.758 353.502 222.758L363.644 225.604L373.08 229.088C377.606 230.755 373.556 235.043 373.556 235.043C385.979 239.735 375.7 246.002 375.7 246.002C388.326 252.434 374.033 259.819 374.033 259.819C388.565 270.063 371.782 270.431 371.782 270.431C371.782 270.431 380.627 274.575 377.781 276.92C372.111 281.592 352.405 285.967 350.491 284.105C343.224 277.037 354.022 273.159 354.022 273.159C337.346 263.631 354.26 259.342 354.26 259.342C337.584 250.29 354.975 247.431 354.975 247.431C339.966 238.855 355.928 234.329 355.928 234.329ZM255.798 288.812C255.798 288.812 270.196 291.692 263.55 299.667L347.376 296.542V365.359L351.518 378.776L357.691 396.811C357.691 396.811 340.985 406.937 331.976 410.817C322.337 414.969 301.747 420.906 301.747 420.906C273.672 424.941 244.237 424.941 244.237 424.941C244.237 424.941 246.28 380.844 245.823 359.826C245.441 342.244 244.237 312.477 244.237 312.477C231.741 310.096 238.52 297.451 238.52 297.451C225.672 297.673 234.976 285.933 234.976 285.933C219.248 287.484 228.995 275.301 228.995 275.301C213.268 275.301 222.793 264.667 222.793 264.667C205.294 262.896 219.692 251.378 219.692 251.378C202.414 251.156 213.069 238.405 213.069 238.405L219.674 234.978L227.024 231.7C227.024 231.7 241.842 233.214 234.311 243.625C234.311 243.625 250.259 243.182 238.963 255.365C238.963 255.365 252.475 257.58 244.5 267.991C244.5 267.991 259.12 269.542 248.93 279.288C248.93 279.288 262.885 278.402 255.798 288.812Z" fill="#F2B08F"/><mask id="mask0_413_829053d938733-1e49-40fc-8e0f-5e332e2e0be9" style="mask-type:alpha" maskUnits="userSpaceOnUse" x="209" y="222" width="172" height="203" fill="#ffffff"><path id="Tshirt_3" fill-rule="evenodd" clip-rule="evenodd" d="M355.928 234.329C341.634 229.802 353.502 222.758 353.502 222.758L363.644 225.604L373.08 229.088C377.606 230.755 373.556 235.043 373.556 235.043C385.979 239.735 375.7 246.002 375.7 246.002C388.326 252.434 374.033 259.819 374.033 259.819C388.565 270.063 371.782 270.431 371.782 270.431C371.782 270.431 380.627 274.575 377.781 276.92C372.111 281.592 352.405 285.967 350.491 284.105C343.224 277.037 354.022 273.159 354.022 273.159C337.346 263.631 354.26 259.342 354.26 259.342C337.584 250.29 354.975 247.431 354.975 247.431C339.966 238.855 355.928 234.329 355.928 234.329ZM255.798 288.812C255.798 288.812 270.196 291.692 263.55 299.667L347.376 296.542V365.359L351.518 378.776L357.691 396.811C357.691 396.811 340.985 406.937 331.976 410.817C322.337 414.969 301.747 420.906 301.747 420.906C273.672 424.941 244.237 424.941 244.237 424.941C244.237 424.941 246.28 380.844 245.823 359.826C245.441 342.244 244.237 312.477 244.237 312.477C231.741 310.096 238.52 297.451 238.52 297.451C225.672 297.673 234.976 285.933 234.976 285.933C219.248 287.484 228.995 275.301 228.995 275.301C213.268 275.301 222.793 264.667 222.793 264.667C205.294 262.896 219.692 251.378 219.692 251.378C202.414 251.156 213.069 238.405 213.069 238.405L219.674 234.978L227.024 231.7C227.024 231.7 241.842 233.214 234.311 243.625C234.311 243.625 250.259 243.182 238.963 255.365C238.963 255.365 252.475 257.58 244.5 267.991C244.5 267.991 259.12 269.542 248.93 279.288C248.93 279.288 262.885 278.402 255.798 288.812Z" fill="#ffffff"/></mask><g mask="url(#mask0_413_829053d938733-1e49-40fc-8e0f-5e332e2e0be9)"><g id="Patterns"><path id="Pattern" fill-rule="evenodd" clip-rule="evenodd" d="M336.189 366.208C336.607 366.932 336.53 367.84 335.997 368.484L320.744 386.902L349.18 383.064C350.267 382.917 351.27 383.673 351.427 384.759L354.896 408.647L367.261 379.567C367.84 378.205 369.646 377.922 370.614 379.041L389.103 400.414L391.58 372.19C391.676 371.09 392.646 370.277 393.746 370.373L416.664 372.372L399.28 354.889C398.864 354.471 398.654 353.891 398.706 353.304L401.454 321.988L376.354 336.101C375.614 336.517 374.693 336.42 374.055 335.86L350.419 315.116L354.923 344.891C355.116 346.171 354.061 347.295 352.771 347.182L323.737 344.65L336.189 366.208ZM419.753 372.641L421.423 374.321L421.21 374.776L418.85 374.57L416.664 372.372L419.753 372.641ZM370.942 381.132L369.917 381.293L369.101 380.349L368.613 381.497L367.589 381.658L368.23 382.399L353.943 416L349.448 385.046L315.938 389.569L334.457 367.208L320.084 342.323L350.895 345.011L350.968 345.489L351.377 345.053L352.945 345.19L352.71 343.633L353.119 343.198L352.637 343.156L347.622 310L375.374 334.357L403.777 318.387L400.698 353.478L421.938 374.84L393.572 372.365L390.683 405.297L370.558 382.034L370.942 381.132ZM394.475 289.748C394.742 290.228 394.799 290.796 394.634 291.32L387.971 312.434L414.936 307.414C416.043 307.208 417.102 307.956 417.277 309.068L420.986 332.557L438.079 313.668C438.585 313.108 439.364 312.881 440.092 313.082L466.034 320.222L458.533 300.207C458.228 299.395 458.482 298.479 459.162 297.939L475.946 284.615L454.16 276.289C453.156 275.905 452.635 274.796 452.98 273.778L461.915 247.438L432.581 253.202C432.01 253.314 431.417 253.172 430.959 252.811L408.47 235.118V262.847C408.47 263.867 407.703 264.724 406.689 264.835L382.147 267.538L394.475 289.748ZM415.668 311.347L415.605 311.302L415.302 309.38L413.389 309.736L413.326 309.692L413.335 309.746L385.061 315.01L392.727 290.718L378.938 265.879L406.47 262.847V231L432.196 251.24L464.919 244.81L454.874 274.421L479.938 284L460.406 299.506L469.282 323.19L439.561 315.01L419.662 337L415.614 311.357L415.668 311.347ZM449.778 416.909C450.071 416.505 450.505 416.226 450.994 416.125L468.431 412.542L455.96 401.442C455.221 400.784 455.073 399.685 455.614 398.856L464.303 385.525L443.59 383.835C442.923 383.781 442.327 383.396 442.003 382.811L432.891 366.36L423.213 386.013C422.951 386.545 422.467 386.933 421.89 387.073L404.764 391.227L416.904 401.464C417.371 401.857 417.633 402.443 417.614 403.053L416.999 423.234L431.336 415.332C432.387 414.753 433.707 415.223 434.156 416.336L439.887 430.538L449.778 416.909ZM433.267 418.836L432.965 418.728L432.302 417.084L430.749 417.94L430.447 417.832L430.537 418.056L414.893 426.678L415.615 402.993L400.459 390.213L421.419 385.13L432.787 362.044L443.753 381.842L467.811 383.804L457.289 399.948L472.739 413.698L451.396 418.084L439.384 434.636L433.056 418.952L433.267 418.836ZM313.813 220.722L309.923 250.01C309.843 250.614 309.491 251.149 308.968 251.463L285.117 265.741L321.389 274.795C322.279 275.017 322.904 275.817 322.904 276.735V302.034L339.344 280.27C339.925 279.501 340.972 279.255 341.834 279.687L369.462 293.503L353.175 260.962C352.946 260.505 352.901 259.978 353.048 259.49L363.138 225.98L337.05 245.175C336.204 245.797 335.021 245.659 334.341 244.859L313.813 220.722ZM307.94 249.747L312.423 216L335.865 243.564L366.781 220.817L354.963 260.066L373.938 297.978L340.939 281.475L320.904 308V276.735L279.938 266.51L307.94 249.747ZM268.327 413.332C268.789 413.727 269.046 414.31 269.027 414.917L268.463 432.755L286.377 416.146C287.049 415.524 288.058 415.437 288.826 415.936L302.112 424.563L296.186 408.491C295.849 407.58 296.217 406.558 297.057 406.07L313.97 396.236L290.557 393.5C290.055 393.441 289.594 393.195 289.266 392.81L274.603 375.591L275.915 396.178C275.982 397.234 275.215 398.159 274.165 398.29L253.679 400.829L268.327 413.332ZM316.854 394.559L319.506 394.869L319.591 395.281L317.284 396.623L313.97 396.236L316.854 394.559ZM267.028 414.853L248.927 399.403L273.919 396.305L272.224 369.713L290.789 391.513L320.167 394.946L298.062 407.799L306.071 429.519L287.737 417.613L266.313 437.477L267.028 414.853ZM205.146 305.119L220.069 332.016C220.336 332.496 220.393 333.064 220.228 333.588L212.122 359.285L244.776 353.203C245.884 352.997 246.943 353.745 247.118 354.857L251.647 383.555L272.483 360.519C272.989 359.959 273.768 359.732 274.497 359.933L306.029 368.616L296.858 344.133C296.554 343.32 296.808 342.405 297.487 341.865L317.948 325.615L291.445 315.482C290.441 315.098 289.92 313.989 290.265 312.971L301.09 281.044L265.6 288.021C265.028 288.133 264.436 287.99 263.978 287.63L236.65 266.119V299.856C236.65 300.876 235.882 301.733 234.869 301.844L205.146 305.119ZM245.509 357.135L245.446 357.091L245.143 355.169L243.23 355.525L243.167 355.481L243.176 355.535L209.213 361.861L218.32 332.986L201.938 303.46L234.65 299.856V262L265.215 286.058L304.093 278.415L292.159 313.614L321.938 325L298.731 343.431L309.277 371.585L273.966 361.861L250.323 388L245.454 357.145L245.509 357.135Z" fill="#E74B33"/></g></g></g><g id="Book"><path id="Combined Shape" fill-rule="evenodd" clip-rule="evenodd" d="M315.613 288.625L257.039 270.146V368.466L315.613 386.944V288.625ZM359.02 313.581C341.373 308.984 357.707 351.253 363.824 365.228L366.757 372.913L352.017 378.759L326.072 386.944V288.624L384.646 270.146L384.509 294.015C382.103 294.906 380.797 295.756 380.797 295.756C371.579 308.073 376.72 346.82 376.72 346.82C376.72 346.82 363.634 314.782 359.02 313.581Z" fill="#94C0E9"/><path id="Fill 10" fill-rule="evenodd" clip-rule="evenodd" d="M326.072 386.943C326.072 386.943 324.061 388.371 320.553 388.371C317.533 388.371 315.613 386.943 315.613 386.943V288.624C315.613 288.624 319.591 289.682 320.753 289.682C322.206 289.682 326.072 288.624 326.072 288.624V386.943Z" fill="#3973B0"/><path id="Stroke 14 (Stroke)" fill-rule="evenodd" clip-rule="evenodd" d="M277.422 262.569C277.718 262.102 278.335 261.964 278.802 262.26L322.288 289.838C322.729 290.117 322.88 290.689 322.636 291.15C322.392 291.612 321.833 291.807 321.354 291.6L266.182 267.674C265.676 267.454 265.443 266.865 265.663 266.358C265.883 265.852 266.472 265.619 266.978 265.839L310.411 284.674L277.731 263.949C277.264 263.653 277.126 263.035 277.422 262.569Z" fill="white"/><path id="Stroke 16 (Stroke)" fill-rule="evenodd" clip-rule="evenodd" d="M365.446 262.569C365.742 263.035 365.603 263.653 365.137 263.949L332.456 284.674L375.89 265.839C376.396 265.619 376.985 265.852 377.205 266.358C377.425 266.865 377.192 267.454 376.685 267.674L321.512 291.6C321.033 291.807 320.475 291.612 320.231 291.15C319.986 290.689 320.138 290.117 320.579 289.838L364.066 262.26C364.532 261.964 365.15 262.102 365.446 262.569Z" fill="white"/></g><path id="Skin Shadows" fill-rule="evenodd" clip-rule="evenodd" d="M400.187 291.251C397.505 290.828 395.277 291.859 393.541 293.788C392.713 294.709 392.163 295.626 391.867 296.287C391.591 296.74 391.224 297.539 390.866 298.693C390.845 298.76 390.825 298.827 390.805 298.895L390.763 298.568C390.473 294.442 387.409 292.548 383.583 293.346C383.095 293.446 382.581 293.717 381.956 294.154C379.277 296.032 377.336 298.846 376.434 302.085C373.631 312.137 372.565 325.398 374.582 338.574L366.758 322.924C366.76 322.917 366.695 322.76 366.602 322.544C366.448 322.189 366.267 321.795 366.06 321.372C365.468 320.161 364.782 318.95 364.007 317.815C361.038 313.465 357.572 311.305 353.724 312.879C350.51 314.194 349.674 318.631 350.358 325.267C350.788 329.434 351.728 333.76 352.825 337.749C353.694 340.911 355.695 346.648 358.523 354.244C358.714 354.757 358.908 355.277 359.105 355.804C360.576 359.729 362.151 363.846 363.726 367.905C364.278 369.326 364.789 370.637 365.249 371.809L365.468 372.367L365.676 372.896L365.827 373.279C366.03 373.793 366.611 374.045 367.124 373.842C367.638 373.639 367.89 373.058 367.687 372.544L367.537 372.163C367.414 371.851 367.271 371.489 367.111 371.079C366.652 369.909 366.141 368.6 365.591 367.181C364.018 363.129 362.446 359.019 360.978 355.102C360.782 354.577 360.588 354.058 360.397 353.546C357.59 346.006 355.602 340.304 354.753 337.219C353.684 333.327 352.764 329.095 352.348 325.062C351.753 319.295 352.457 315.559 354.482 314.73C357.192 313.622 359.856 315.281 362.355 318.942C363.071 319.991 363.71 321.121 364.263 322.25C364.456 322.646 364.625 323.012 364.767 323.34C364.851 323.533 364.907 323.669 364.933 323.736L376.114 346.113C376.648 347.18 378.265 346.585 377.98 345.427C374.259 330.334 375.123 314.235 378.36 302.621C379.14 299.821 380.811 297.399 383.103 295.793C383.52 295.501 383.832 295.337 383.988 295.305C386.709 294.737 388.57 295.888 388.773 298.764L389.964 308.129C390.02 308.946 390.105 309.792 390.221 310.667C390.238 310.789 390.275 310.903 390.33 311.005L394.456 343.455C394.526 344.003 395.026 344.391 395.574 344.321C396.122 344.251 396.51 343.751 396.44 343.203L391.957 307.953C391.724 304.474 392.061 301.593 392.777 299.285C392.966 298.672 393.168 298.156 393.367 297.734C393.479 297.496 393.561 297.349 393.596 297.293L393.671 297.152C393.718 297.044 393.825 296.829 393.993 296.544C394.278 296.06 394.623 295.575 395.028 295.126C396.348 293.659 397.941 292.922 399.876 293.227C400.596 293.34 401.662 295.06 402.616 297.756C403.008 298.862 403.36 300.053 403.666 301.246C403.773 301.663 403.867 302.051 403.946 302.398C403.991 302.597 404.023 302.74 404.039 302.817L404.044 302.839L404.047 302.854L404.053 302.877L404.056 302.89C404.067 302.931 404.081 302.97 404.097 303.008C404.168 303.189 404.305 303.571 404.499 304.17C404.835 305.211 405.211 306.513 405.618 308.092C406.784 312.625 407.952 318.462 409.044 325.732C409.818 330.893 410.526 336.603 411.152 342.886C411.206 343.436 411.696 343.837 412.246 343.782C412.795 343.727 413.196 343.237 413.142 342.688C412.513 336.372 411.801 330.63 411.021 325.435C409.92 318.099 408.738 312.195 407.555 307.594C407.138 305.976 406.751 304.635 406.402 303.555C406.314 303.284 406.237 303.052 406.17 302.857C408.462 300.503 410.31 300.164 411.918 301.549C412.483 302.035 413.094 302.815 413.709 303.8C414.13 304.474 414.526 305.201 414.884 305.929C415.099 306.365 415.252 306.701 415.331 306.887L415.377 306.981C415.454 307.12 415.604 307.401 415.816 307.821C416.174 308.527 416.573 309.358 417.004 310.31C418.238 313.036 419.473 316.171 420.627 319.668C424.302 330.809 426.324 342.965 425.83 355.642C425.189 372.119 420.311 388.147 410.327 403.254C407.554 407.45 404.398 411.553 400.846 415.554C400.761 415.642 400.545 415.866 400.225 416.192C399.69 416.738 399.059 417.371 398.336 418.085C396.267 420.128 393.875 422.405 391.192 424.858C383.524 431.868 375.062 438.878 366.053 445.419C362.205 448.214 358.329 450.867 354.439 453.357C353.973 453.654 353.838 454.273 354.135 454.738C354.433 455.203 355.052 455.339 355.517 455.041C359.441 452.529 363.349 449.854 367.229 447.037C376.302 440.449 384.821 433.392 392.541 426.334C395.244 423.864 397.654 421.569 399.741 419.509C400.472 418.787 401.111 418.145 401.653 417.592C401.98 417.259 402.203 417.028 402.318 416.908C405.956 412.81 409.17 408.632 411.996 404.356C422.187 388.935 427.173 372.552 427.829 355.72C428.332 342.785 426.271 330.396 422.526 319.042C421.35 315.475 420.088 312.274 418.826 309.485C418.383 308.507 417.971 307.649 417.6 306.917C417.47 306.66 417.354 306.436 417.253 306.247C417.209 306.164 417.175 306.1 417.15 306.055C417.124 305.995 417.086 305.911 417.038 305.804C416.934 305.575 416.813 305.32 416.679 305.046C416.293 304.262 415.865 303.478 415.406 302.741C414.694 301.599 413.968 300.675 413.223 300.033C410.932 298.061 408.276 298.341 405.582 300.668C405.267 299.449 404.906 298.232 404.501 297.088C403.282 293.644 401.974 291.533 400.187 291.251ZM475.289 604.732C474.739 604.787 474.339 605.278 474.394 605.827L474.409 605.967L474.422 606.09L474.447 606.331C474.49 606.739 474.541 607.213 474.6 607.746C474.769 609.268 474.967 610.964 475.192 612.791C475.837 618.01 476.576 623.23 477.398 628.105C478.393 634.012 479.437 638.978 480.527 642.749L482.576 652.846C482.644 653.163 482.649 653.186 482.675 653.313C482.749 653.678 482.801 653.982 482.832 654.264C482.909 654.958 482.836 655.348 482.783 655.383C480.425 656.91 477.136 656.168 473.132 651.446C470.299 648.104 467.415 640.363 464.671 629.656C463.321 624.388 462.09 618.739 461.003 613.089C460.622 611.112 460.287 609.275 460 607.628C459.9 607.051 459.813 606.54 459.739 606.1C459.695 605.836 459.666 605.655 459.651 605.563C459.499 604.616 458.231 604.405 457.781 605.251C453.473 613.345 449.566 617.855 446.336 619.774C445.224 620.434 443.87 620.414 442.933 619.713C440.734 618.066 441.367 613.307 447.043 603.267C453.158 592.449 454.918 588.343 454.342 587.225C454.211 586.969 453.987 586.78 453.718 586.699C453.189 586.539 452.631 586.839 452.472 587.367C452.416 587.553 452.417 587.742 452.464 587.917C452.46 587.935 452.456 587.957 452.451 587.98C452.447 587.996 452.443 588.013 452.439 588.031C452.346 588.422 452.122 589.051 451.74 589.943C450.678 592.42 448.61 596.431 445.302 602.283C439.179 613.114 438.418 618.83 441.735 621.314C443.346 622.519 445.574 622.553 447.357 621.494C450.561 619.589 454.22 615.554 458.158 608.702C458.417 610.167 458.712 611.765 459.039 613.467C460.133 619.154 461.373 624.84 462.734 630.152C465.555 641.161 468.505 649.081 471.607 652.74C476.223 658.184 480.609 659.173 483.87 657.061C484.78 656.472 484.975 655.436 484.82 654.043C484.781 653.692 484.72 653.334 484.635 652.915C484.619 652.836 484.611 652.795 484.594 652.716C484.581 652.655 484.563 652.574 484.534 652.438L484.005 649.832C486.315 652.576 489.184 654.068 492.583 653.548C494.584 653.244 495.537 651.769 495.454 648.492C495.451 648.376 495.443 648.243 495.429 648.092C497.652 650.135 500.34 650.615 503.254 648.634L503.398 648.514C503.596 648.317 503.863 647.992 504.127 647.559C504.445 647.036 504.679 646.473 504.788 645.873C504.877 645.385 504.708 643.91 504.228 640.453C504.047 639.148 503.403 634.673 503.026 632.05C502.888 631.093 502.786 630.382 502.754 630.163C502.657 629.476 502.564 628.824 502.476 628.194C501.585 621.847 501.034 617.398 500.813 614.473C500.772 613.922 500.292 613.509 499.741 613.551C499.19 613.592 498.778 614.072 498.819 614.623C499.043 617.605 499.598 622.083 500.495 628.472C500.584 629.103 500.676 629.757 500.774 630.445C500.805 630.662 500.905 631.357 501.04 632.294L501.046 632.334C501.423 634.957 502.066 639.427 502.247 640.728C502.642 643.573 502.847 645.367 502.82 645.516C502.759 645.851 502.618 646.191 502.419 646.519C502.278 646.75 502.139 646.93 502.042 647.038C499.737 648.558 497.802 647.932 496.028 645.827C495.626 645.35 495.271 644.834 494.969 644.318C494.842 644.1 494.745 643.919 494.68 643.79C494.612 643.456 494.539 643.104 494.462 642.732C494.357 642.226 494.032 640.695 493.664 638.962L493.658 638.934C493.181 636.691 492.635 634.118 492.401 632.991C492.119 631.637 491.864 630.381 491.626 629.179C490.171 621.838 489.388 616.577 489.388 613.367C489.388 612.815 488.941 612.367 488.388 612.367C487.836 612.367 487.388 612.815 487.388 613.367C487.388 616.752 488.184 622.098 489.664 629.568C489.903 630.776 490.16 632.038 490.443 633.398C490.679 634.537 491.232 637.141 491.711 639.395C492.077 641.119 492.4 642.638 492.504 643.139L492.571 643.461L492.628 643.742C492.655 643.874 492.682 644.003 492.708 644.129C492.713 644.223 492.731 644.317 492.764 644.408C493.217 646.653 493.44 647.979 493.455 648.542C493.514 650.9 493.168 651.436 492.282 651.571C489.648 651.974 487.385 650.777 485.468 648.463C484.868 647.738 484.35 646.958 483.918 646.178C483.661 645.714 483.492 645.359 483.414 645.17C483.099 644.323 482.786 643.36 482.475 642.29L482.322 641.54C482.294 641.398 482.236 641.27 482.158 641.159C481.201 637.627 480.266 633.088 479.37 627.773C478.554 622.93 477.819 617.738 477.177 612.545C476.952 610.728 476.756 609.04 476.588 607.526C476.529 606.996 476.478 606.526 476.436 606.121C476.41 605.878 476.393 605.712 476.384 605.626C476.329 605.077 475.838 604.676 475.289 604.732ZM452.464 587.917C452.47 587.887 452.473 587.863 452.475 587.846C452.477 587.904 452.496 588.009 452.564 588.141C452.65 588.307 452.788 588.447 452.961 588.539C452.712 588.408 452.535 588.179 452.464 587.917ZM247.942 438.972C248.494 438.972 248.942 439.419 248.942 439.972C248.942 440.524 248.494 440.972 247.942 440.972C247.891 440.972 247.767 440.976 247.57 440.991C247.226 441.017 246.812 441.065 246.331 441.139C244.933 441.355 243.281 441.746 241.386 442.358C235.924 444.12 229.631 447.302 222.599 452.265C222.148 452.584 221.524 452.476 221.206 452.025C220.887 451.574 220.995 450.95 221.446 450.632C228.64 445.553 235.115 442.279 240.772 440.454C242.768 439.811 244.523 439.395 246.025 439.163C246.946 439.02 247.589 438.972 247.942 438.972ZM356.694 396.718C356.643 397.268 357.047 397.755 357.597 397.806L364.317 398.435C364.867 398.487 365.354 398.083 365.406 397.533C365.457 396.983 365.053 396.496 364.503 396.444L357.783 395.815C357.233 395.764 356.746 396.168 356.694 396.718Z" fill="#371D0A"/></g></g></g></g></g></g></svg>