<svg viewBox="55.96153846153845 49.80000000000007 795.8974358974358 946.1999999999997" fill="none" xmlns="http://www.w3.org/2000/svg" xmlns:xlink="http://www.w3.org/1999/xlink" overflow="visible" width="795.8974358974358px" height="946.1999999999997px"><g id="Master/Character/On Wheels"><g id="Lower Body/On Wheels" transform="translate(15.9395 360) scale(0.9988674971687429 1)"><g id="Lower Body/On Wheels/Wheelchair"><g id="Wheelchair Copy"><g id="WheelChair"><path id="Combined Shape" fill-rule="evenodd" clip-rule="evenodd" d="M239.805 400.841L233.717 345.195L249.372 357.369L251.471 394.292L486.754 433.92L468.709 385.466L510.528 382.615L568.676 581.26L708.865 475.79L822.879 513.499C830.058 515.873 832.064 525.074 826.526 530.221L725.101 624.501C714.63 634.234 699.889 637.902 686.078 634.206L547.548 597.156L498.323 464.983L467.21 457.264L481.346 522.638L463.22 526.666L433.338 448.861L239.804 400.848L239.805 400.841Z" fill="#B9B3B8"/><path id="Combined Shape_2" fill-rule="evenodd" clip-rule="evenodd" d="M226.009 321.196L220.425 168.056C219.878 154.685 228.462 142.642 241.283 138.797C241.283 138.797 375.593 117.503 337.334 112.835L369.059 114.106L447.691 117.255L448.448 171.526L308.342 266.876L493.136 323.068C493.275 323.1 493.415 323.132 493.554 323.165L563.134 300.435V355.975L515.359 386.202C509.3 393.74 499.523 397.866 489.392 396.338L262.758 362.168C242.271 359.08 226.857 341.893 226.009 321.196Z" fill="#2F6858"/><path id="Combined Shape_3" fill-rule="evenodd" clip-rule="evenodd" d="M152.9 390.659C153.955 390.83 154.948 390.114 155.12 389.06C157.549 374.096 162.757 360.079 170.304 347.927C170.867 347.02 170.588 345.827 169.681 345.264C168.773 344.7 167.58 344.979 167.017 345.886C159.198 358.475 153.811 372.975 151.301 388.44C151.129 389.495 151.846 390.488 152.9 390.659ZM240.501 512.268C240.501 511.2 239.635 510.334 238.567 510.334C232.493 510.334 226.506 509.572 220.671 508.075C187.312 499.513 161.221 467.513 154.983 427.225C154.82 426.169 153.831 425.446 152.776 425.609C151.72 425.772 150.996 426.761 151.16 427.816C157.623 469.562 184.767 502.854 219.709 511.822C225.857 513.399 232.168 514.202 238.567 514.202C239.635 514.202 240.501 513.336 240.501 512.268Z" fill="#B9B3B8"/><path id="Combined Shape_4" fill-rule="evenodd" clip-rule="evenodd" d="M220.48 399.55L243.48 398.312L225.048 424.529C223.87 427.102 222.257 428.688 220.478 428.688C216.871 428.688 213.947 422.165 213.947 414.119C213.947 406.074 216.871 399.55 220.478 399.55C220.479 399.55 220.48 399.55 220.48 399.55Z" fill="#010101"/><path id="Fill 21" fill-rule="evenodd" clip-rule="evenodd" d="M475.217 523.127C451.626 523.127 432.502 545.819 432.502 573.81C432.502 601.8 451.626 624.49 475.217 624.49C498.808 624.49 517.933 601.8 517.933 573.81C517.933 545.819 498.808 523.127 475.217 523.127M475.217 541.404C488.463 541.404 499.653 556.243 499.653 573.81C499.653 591.375 488.463 606.214 475.217 606.214C461.971 606.214 450.78 591.375 450.78 573.81C450.78 556.243 461.971 541.404 475.217 541.404" fill="#010101"/><path id="Fill 25" fill-rule="evenodd" clip-rule="evenodd" d="M232.98 266.608C171.085 266.608 120.91 330.169 120.91 408.573C120.91 486.977 171.085 550.535 232.98 550.535C294.876 550.535 345.051 486.977 345.051 408.573C345.051 330.169 294.876 266.608 232.98 266.608M232.98 281.23C286.713 281.23 330.428 338.355 330.428 408.573C330.428 478.79 286.713 535.916 232.98 535.916C179.246 535.916 135.532 478.79 135.532 408.573C135.532 338.355 179.246 281.23 232.98 281.23" fill="#B9B3B8"/><path id="Fill 31" fill-rule="evenodd" clip-rule="evenodd" d="M238.567 221.766C152.064 221.766 81.9395 305.402 81.9395 408.573C81.9395 511.743 152.064 595.379 238.567 595.379C325.069 595.379 395.193 511.743 395.193 408.573C395.193 305.402 325.069 221.766 238.567 221.766M238.567 254.662C270.504 254.662 300.882 269.917 324.104 297.613C348.73 326.985 362.292 366.391 362.292 408.573C362.292 450.755 348.73 490.161 324.104 519.531C300.882 547.229 270.504 562.482 238.567 562.482C206.63 562.482 176.252 547.229 153.028 519.531C128.403 490.161 114.841 450.755 114.841 408.573C114.841 366.391 128.403 326.985 153.028 297.613C176.252 269.917 206.63 254.662 238.567 254.662" fill="#010101"/></g><path id="Pants" fill-rule="evenodd" clip-rule="evenodd" d="M275.739 226.865C309.524 236.476 339.06 259.159 360.384 290.186C444.73 314.591 550.207 335.518 550.207 335.518C550.207 335.518 570.87 546.269 594.712 566.144C610.761 579.522 642.893 589.77 662.182 595.042C676.369 598.918 691.207 600.06 705.767 597.966C714.157 596.76 722.788 594.487 729.043 590.314C738.608 583.937 738.742 569.859 729.654 562.817L711.163 548.49C699.131 539.166 690.199 526.588 685.32 512.402C705.371 515.738 780.846 527.654 784.962 518.658C789.003 509.825 780.123 496.069 765.607 484.774C765.088 484.37 764.583 483.965 764.09 483.558C753.462 474.764 748.104 461.747 745.956 448.117C738.529 400.979 732.903 323.527 730.773 294.194L730.645 292.43C730.421 289.35 730.226 286.363 730.037 283.464L730.036 283.463C727.759 248.572 726.307 226.339 685.217 207.472C640.711 187.036 506.115 142.036 463.904 134.019L445.94 110H410.852H280.449C280.449 110 260.349 176.108 275.739 226.865Z" fill="#94C0E9"/><path id="Shoes" fill-rule="evenodd" clip-rule="evenodd" d="M756.915 476.371C758.965 479.064 761.318 481.547 764.009 483.762C764.503 484.169 765.011 484.574 765.531 484.976C780.102 496.251 789.013 509.982 784.958 518.799C780.191 529.161 685.697 513.382 685.697 513.382L680.074 497.044L677.284 472C703.96 484.145 737.951 486.005 756.915 476.371ZM710.886 548.579L729.446 562.881C738.567 569.911 738.433 583.964 728.833 590.33C722.554 594.495 713.892 596.764 705.47 597.968C690.857 600.058 675.964 598.918 661.725 595.049C642.363 589.787 610.115 579.557 594.006 566.202C588.027 561.245 582.246 544.39 576.939 521.894C647.872 543.477 669.655 542.325 682.228 533.418C686.934 530.083 688.382 522.474 687.797 520.391C692.979 531.821 700.721 540.743 710.886 548.579ZM687.627 520.013C687.696 520.103 687.752 520.231 687.797 520.391C687.74 520.265 687.684 520.139 687.627 520.013Z" fill="#010101"/><path id="Pants details" fill-rule="evenodd" clip-rule="evenodd" d="M682.648 496.711L682.614 496.544L682.636 496.627C682.64 496.655 682.644 496.683 682.648 496.711ZM686.894 512.373C687.08 513.06 686.675 513.769 685.988 513.955C685.302 514.141 684.595 513.735 684.409 513.047L680.128 497.219L680.095 497.052C677.867 480.299 676.454 463.235 673.663 423.439C673.629 422.949 673.629 422.949 673.595 422.458C670.084 372.388 668.244 352.122 665.022 335.512C664.384 332.221 663.76 328.851 663.025 324.758C662.671 322.791 661.437 315.843 661.181 314.418C656.381 287.642 652.728 274.488 645.155 261.376C635.716 245.03 620.895 232.5 597.536 222.263C594.35 220.867 575.287 211.998 569.836 209.518C554.619 202.596 540.393 196.493 525.566 190.678C501.8 181.355 478.702 173.68 456.199 167.96C455.822 167.864 455.509 167.602 455.346 167.248L445.057 144.829C444.76 144.182 445.043 143.416 445.69 143.118C446.336 142.821 447.1 143.104 447.397 143.751L457.429 165.611C479.856 171.344 502.855 178.999 526.505 188.276C541.379 194.11 555.645 200.23 570.901 207.169C576.375 209.66 595.414 218.517 598.568 219.9C622.409 230.348 637.657 243.239 647.384 260.084C655.152 273.535 658.865 286.903 663.716 313.962C663.972 315.39 665.206 322.337 665.559 324.301C666.293 328.383 666.915 331.742 667.551 335.02C670.801 351.781 672.643 372.07 676.164 422.278C676.198 422.768 676.198 422.768 676.232 423.258C679.014 462.926 680.425 479.975 682.636 496.627L686.894 512.373Z" fill="#3973B0"/></g></g></g><g id="Hairstyle" transform="translate(247.939 97) scale(0.9953051643192489 1)"><g id="Hairstyle/Ponytail"><g id="Ponytail"><path id="Skin" fill-rule="evenodd" clip-rule="evenodd" d="M178.032 103.135C177.17 103.189 176.439 102.522 176.456 101.658C176.461 101.415 176.464 101.17 176.464 100.925C176.464 73.2582 149.053 50.8292 115.241 50.8292C81.428 50.8292 54.017 73.2582 54.017 100.925C54.017 101.186 54.02 101.446 54.025 101.705C54.043 102.578 53.297 103.254 52.428 103.173C51.935 103.127 51.435 103.103 50.927 103.103C43.074 103.103 36.707 108.45 36.707 115.047C36.707 121.644 43.074 126.991 50.927 126.991C54.113 126.991 57.048 126.105 59.417 124.616C60.158 124.151 61.116 124.343 61.605 125.069C69.85 137.307 84.158 146.417 101.224 149.689C102.697 149.971 103.729 151.306 103.643 152.803L102.021 182H128.46L126.839 152.803C126.753 151.306 127.785 149.971 129.258 149.689C146.226 146.435 160.469 137.411 168.736 125.279C169.211 124.582 170.129 124.371 170.854 124.802C173.168 126.178 175.986 126.991 179.036 126.991C186.889 126.991 193.255 121.644 193.255 115.047C193.255 108.45 186.889 103.103 179.036 103.103C178.698 103.103 178.363 103.114 178.032 103.135Z" fill="#f7d3bb"/><path id="Hair" fill-rule="evenodd" clip-rule="evenodd" d="M127.176 47.223C127.986 44.9118 145.384 -5.91538 109.919 -8.78067C98.8666 -9.67367 87.4756 -7.91367 77.9416 -2.00667C69.7869 3.0459 65.8226 10.5075 61.773 18.1298L61.773 18.1299C59.49 22.4269 57.1799 26.7751 54.0766 30.7713C45.1466 42.2713 32.0556 49.4943 17.9096 52.4363C11.6027 53.7477 4.70323 54.107 -2.28304 54.4707C-17.3092 55.253 -32.737 56.0563 -43.5354 66.3993C-54.6464 77.0423 -61.1504 90.4693 -57.9154 105.845C-57.438 108.116 -56.8867 110.347 -56.3394 112.561L-56.3394 112.561C-54.5561 119.778 -52.8153 126.822 -53.8124 134.503C-55.3841 146.611 -62.4739 155.559 -69.6539 164.622C-72.46 168.163 -75.2798 171.723 -77.7894 175.494C-86.7244 188.923 -84.3974 200.038 -70.0664 208.228C-52.7094 218.146 -32.3894 211.421 -18.1794 199.156C-11.7594 193.614 -5.86937 186.772 -2.37037 178.977C0.784287 171.95 0.85009 164.174 0.914475 156.566C0.925316 155.285 0.936119 154.008 0.961632 152.74C1.29663 136.115 7.98164 120.291 24.8746 114.753C25.7831 114.455 26.6701 114.165 27.5362 113.881C31.3379 112.637 34.7362 111.524 37.7777 110.492C39.9097 106.155 44.9942 103.103 50.9268 103.103C51.4348 103.103 51.9348 103.127 52.4278 103.173C53.2968 103.254 54.0428 102.578 54.0248 101.705C54.0248 101.704 54.0248 101.703 54.0248 101.701C54.0249 101.703 54.0251 101.704 54.0253 101.705C54.0253 101.705 95.3793 89.7352 98.5133 60.1882C98.5133 60.1882 113.825 99.2552 176.456 101.658C176.456 101.658 178.769 82.5592 165.915 66.4282C157.756 56.1885 142.995 49.8082 127.176 47.223Z" fill="#E58857"/><path id="Detail" fill-rule="evenodd" clip-rule="evenodd" d="M121.032 44.8034C121.256 45.7854 120.466 46.7024 119.46 46.6514C115.142 46.4334 104.537 45.9344 102.037 46.1734C98.8771 46.4734 102.348 37.4204 110.312 37.1454C118.112 36.8764 120.376 41.9204 121.032 44.8034" fill="#010101"/></g></g></g><g id="Expression" transform="translate(321.939 188) scale(0.989010989010989 1)"><g id="Expression/Smily"><g id="Smily"><path id="Stroke 1" fill-rule="evenodd" clip-rule="evenodd" d="M14.9952 21.9372C14.7209 21.1555 15.1322 20.2995 15.9139 20.0252C16.6957 19.7509 17.5517 20.1623 17.826 20.944C17.8931 21.1353 18.05 21.5123 18.3009 22.0113C18.7252 22.855 19.2526 23.6994 19.8838 24.4815C21.6304 26.6457 23.7985 27.9066 26.4736 27.9066C29.1864 27.9066 31.4258 26.7198 33.2588 24.6961C33.9166 23.9698 34.4721 23.187 34.9242 22.4056C35.1908 21.9451 35.359 21.5983 35.4312 21.4245C35.7488 20.6594 36.6266 20.2966 37.3917 20.6142C38.1568 20.9319 38.5196 21.8096 38.2019 22.5747C37.7572 23.646 36.8718 25.1761 35.4823 26.7101C33.1222 29.3158 30.1203 30.9066 26.4736 30.9066C22.7892 30.9066 19.8208 29.1802 17.5493 26.3656C16.2202 24.7188 15.3964 23.0808 14.9952 21.9372Z" fill="#010101"/><path id="Stroke 3" fill-rule="evenodd" clip-rule="evenodd" d="M55.6071 21.8417C55.2311 21.1035 55.5246 20.2003 56.2628 19.8242C57.0009 19.4482 57.9042 19.7417 58.2802 20.4799C58.3739 20.6637 58.5788 21.0206 58.8899 21.4917C59.4156 22.2878 60.0383 23.0851 60.7501 23.8248C62.7194 25.8715 64.9557 27.0688 67.4257 27.0688C69.8128 27.0688 71.7905 25.7867 73.4119 23.5622C74.0054 22.748 74.5039 21.8675 74.9069 20.987C75.1462 20.4642 75.297 20.0675 75.3629 19.8629C75.6169 19.0744 76.462 18.641 77.2506 18.895C78.0391 19.149 78.4724 19.9941 78.2184 20.7827C78.1183 21.0934 77.9263 21.5986 77.6348 22.2355C77.1532 23.2876 76.5575 24.3397 75.8362 25.3293C73.701 28.2587 70.9089 30.0688 67.4257 30.0688C64.0262 30.0688 61.0739 28.4881 58.5883 25.9048C57.1347 24.3942 56.1404 22.8884 55.6071 21.8417Z" fill="#010101"/><path id="Stroke 5" fill-rule="evenodd" clip-rule="evenodd" d="M33.9154 39.5937C33.4598 38.9019 33.6512 37.9716 34.3431 37.516C35.035 37.0603 35.9652 37.2518 36.4209 37.9436C36.5179 38.091 36.7492 38.3948 37.116 38.8031C37.7467 39.5052 38.5169 40.2117 39.4274 40.8726C43.4434 43.7875 48.6633 44.863 55.2833 42.9875C56.0803 42.7617 56.9095 43.2248 57.1353 44.0218C57.3611 44.8189 56.8981 45.6481 56.101 45.8739C48.5656 48.0088 42.4024 46.7389 37.6652 43.3005C35.7902 41.9396 34.5543 40.5637 33.9154 39.5937Z" fill="#010101"/></g></g></g><g id="Upper Body" transform="translate(64.9395 58) scale(0.9988674971687429 1)"><g id="Upper Body/Raised Arm"><g id="Body"><path id="Skin" fill-rule="evenodd" clip-rule="evenodd" d="M588.535 74.2293C588.535 74.2293 598.645 23.8533 619.114 0.413347C619.114 0.413347 637.256 -5.69665 628.555 29.1073L683.723 9.23735C683.723 9.23735 714.753 -4.63565 714.959 8.97535C714.959 8.97535 734.907 0.933347 736.613 7.94435C738.469 15.5743 731.044 19.9053 731.044 19.9053C731.044 19.9053 743.511 15.3203 745.491 21.7553C746.166 23.9493 747.516 30.5323 737.582 34.9353C737.582 34.9353 747.869 32.9073 747.336 38.4643C746.558 46.5803 740.577 49.6443 728.823 54.1803C711.168 60.9953 680.762 70.4373 680.762 70.4373L655.208 93.7234L588.535 74.2293ZM162.068 315.672C162.068 315.672 92.2343 458.868 65.1223 511.313C65.1223 511.313 3.90532 602.528 1.57532 606.526C-2.19968 613 11.8053 614.061 17.3933 609.582C17.3933 609.582 10.8943 619.392 13.0783 621.911C15.8373 625.095 23.1433 625.04 26.4783 621.984C26.4783 621.984 22.2743 630.874 25.4563 632.406C25.4563 632.406 33.4203 636.783 44.6663 628.932C44.6663 628.932 36.0213 637.615 40.0263 641.433C43.8483 645.076 52.5453 646.101 65.9133 633.582C79.2813 621.063 101.629 597.883 101.629 597.883C101.629 597.883 100.5 623.821 105.804 627.641C108.457 629.551 110.805 628.185 112.49 626.342C114.17 624.504 115.199 622.164 115.635 619.713L123.179 577.294C123.179 577.294 192.161 434.97 195.925 413.01C199.69 391.05 218.116 340.22 218.116 340.22L193.738 314.75L162.068 315.672ZM341.51 220.535C294.95 214.174 267.842 222.239 267.842 222.239C267.842 222.239 310.123 250.286 320.821 249.464C325.762 249.083 341.51 220.535 341.51 220.535Z" fill="#f7d3bb"/><path id="Skin Shadows" fill-rule="evenodd" clip-rule="evenodd" d="M715.052 8.9435C714.849 8.42998 714.268 8.17847 713.755 8.38174C713.676 8.41295 713.522 8.47382 713.297 8.56214C712.924 8.70945 712.489 8.88035 711.998 9.07289C710.595 9.6231 709.023 10.2362 707.319 10.8965C702.45 12.7831 697.499 14.6696 692.764 16.4301C692.002 16.7133 691.251 16.9914 690.511 17.264C678.627 21.6426 670.468 24.3153 668.249 24.4207C667.698 24.4469 667.271 24.9153 667.298 25.467C667.324 26.0187 667.792 26.4446 668.344 26.4184C670.879 26.298 678.969 23.6478 691.202 19.1407C691.944 18.8674 692.697 18.5886 693.461 18.3047C698.206 16.5407 703.165 14.6511 708.042 12.7614C709.749 12.1001 711.323 11.486 712.728 10.9348C713.22 10.7419 713.656 10.5705 714.031 10.4228C714.256 10.3341 714.41 10.2731 714.491 10.2414C715.004 10.0381 715.256 9.45701 715.052 8.9435ZM16.6129 610.208C16.9587 610.639 17.5881 610.708 18.0188 610.362C18.0826 610.31 18.1994 610.214 18.3657 610.073C18.6385 609.84 18.9537 609.564 19.3077 609.243C20.3142 608.332 21.4335 607.248 22.6375 605.994C26.0706 602.418 29.5014 598.189 32.703 593.325C34.5369 590.539 36.2441 587.618 37.8007 584.562C38.0513 584.07 37.8556 583.468 37.3635 583.217C36.8714 582.966 36.2692 583.162 36.0186 583.654C34.4963 586.642 32.8264 589.5 31.0324 592.225C27.9011 596.982 24.5467 601.117 21.1947 604.609C20.0238 605.829 18.938 606.88 17.9654 607.761C17.6268 608.067 17.3271 608.33 17.0697 608.549C16.918 608.678 16.8157 608.763 16.7665 608.802C16.3359 609.148 16.2671 609.778 16.6129 610.208ZM25.7692 622.689C26.1589 623.08 26.7921 623.082 27.1834 622.692L27.2978 622.578L27.5157 622.359C27.7854 622.089 28.0982 621.773 28.4505 621.417C29.4564 620.4 30.577 619.255 31.7838 618.01C35.232 614.451 38.6804 610.792 41.9003 607.237C42.8223 606.219 43.7139 605.222 44.5719 604.249C50.7771 597.213 54.9008 591.818 56.2927 588.57C56.5103 588.063 56.2752 587.475 55.7676 587.257C55.2599 587.04 54.6721 587.275 54.4545 587.782C53.1783 590.76 49.1268 596.06 43.0719 602.926C42.2199 603.892 41.3341 604.883 40.418 605.894C37.2147 609.431 33.7811 613.074 30.3474 616.618C29.1455 617.859 28.0295 618.998 27.0281 620.011C26.6778 620.365 26.367 620.679 26.0991 620.947C25.9386 621.108 25.8284 621.219 25.7719 621.275C25.3806 621.665 25.3794 622.298 25.7692 622.689ZM47.3084 627.386C46.9127 627.771 46.2795 627.762 45.8943 627.366C45.5091 626.971 45.5177 626.338 45.9134 625.952L46.004 625.864L46.2012 625.671C46.4368 625.44 46.7102 625.172 47.0183 624.868C47.8989 623.999 48.8804 623.023 49.9374 621.961C52.9573 618.929 55.9769 615.823 58.794 612.821C59.4851 612.085 60.1566 611.362 60.8066 610.655C66.7397 604.205 70.5692 599.402 71.3281 597.235C71.5105 596.713 72.081 596.439 72.6023 596.621C73.1236 596.804 73.3982 597.374 73.2158 597.895C72.3252 600.439 68.4468 605.304 62.2786 612.009C61.6239 612.721 60.9479 613.448 60.2524 614.19C57.4203 617.207 54.3873 620.327 51.3546 623.373C50.2932 624.438 49.3076 625.419 48.4229 626.291C48.1131 626.597 47.838 626.867 47.6007 627.1C47.4581 627.24 47.3599 627.335 47.3084 627.386ZM730.669 18.978C731.181 18.7712 731.764 19.0187 731.971 19.5308C732.178 20.0429 731.93 20.6257 731.418 20.8325C731.329 20.8685 731.156 20.9373 730.903 21.0365C730.484 21.2011 729.99 21.3918 729.426 21.6064C727.815 22.219 725.956 22.9011 723.873 23.6355C717.925 25.7327 711.375 27.8296 704.416 29.7868C698.105 31.5616 691.756 33.135 685.443 34.4531C684.902 34.566 684.373 34.2193 684.26 33.6786C684.147 33.138 684.494 32.6082 685.034 32.4954C691.301 31.1869 697.606 29.6245 703.874 27.8615C710.789 25.9167 717.299 23.8328 723.208 21.7493C725.275 21.0205 727.119 20.3439 728.715 19.737C729.273 19.5249 729.76 19.3367 730.173 19.1747C730.419 19.0779 730.586 19.0116 730.669 18.978ZM741.368 33.5709C741.182 33.051 740.609 32.7806 740.089 32.9669C740.034 32.9866 739.925 33.0254 739.763 33.0822C739.492 33.1773 739.174 33.2877 738.81 33.4122C737.77 33.7683 736.579 34.1653 735.255 34.593C731.473 35.8155 727.394 37.0381 723.171 38.179C717.931 39.5947 712.842 40.7829 708.044 41.6691C702.541 42.6856 697.581 43.2744 693.303 43.3675C692.751 43.3795 692.313 43.8368 692.325 44.389C692.337 44.9412 692.794 45.379 693.347 45.367C697.744 45.2713 702.806 44.6704 708.407 43.6358C713.263 42.7389 718.404 41.5387 723.693 40.1097C727.949 38.9598 732.059 37.728 735.871 36.4961C737.205 36.0647 738.407 35.6641 739.458 35.3043C739.826 35.1782 740.149 35.0662 740.425 34.9695C740.591 34.9112 740.705 34.8708 740.764 34.8496C741.284 34.6633 741.555 34.0908 741.368 33.5709ZM681.162 69.5213C681.668 69.7425 681.899 70.332 681.678 70.8381C681.456 71.3441 680.867 71.575 680.361 71.3538L674.326 68.7158C673.82 68.4946 673.589 67.9051 673.81 67.399C674.031 66.893 674.621 66.6621 675.127 66.8833L681.162 69.5213ZM627.554 29.0976C627.549 29.6499 627.992 30.102 628.544 30.1074C628.695 30.1089 629.008 30.1286 629.46 30.1845C630.231 30.2799 631.095 30.4472 632.029 30.7043C634.708 31.4421 637.389 32.7506 639.895 34.7718C643.656 37.8057 646.688 42.1846 648.721 48.1481C648.899 48.6709 649.467 48.9502 649.99 48.7719C650.513 48.5937 650.792 48.0255 650.614 47.5028C648.46 41.1844 645.209 36.4885 641.151 33.2151C638.42 31.0125 635.491 29.5835 632.56 28.7761C630.788 28.288 629.394 28.1156 628.564 28.1075C628.012 28.1021 627.56 28.5454 627.554 29.0976Z" fill="#D7A17C"/><g id="Tshirt"><path id="Mask 2" fill-rule="evenodd" clip-rule="evenodd" d="M425.35 416.148L423.87 319.589C423.87 319.589 517.95 274.515 547.04 251.631C584.311 222.312 662.871 95.5707 662.871 95.5707L575.907 70.3127C557.892 98.9247 490.03 165.938 446.432 201.974C426.87 218.144 401.67 225.807 376.413 223.311C370.57 222.734 363.903 222.154 356.325 221.6L355.788 221.56C350.794 221.194 346.024 220.845 341.446 220.527C341.467 220.529 341.488 220.532 341.509 220.535C341.509 220.535 325.761 249.083 320.82 249.464C310.122 250.286 267.841 222.239 267.841 222.239C267.841 222.239 268.119 222.156 268.668 222.014C253.756 224.855 238.38 229.925 219.956 238.336C176.794 258.042 56.7852 524.717 56.7852 524.717C56.7852 524.717 99.3622 565.92 142.625 569.354L205.803 416.216C205.803 416.216 283.142 454.434 425.35 416.148Z" fill="#010101"/><g id="Object"><path id="Mask 2_2" d="M425.35 416.147L423.87 319.589C423.87 319.589 517.95 274.514 547.04 251.63C584.311 222.311 662.871 95.5705 662.871 95.5705L575.907 70.3125C557.892 98.9245 490.03 165.938 446.432 201.973C426.87 218.143 401.67 225.807 376.413 223.311C370.57 222.734 363.903 222.154 356.325 221.6L355.788 221.56C350.794 221.194 346.024 220.845 341.446 220.526C341.467 220.529 341.488 220.532 341.509 220.535C341.509 220.535 325.761 249.083 320.82 249.464C310.122 250.286 267.841 222.239 267.841 222.239C267.841 222.239 268.119 222.156 268.668 222.014C253.756 224.855 238.38 229.925 219.956 238.335C176.794 258.041 56.7852 524.716 56.7852 524.716C56.7852 524.716 99.3622 565.919 142.625 569.353L205.803 416.216C205.803 416.216 283.142 454.434 425.35 416.147Z" fill="#010101"/><path id="Intersect" fill-rule="evenodd" clip-rule="evenodd" d="M661.356 97.9998C662.345 96.4214 662.872 95.5705 662.872 95.5705L660.907 94.9998H622.94V83.9724L619.94 83.101V94.9998H575.94V70.3216L575.909 70.3125C575.034 71.702 574.041 73.182 572.94 74.7446V94.9998H556.734C555.877 95.9878 555.002 96.9881 554.11 97.9998H572.94V139H528.94V125.041C527.947 126.062 526.947 127.087 525.94 128.114V139H515.123C514.116 140 513.106 141 512.092 142H525.94V183H481.94V170.761C480.937 171.686 479.937 172.605 478.94 173.518V183H468.452C467.318 184.011 466.191 185.011 465.072 186H478.94V226H434.94V210.12C433.949 210.717 432.949 211.295 431.94 211.855V226H387.94V223.75C386.941 223.772 385.941 223.779 384.94 223.77V226H342.94V220.631C342.44 220.596 341.943 220.561 341.448 220.526L341.511 220.535C341.511 220.535 340.923 221.6 339.94 223.321V226H338.392C337.851 226.928 337.255 227.937 336.62 229H339.94V269.75H295.94V239.35C294.939 238.795 293.937 238.232 292.94 237.665V269.75H248.94V229H278.427C276.668 227.906 275.06 226.892 273.658 226H252.267C249.222 226.897 246.124 227.894 242.953 229H245.94V269.75H201.94V254.605C200.955 255.793 199.954 257.034 198.94 258.326V269.75H190.495C189.805 270.732 189.111 271.732 188.412 272.75H198.94V313H163.271C162.693 313.994 162.113 314.994 161.533 316H198.94V357H154.94V327.581C153.941 329.358 152.941 331.148 151.94 332.949V357H138.853C138.32 357.998 137.788 358.998 137.256 360H151.94V401H116.04C115.534 402.001 115.029 403.001 114.526 404H151.94V444H107.94V417.156C106.932 419.183 105.931 421.199 104.94 423.204V444H94.7462C94.2578 445.005 93.7725 446.005 93.2904 447H104.94V487.75H73.8566C73.3795 488.766 72.9107 489.766 72.4503 490.75H104.94V531H63.8672C64.9689 531.927 66.1867 532.933 67.5114 534H104.94V558.165C105.931 558.648 106.932 559.121 107.94 559.584V534H151.94V546.779L154.94 539.507V534H157.212L158.45 531H154.94V490.75H175.055L176.293 487.75H154.94V447H193.104L194.342 444H154.94V404H198.94V432.855L201.94 425.583V404H245.94V427.966C246.922 428.151 247.922 428.334 248.94 428.514V404H292.94V432.979C293.932 433.012 294.932 433.042 295.94 433.067V404H339.94V431.628C340.935 431.541 341.935 431.45 342.94 431.355V404H384.94V425.398C385.936 425.211 386.936 425.021 387.94 424.826V404H425.165L425.119 401H387.94V360H424.491L424.445 357H387.94V316H431.27C433.042 315.134 435.093 314.128 437.382 313H434.94V272.75H478.94V291.897C479.937 291.375 480.937 290.849 481.94 290.32V272.75H514.051C515.806 271.744 517.535 270.743 519.23 269.75H481.94V229H525.94V265.755C526.957 265.138 527.958 264.526 528.94 263.919V229H569.325C570.163 228.017 571.007 227.017 571.857 226H528.94V186H572.94V224.698C573.933 223.5 574.933 222.279 575.94 221.039V186H602.502C603.221 185.001 603.938 184.001 604.653 183H575.94V142H619.94V161.14C620.949 159.669 621.949 158.205 622.94 156.75V97.9998H661.356ZM575.94 139H619.94V97.9998H575.94V139ZM342.94 269.75V229H384.94V269.75H342.94ZM342.94 313V272.75H384.94V313H342.94ZM342.94 357V316H384.94V357H342.94ZM201.94 357H245.94V316H201.94V357ZM248.94 357H292.94V316H248.94V357ZM295.94 357H339.94V316H295.94V357ZM201.94 272.75V313H245.94V272.75H201.94ZM248.94 272.75V313H292.94V272.75H248.94ZM295.94 272.75V313H339.94V272.75H295.94ZM384.94 401H342.94V360H384.94V401ZM339.94 360H295.94V401H339.94V360ZM292.94 360H248.94V401H292.94V360ZM245.94 360H201.94V401H245.94V360ZM198.94 360H154.94V401H198.94V360ZM107.94 531V490.75H151.94V531H107.94ZM107.94 487.75H151.94V447H107.94V487.75ZM572.94 142H528.94V183H572.94V142ZM387.94 313V272.75H431.94V313H387.94ZM434.94 269.75H478.94V229H434.94V269.75ZM387.94 269.75H431.94V229H387.94V269.75ZM481.94 226V186H525.94V226H481.94Z" fill="#B9B3B8"/></g><path id="Tshirt details" fill-rule="evenodd" clip-rule="evenodd" d="M195.791 408.038C197.085 409.155 198.452 410.272 199.828 411.313C200.835 412.074 201.81 412.765 202.738 413.37C204.019 414.205 205.184 414.858 206.201 415.298C206.708 415.518 206.941 416.106 206.721 416.613C206.502 417.12 205.913 417.353 205.406 417.134C204.273 416.643 203.014 415.937 201.646 415.045C200.676 414.413 199.664 413.696 198.622 412.908C197.208 411.839 195.808 410.695 194.484 409.552C194.021 409.152 193.6 408.78 193.228 408.446C193.005 408.244 192.846 408.099 192.761 408.02C192.45 407.731 192.356 407.276 192.527 406.886L229.362 322.967C229.584 322.461 230.174 322.231 230.679 322.453C231.185 322.675 231.415 323.265 231.193 323.771L194.647 407.032C194.988 407.338 195.372 407.676 195.791 408.038Z" fill="#B9B3B8"/></g></g></g></g></g></svg>