<svg viewBox="217.62820512820508 112.04999999999995 472.5641025641025 896.4" fill="none" xmlns="http://www.w3.org/2000/svg" xmlns:xlink="http://www.w3.org/1999/xlink" overflow="visible" width="472.5641025641025px" height="896.4px"><g id="Master/Character/Standing"><g id="Lower Body/Standing" transform="translate(0.939453 443) scale(0.998641304347826 1)"><g id="Lower Body/Standing/Jumping"><g id="Jumping"><path id="Pants" fill-rule="evenodd" clip-rule="evenodd" d="M406.434 369.778L564.411 112.352L434.218 87.8507L355.938 505.088C355.938 505.088 280.699 514.967 222.939 480.007C222.939 480.007 314.9 25.84 333.141 0L452.496 -2.9993C452.496 -2.9993 625.118 -1.7923 675.672 39.5637C725.267 80.1357 544.884 407.999 544.884 407.999" fill="#94C0E9"/><path id="Pants detials" fill-rule="evenodd" clip-rule="evenodd" d="M362.887 -0.968983C362.352 -1.10547 361.807 -0.782282 361.671 -0.247128C361.651 -0.170457 361.612 -0.0202696 361.555 0.198526C361.46 0.564215 361.348 0.988707 361.219 1.46709C360.853 2.83495 360.433 4.35955 359.965 6.0016C358.63 10.6921 357.183 15.3822 355.677 19.7561C353.588 25.8275 351.555 30.7874 349.658 34.2287C349.08 35.2779 348.519 36.1744 347.981 36.9083C346.999 38.2473 345.555 39.4365 343.707 40.4793C343.655 40.4582 343.601 40.4412 343.544 40.4287C343.008 40.3107 342.477 40.6478 342.355 41.1825C340.123 42.2532 337.422 43.1481 334.332 43.8713C330.902 44.674 327.217 45.2141 323.531 45.5394C322.24 45.6534 321.041 45.7323 319.967 45.7824C319.592 45.7999 319.259 45.8126 318.973 45.8211C318.803 45.8262 318.688 45.8288 318.63 45.8297C318.078 45.8382 317.637 46.2928 317.646 46.845C317.654 47.3972 318.109 47.838 318.661 47.8295C318.728 47.8284 318.853 47.8256 319.033 47.8202C319.33 47.8113 319.673 47.7983 320.06 47.7803C321.161 47.7289 322.387 47.6482 323.707 47.5317C327.48 47.1986 331.255 46.6453 334.787 45.8187C337.396 45.2084 339.752 44.4788 341.819 43.6164L243.514 490.657C243.395 491.196 243.736 491.729 244.276 491.848C244.815 491.967 245.348 491.626 245.467 491.086L344.102 42.5463C346.465 41.2999 348.323 39.8246 349.594 38.091C350.187 37.2818 350.792 36.3141 351.409 35.1944C353.374 31.6312 355.444 26.578 357.568 20.407C359.087 15.9952 360.544 11.272 361.889 6.54934C362.36 4.89677 362.783 3.36208 363.151 1.98442C363.281 1.50187 363.394 1.07329 363.49 0.703573C363.548 0.481125 363.588 0.327344 363.609 0.247128C363.745 -0.288027 363.422 -0.832498 362.887 -0.968983ZM565.088 113.088C564.681 113.462 564.049 113.435 563.675 113.028C563.302 112.622 563.329 111.989 563.735 111.615L578.01 98.5064C578.417 98.1328 579.05 98.1597 579.423 98.5665C579.797 98.9733 579.77 99.6059 579.363 99.9795L565.088 113.088ZM435.195 88.0674C435.075 88.6066 434.541 88.9468 434.002 88.8272C433.463 88.7076 433.123 88.1736 433.242 87.6344L436.611 72.4424C436.731 71.9032 437.265 71.563 437.804 71.6826C438.343 71.8022 438.683 72.3362 438.564 72.8754L435.195 88.0674ZM448.32 346.351C382.448 360.195 407.98 400.162 424.133 411.255C445.906 426.207 473.77 436.131 525.721 419.72C577.645 403.318 548.395 325.317 448.32 346.351Z" fill="#3973B0"/><path id="Shoes" fill-rule="evenodd" clip-rule="evenodd" d="M419.49 394.887C419.13 380.274 452.552 353.02 464.532 343.728C496.525 340.117 519.901 347.359 534.214 358.741C524.822 370.253 514.592 390.183 507.472 424.65C506.791 427.948 506.135 431.363 505.514 434.932C489.693 525.9 464.495 514.234 452.538 495.839C439.69 476.073 442.189 444.26 445.979 422.813C448.326 409.531 451.169 400.221 451.169 400.221C451.169 400.221 419.758 405.737 419.49 394.887ZM343.02 506.096C346.35 509.239 350.972 513.082 357.302 517.789C379.69 534.436 373.495 544.387 365.7 549.508C360.893 552.667 355.074 553.918 349.349 553.356C267.163 545.288 258.719 508.604 258.719 508.604C258.719 508.604 239.432 538.302 228.716 526.668C220.857 518.135 227.323 495.945 231.33 484.716C272.757 506.262 320.563 507.144 343.02 506.096Z" fill="#010101"/><path id="Skin" fill-rule="evenodd" clip-rule="evenodd" d="M505.358 405.879C507.608 406.399 509.766 406.581 511.852 406.504C518.459 382.901 526.612 368.061 534.215 358.74C519.902 347.358 496.526 340.116 464.533 343.728C463.592 344.457 462.507 345.309 461.328 346.245C468.91 385.659 479.472 397.914 505.358 405.879" fill="#f7d3bb"/></g></g></g><g id="Hairstyle" transform="translate(268.939 82) scale(0.9953051643192489 1)"><g id="Hairstyle/Headphones"><g id="Headphones"><path id="Skin" fill-rule="evenodd" clip-rule="evenodd" d="M120.894 50.7337C89.3395 50.7337 63.7605 73.4927 63.7605 101.568C63.7605 107.315 64.8485 112.834 66.8245 117.986C66.6305 117.98 66.4395 117.963 66.2435 117.963C57.9285 117.963 51.1875 123.507 51.1875 130.347C51.1875 137.188 57.9285 142.733 66.2435 142.733C70.8395 142.733 74.9495 141.036 77.7085 138.363C78.7055 137.398 80.2465 137.296 81.3005 138.198C89.0205 144.807 98.8175 149.509 109.742 151.434C111.146 151.681 112.138 152.946 112.056 154.369L110.495 182H136.935L135.711 160.232C135.413 155.045 138.451 150.186 143.308 148.34C163.721 140.587 178.026 122.564 178.026 101.568C178.026 73.4927 152.448 50.7337 120.894 50.7337Z" fill="#f7d3bb"/><path id="Hair" fill-rule="evenodd" clip-rule="evenodd" d="M150.635 67.3877C148.205 89.256 66.9643 117.937 66.8254 117.986C66.8254 117.986 66.8255 117.986 66.8255 117.986C66.8254 117.986 66.8253 117.986 66.8253 117.986C66.7492 117.983 66.6736 117.979 66.5981 117.975H66.5979C66.4808 117.969 66.3635 117.963 66.2445 117.963C57.9295 117.963 51.1885 123.507 51.1885 130.347C51.1885 137.188 57.9295 142.733 66.2445 142.733C70.8405 142.733 74.9505 141.036 77.7095 138.363C78.7065 137.398 80.2475 137.296 81.3015 138.198C89.0215 144.807 98.8185 149.509 109.742 151.434C111.146 151.681 112.138 152.946 112.056 154.369L111.003 172.72L2.58936 174.798C2.58936 174.798 -5.56464 140.584 14.3814 137.273C25.9252 135.356 25.7983 125.815 25.6548 115.036C25.6096 111.638 25.5627 108.118 25.8794 104.674C27.3534 88.652 36.1504 74.285 36.1504 74.285L36.4617 74.2315C68.2788 23.1286 139.287 41.0447 139.287 41.0447C153.383 45.1168 162.933 51.583 169.344 58.9395C185.249 74.366 185.73 100.245 185.812 104.695C185.819 105.052 185.823 105.271 185.832 105.336C186.53 110.224 185.775 116.738 185.021 123.237V123.237C183.715 134.493 182.415 145.7 188.684 148.321C210.559 157.466 212.74 170.77 212.74 170.77L136.4 172.233L135.711 160.232C135.413 155.045 138.451 150.186 143.308 148.34C162.057 141.219 175.654 125.434 177.747 106.639C160.963 91.7305 150.635 67.3877 150.635 67.3877Z" fill="#94C0E9"/><g id="Accessory"><path id="Fill 8" fill-rule="evenodd" clip-rule="evenodd" d="M84.3608 114.594C84.3608 129.394 73.2848 141.391 59.6218 141.391C45.9588 141.391 34.8828 129.394 34.8828 114.594C34.8828 99.7951 45.9588 87.7971 59.6218 87.7971C73.2848 87.7971 84.3608 99.7951 84.3608 114.594" fill="#5BA092"/><path id="Fill 10" fill-rule="evenodd" clip-rule="evenodd" d="M72.5428 114.594C72.5428 128.801 64.1128 140.319 53.7128 140.319C43.3128 140.319 34.8828 128.801 34.8828 114.594C34.8828 100.387 43.3128 88.8701 53.7128 88.8701C64.1128 88.8701 72.5428 100.387 72.5428 114.594" fill="#2F6858"/><path id="Fill 12" fill-rule="evenodd" clip-rule="evenodd" d="M190.892 98.9291C190.892 98.9291 192.541 55.4921 146.906 42.8461C68.3303 21.0731 51.2363 89.0321 51.2363 89.0321L64.9813 88.4821C64.9813 88.4821 83.6113 42.8291 146.631 51.6441C185.944 57.1421 187.593 98.3791 187.593 98.3791L190.892 98.9291Z" fill="#2F6858"/><path id="Fill 14" fill-rule="evenodd" clip-rule="evenodd" d="M185.233 96.9964L183.195 136.042C183.195 136.042 200.367 139.042 202.989 123.395C207.619 95.7644 185.233 96.9964 185.233 96.9964" fill="#2F6858"/><path id="Fill 16" fill-rule="evenodd" clip-rule="evenodd" d="M193.056 98.3373C189.581 97.2703 185.233 96.9963 185.233 96.9963L183.195 136.042C183.195 136.042 187.169 136.731 191.584 135.711L193.056 98.3373Z" fill="#5BA092"/></g></g></g></g><g id="Expression" transform="translate(351.939 173) scale(0.989010989010989 1)"><g id="Expression/Glasses"><g id="Glasses"><path id="Combined Shape" fill-rule="evenodd" clip-rule="evenodd" d="M41.3675 28.686C41.3675 18.9275 33.2219 11 23.1535 11C13.085 11 4.93945 18.9275 4.93945 28.686C4.93945 38.4445 13.085 46.372 23.1535 46.372C33.2219 46.372 41.3675 38.4445 41.3675 28.686ZM43.6867 33.9054C41.314 42.8081 33.0143 49.372 23.1535 49.372C11.4461 49.372 1.93945 40.1198 1.93945 28.686C1.93945 17.2522 11.4461 8 23.1535 8C34.8608 8 44.3675 17.2522 44.3675 28.686C44.3675 29.4354 44.3266 30.1753 44.247 30.904L51.2744 30.886C51.2412 30.3919 51.2243 29.8931 51.2243 29.3901C51.2243 17.9873 59.9106 8.7041 70.6763 8.7041C81.4426 8.7041 90.1283 17.987 90.1283 29.3901C90.1283 40.7932 81.4426 50.0761 70.6763 50.0761C61.3674 50.0761 53.6132 43.1353 51.6851 33.885L43.6867 33.9054ZM87.1283 29.3901C87.1283 19.6009 79.7395 11.7041 70.6763 11.7041C61.6136 11.7041 54.2243 19.6012 54.2243 29.3901C54.2243 39.179 61.6136 47.0761 70.6763 47.0761C79.7395 47.0761 87.1283 39.1793 87.1283 29.3901Z" fill="#F3705A"/><path id="Stroke 7" fill-rule="evenodd" clip-rule="evenodd" d="M33.5315 49.5163C33.2464 48.7385 33.6457 47.8768 34.4235 47.5917C35.2013 47.3065 36.063 47.7058 36.3482 48.4836C36.4012 48.6284 36.5244 48.9185 36.7177 49.3038C37.0445 49.9553 37.4419 50.607 37.9059 51.2082C40.1478 54.1131 42.8695 54.7915 46.7365 52.0076C47.4088 51.5236 48.3462 51.6763 48.8302 52.3486C49.3142 53.0209 49.1616 53.9583 48.4893 54.4423C43.1907 58.2568 38.6906 57.1352 35.5309 53.0411C34.5184 51.7291 33.8662 50.4291 33.5315 49.5163Z" fill="#010101"/><path id="Fill 9" fill-rule="evenodd" clip-rule="evenodd" d="M20.3086 34.9805C20.3086 32.6421 21.6514 30.7463 23.3086 30.7463C24.9658 30.7463 26.3086 32.6421 26.3086 34.9805C26.3086 37.319 24.9658 39.2147 23.3086 39.2147C21.6514 39.2147 20.3086 37.319 20.3086 34.9805" fill="#010101"/><path id="Fill 11" fill-rule="evenodd" clip-rule="evenodd" d="M66.0938 34.9805C66.0938 32.6421 67.4366 30.7463 69.0938 30.7463C70.7493 30.7463 72.0938 32.6421 72.0938 34.9805C72.0938 37.319 70.7493 39.2147 69.0938 39.2147C67.4366 39.2147 66.0938 37.319 66.0938 34.9805" fill="#010101"/></g></g></g><g id="Upper Body" transform="translate(87.9395 44) scale(0.9988674971687429 1)"><g id="Upper Body/Reading"><g id="Body"><path id="Skin" fill-rule="evenodd" clip-rule="evenodd" d="M246.656 437.57C243.002 438.899 244.925 422.796 245.611 410.283C245.722 408.265 247.471 406.735 249.486 406.891L326.337 412.837M483.999 450.176C468.702 389.313 448.913 329.83 421.561 272.956C389.439 206.162 287.155 217.581 283.78 217.977C283.717 217.984 283.672 217.988 283.61 217.992C280.69 218.181 202.577 223.688 177.238 273.85C151.414 324.97 169.86 445.369 177.238 471.193C183.004 491.373 207.64 529.543 269.991 503.867C308.269 488.105 375.228 444.926 399.639 418.676L403.229 418.848C415.729 445.463 419.929 469.203 438.858 538.609L453.129 588.775C453.129 588.775 453.864 589.414 450.193 596.277C448.69 599.088 443.25 606.012 440.697 615.349C439.568 619.477 444.703 622.773 448.589 619.501C455.699 613.513 458.664 605.721 458.664 605.721C461.739 618.021 463.18 634.568 469.837 648.509C473.363 655.893 480.277 658.137 482.971 656.505C484.551 655.547 483.783 653.603 483.544 651.444C483.305 649.283 482.596 646.907 482.299 645.084C481.689 641.354 482.931 647.36 482.237 644.645C482.281 644.959 482.367 645.262 482.491 645.554C483.314 647.492 489.136 654.838 493.346 652.074C493.536 651.949 493.9 651.607 494.049 651.331C494.746 650.034 493.695 643.618 494.13 645.024C495.504 649.464 500.887 649.207 502.04 647.965C502.154 647.841 503.077 647.469 503.185 647.201C503.736 645.827 504.228 645.291 505.681 645.012C510.025 644.178 514.94 644.901 515.122 628.988C515.868 563.642 499.928 513.556 483.999 450.176" fill="#f7d3bb"/><g id="Tshirt"><path id="Tshirt_2" fill-rule="evenodd" clip-rule="evenodd" d="M355.928 234.329C341.634 229.802 353.502 222.758 353.502 222.758L363.644 225.604L373.08 229.088C377.606 230.755 373.556 235.043 373.556 235.043C385.979 239.735 375.7 246.002 375.7 246.002C388.326 252.434 374.033 259.819 374.033 259.819C388.565 270.063 371.782 270.431 371.782 270.431C371.782 270.431 380.627 274.575 377.781 276.92C372.111 281.592 352.405 285.967 350.491 284.105C343.224 277.037 354.022 273.159 354.022 273.159C337.346 263.631 354.26 259.342 354.26 259.342C337.584 250.29 354.975 247.431 354.975 247.431C339.966 238.855 355.928 234.329 355.928 234.329ZM255.798 288.812C255.798 288.812 270.196 291.692 263.55 299.667L347.376 296.542V365.359L351.518 378.776L357.691 396.811C357.691 396.811 340.985 406.937 331.976 410.817C322.337 414.969 301.747 420.906 301.747 420.906C273.672 424.941 244.237 424.941 244.237 424.941C244.237 424.941 246.28 380.844 245.823 359.826C245.441 342.244 244.237 312.477 244.237 312.477C231.741 310.096 238.52 297.451 238.52 297.451C225.672 297.673 234.976 285.933 234.976 285.933C219.248 287.484 228.995 275.301 228.995 275.301C213.268 275.301 222.793 264.667 222.793 264.667C205.294 262.896 219.692 251.378 219.692 251.378C202.414 251.156 213.069 238.405 213.069 238.405L219.674 234.978L227.024 231.7C227.024 231.7 241.842 233.214 234.311 243.625C234.311 243.625 250.259 243.182 238.963 255.365C238.963 255.365 252.475 257.58 244.5 267.991C244.5 267.991 259.12 269.542 248.93 279.288C248.93 279.288 262.885 278.402 255.798 288.812Z" fill="#F2B08F"/><mask id="mask0_413_829053d938733-1e49-40fc-8e0f-5e332e2e0be9" style="mask-type:alpha" maskUnits="userSpaceOnUse" x="209" y="222" width="172" height="203" fill="#ffffff"><path id="Tshirt_3" fill-rule="evenodd" clip-rule="evenodd" d="M355.928 234.329C341.634 229.802 353.502 222.758 353.502 222.758L363.644 225.604L373.08 229.088C377.606 230.755 373.556 235.043 373.556 235.043C385.979 239.735 375.7 246.002 375.7 246.002C388.326 252.434 374.033 259.819 374.033 259.819C388.565 270.063 371.782 270.431 371.782 270.431C371.782 270.431 380.627 274.575 377.781 276.92C372.111 281.592 352.405 285.967 350.491 284.105C343.224 277.037 354.022 273.159 354.022 273.159C337.346 263.631 354.26 259.342 354.26 259.342C337.584 250.29 354.975 247.431 354.975 247.431C339.966 238.855 355.928 234.329 355.928 234.329ZM255.798 288.812C255.798 288.812 270.196 291.692 263.55 299.667L347.376 296.542V365.359L351.518 378.776L357.691 396.811C357.691 396.811 340.985 406.937 331.976 410.817C322.337 414.969 301.747 420.906 301.747 420.906C273.672 424.941 244.237 424.941 244.237 424.941C244.237 424.941 246.28 380.844 245.823 359.826C245.441 342.244 244.237 312.477 244.237 312.477C231.741 310.096 238.52 297.451 238.52 297.451C225.672 297.673 234.976 285.933 234.976 285.933C219.248 287.484 228.995 275.301 228.995 275.301C213.268 275.301 222.793 264.667 222.793 264.667C205.294 262.896 219.692 251.378 219.692 251.378C202.414 251.156 213.069 238.405 213.069 238.405L219.674 234.978L227.024 231.7C227.024 231.7 241.842 233.214 234.311 243.625C234.311 243.625 250.259 243.182 238.963 255.365C238.963 255.365 252.475 257.58 244.5 267.991C244.5 267.991 259.12 269.542 248.93 279.288C248.93 279.288 262.885 278.402 255.798 288.812Z" fill="#ffffff"/></mask><g mask="url(#mask0_413_829053d938733-1e49-40fc-8e0f-5e332e2e0be9)"><g id="Patterns"><path id="Pattern" fill-rule="evenodd" clip-rule="evenodd" d="M336.189 366.208C336.607 366.932 336.53 367.84 335.997 368.484L320.744 386.902L349.18 383.064C350.267 382.917 351.27 383.673 351.427 384.759L354.896 408.647L367.261 379.567C367.84 378.205 369.646 377.922 370.614 379.041L389.103 400.414L391.58 372.19C391.676 371.09 392.646 370.277 393.746 370.373L416.664 372.372L399.28 354.889C398.864 354.471 398.654 353.891 398.706 353.304L401.454 321.988L376.354 336.101C375.614 336.517 374.693 336.42 374.055 335.86L350.419 315.116L354.923 344.891C355.116 346.171 354.061 347.295 352.771 347.182L323.737 344.65L336.189 366.208ZM419.753 372.641L421.423 374.321L421.21 374.776L418.85 374.57L416.664 372.372L419.753 372.641ZM370.942 381.132L369.917 381.293L369.101 380.349L368.613 381.497L367.589 381.658L368.23 382.399L353.943 416L349.448 385.046L315.938 389.569L334.457 367.208L320.084 342.323L350.895 345.011L350.968 345.489L351.377 345.053L352.945 345.19L352.71 343.633L353.119 343.198L352.637 343.156L347.622 310L375.374 334.357L403.777 318.387L400.698 353.478L421.938 374.84L393.572 372.365L390.683 405.297L370.558 382.034L370.942 381.132ZM394.475 289.748C394.742 290.228 394.799 290.796 394.634 291.32L387.971 312.434L414.936 307.414C416.043 307.208 417.102 307.956 417.277 309.068L420.986 332.557L438.079 313.668C438.585 313.108 439.364 312.881 440.092 313.082L466.034 320.222L458.533 300.207C458.228 299.395 458.482 298.479 459.162 297.939L475.946 284.615L454.16 276.289C453.156 275.905 452.635 274.796 452.98 273.778L461.915 247.438L432.581 253.202C432.01 253.314 431.417 253.172 430.959 252.811L408.47 235.118V262.847C408.47 263.867 407.703 264.724 406.689 264.835L382.147 267.538L394.475 289.748ZM415.668 311.347L415.605 311.302L415.302 309.38L413.389 309.736L413.326 309.692L413.335 309.746L385.061 315.01L392.727 290.718L378.938 265.879L406.47 262.847V231L432.196 251.24L464.919 244.81L454.874 274.421L479.938 284L460.406 299.506L469.282 323.19L439.561 315.01L419.662 337L415.614 311.357L415.668 311.347ZM449.778 416.909C450.071 416.505 450.505 416.226 450.994 416.125L468.431 412.542L455.96 401.442C455.221 400.784 455.073 399.685 455.614 398.856L464.303 385.525L443.59 383.835C442.923 383.781 442.327 383.396 442.003 382.811L432.891 366.36L423.213 386.013C422.951 386.545 422.467 386.933 421.89 387.073L404.764 391.227L416.904 401.464C417.371 401.857 417.633 402.443 417.614 403.053L416.999 423.234L431.336 415.332C432.387 414.753 433.707 415.223 434.156 416.336L439.887 430.538L449.778 416.909ZM433.267 418.836L432.965 418.728L432.302 417.084L430.749 417.94L430.447 417.832L430.537 418.056L414.893 426.678L415.615 402.993L400.459 390.213L421.419 385.13L432.787 362.044L443.753 381.842L467.811 383.804L457.289 399.948L472.739 413.698L451.396 418.084L439.384 434.636L433.056 418.952L433.267 418.836ZM313.813 220.722L309.923 250.01C309.843 250.614 309.491 251.149 308.968 251.463L285.117 265.741L321.389 274.795C322.279 275.017 322.904 275.817 322.904 276.735V302.034L339.344 280.27C339.925 279.501 340.972 279.255 341.834 279.687L369.462 293.503L353.175 260.962C352.946 260.505 352.901 259.978 353.048 259.49L363.138 225.98L337.05 245.175C336.204 245.797 335.021 245.659 334.341 244.859L313.813 220.722ZM307.94 249.747L312.423 216L335.865 243.564L366.781 220.817L354.963 260.066L373.938 297.978L340.939 281.475L320.904 308V276.735L279.938 266.51L307.94 249.747ZM268.327 413.332C268.789 413.727 269.046 414.31 269.027 414.917L268.463 432.755L286.377 416.146C287.049 415.524 288.058 415.437 288.826 415.936L302.112 424.563L296.186 408.491C295.849 407.58 296.217 406.558 297.057 406.07L313.97 396.236L290.557 393.5C290.055 393.441 289.594 393.195 289.266 392.81L274.603 375.591L275.915 396.178C275.982 397.234 275.215 398.159 274.165 398.29L253.679 400.829L268.327 413.332ZM316.854 394.559L319.506 394.869L319.591 395.281L317.284 396.623L313.97 396.236L316.854 394.559ZM267.028 414.853L248.927 399.403L273.919 396.305L272.224 369.713L290.789 391.513L320.167 394.946L298.062 407.799L306.071 429.519L287.737 417.613L266.313 437.477L267.028 414.853ZM205.146 305.119L220.069 332.016C220.336 332.496 220.393 333.064 220.228 333.588L212.122 359.285L244.776 353.203C245.884 352.997 246.943 353.745 247.118 354.857L251.647 383.555L272.483 360.519C272.989 359.959 273.768 359.732 274.497 359.933L306.029 368.616L296.858 344.133C296.554 343.32 296.808 342.405 297.487 341.865L317.948 325.615L291.445 315.482C290.441 315.098 289.92 313.989 290.265 312.971L301.09 281.044L265.6 288.021C265.028 288.133 264.436 287.99 263.978 287.63L236.65 266.119V299.856C236.65 300.876 235.882 301.733 234.869 301.844L205.146 305.119ZM245.509 357.135L245.446 357.091L245.143 355.169L243.23 355.525L243.167 355.481L243.176 355.535L209.213 361.861L218.32 332.986L201.938 303.46L234.65 299.856V262L265.215 286.058L304.093 278.415L292.159 313.614L321.938 325L298.731 343.431L309.277 371.585L273.966 361.861L250.323 388L245.454 357.145L245.509 357.135Z" fill="#E74B33"/></g></g></g><g id="Book"><path id="Combined Shape" fill-rule="evenodd" clip-rule="evenodd" d="M315.613 288.625L257.039 270.146V368.466L315.613 386.944V288.625ZM359.02 313.581C341.373 308.984 357.707 351.253 363.824 365.228L366.757 372.913L352.017 378.759L326.072 386.944V288.624L384.646 270.146L384.509 294.015C382.103 294.906 380.797 295.756 380.797 295.756C371.579 308.073 376.72 346.82 376.72 346.82C376.72 346.82 363.634 314.782 359.02 313.581Z" fill="#94C0E9"/><path id="Fill 10" fill-rule="evenodd" clip-rule="evenodd" d="M326.072 386.943C326.072 386.943 324.061 388.371 320.553 388.371C317.533 388.371 315.613 386.943 315.613 386.943V288.624C315.613 288.624 319.591 289.682 320.753 289.682C322.206 289.682 326.072 288.624 326.072 288.624V386.943Z" fill="#3973B0"/><path id="Stroke 14 (Stroke)" fill-rule="evenodd" clip-rule="evenodd" d="M277.422 262.569C277.718 262.102 278.335 261.964 278.802 262.26L322.288 289.838C322.729 290.117 322.88 290.689 322.636 291.15C322.392 291.612 321.833 291.807 321.354 291.6L266.182 267.674C265.676 267.454 265.443 266.865 265.663 266.358C265.883 265.852 266.472 265.619 266.978 265.839L310.411 284.674L277.731 263.949C277.264 263.653 277.126 263.035 277.422 262.569Z" fill="white"/><path id="Stroke 16 (Stroke)" fill-rule="evenodd" clip-rule="evenodd" d="M365.446 262.569C365.742 263.035 365.603 263.653 365.137 263.949L332.456 284.674L375.89 265.839C376.396 265.619 376.985 265.852 377.205 266.358C377.425 266.865 377.192 267.454 376.685 267.674L321.512 291.6C321.033 291.807 320.475 291.612 320.231 291.15C319.986 290.689 320.138 290.117 320.579 289.838L364.066 262.26C364.532 261.964 365.15 262.102 365.446 262.569Z" fill="white"/></g><path id="Skin Shadows" fill-rule="evenodd" clip-rule="evenodd" d="M400.187 291.251C397.505 290.828 395.277 291.859 393.541 293.788C392.713 294.709 392.163 295.626 391.867 296.287C391.591 296.74 391.224 297.539 390.866 298.693C390.845 298.76 390.825 298.827 390.805 298.895L390.763 298.568C390.473 294.442 387.409 292.548 383.583 293.346C383.095 293.446 382.581 293.717 381.956 294.154C379.277 296.032 377.336 298.846 376.434 302.085C373.631 312.137 372.565 325.398 374.582 338.574L366.758 322.924C366.76 322.917 366.695 322.76 366.602 322.544C366.448 322.189 366.267 321.795 366.06 321.372C365.468 320.161 364.782 318.95 364.007 317.815C361.038 313.465 357.572 311.305 353.724 312.879C350.51 314.194 349.674 318.631 350.358 325.267C350.788 329.434 351.728 333.76 352.825 337.749C353.694 340.911 355.695 346.648 358.523 354.244C358.714 354.757 358.908 355.277 359.105 355.804C360.576 359.729 362.151 363.846 363.726 367.905C364.278 369.326 364.789 370.637 365.249 371.809L365.468 372.367L365.676 372.896L365.827 373.279C366.03 373.793 366.611 374.045 367.124 373.842C367.638 373.639 367.89 373.058 367.687 372.544L367.537 372.163C367.414 371.851 367.271 371.489 367.111 371.079C366.652 369.909 366.141 368.6 365.591 367.181C364.018 363.129 362.446 359.019 360.978 355.102C360.782 354.577 360.588 354.058 360.397 353.546C357.59 346.006 355.602 340.304 354.753 337.219C353.684 333.327 352.764 329.095 352.348 325.062C351.753 319.295 352.457 315.559 354.482 314.73C357.192 313.622 359.856 315.281 362.355 318.942C363.071 319.991 363.71 321.121 364.263 322.25C364.456 322.646 364.625 323.012 364.767 323.34C364.851 323.533 364.907 323.669 364.933 323.736L376.114 346.113C376.648 347.18 378.265 346.585 377.98 345.427C374.259 330.334 375.123 314.235 378.36 302.621C379.14 299.821 380.811 297.399 383.103 295.793C383.52 295.501 383.832 295.337 383.988 295.305C386.709 294.737 388.57 295.888 388.773 298.764L389.964 308.129C390.02 308.946 390.105 309.792 390.221 310.667C390.238 310.789 390.275 310.903 390.33 311.005L394.456 343.455C394.526 344.003 395.026 344.391 395.574 344.321C396.122 344.251 396.51 343.751 396.44 343.203L391.957 307.953C391.724 304.474 392.061 301.593 392.777 299.285C392.966 298.672 393.168 298.156 393.367 297.734C393.479 297.496 393.561 297.349 393.596 297.293L393.671 297.152C393.718 297.044 393.825 296.829 393.993 296.544C394.278 296.06 394.623 295.575 395.028 295.126C396.348 293.659 397.941 292.922 399.876 293.227C400.596 293.34 401.662 295.06 402.616 297.756C403.008 298.862 403.36 300.053 403.666 301.246C403.773 301.663 403.867 302.051 403.946 302.398C403.991 302.597 404.023 302.74 404.039 302.817L404.044 302.839L404.047 302.854L404.053 302.877L404.056 302.89C404.067 302.931 404.081 302.97 404.097 303.008C404.168 303.189 404.305 303.571 404.499 304.17C404.835 305.211 405.211 306.513 405.618 308.092C406.784 312.625 407.952 318.462 409.044 325.732C409.818 330.893 410.526 336.603 411.152 342.886C411.206 343.436 411.696 343.837 412.246 343.782C412.795 343.727 413.196 343.237 413.142 342.688C412.513 336.372 411.801 330.63 411.021 325.435C409.92 318.099 408.738 312.195 407.555 307.594C407.138 305.976 406.751 304.635 406.402 303.555C406.314 303.284 406.237 303.052 406.17 302.857C408.462 300.503 410.31 300.164 411.918 301.549C412.483 302.035 413.094 302.815 413.709 303.8C414.13 304.474 414.526 305.201 414.884 305.929C415.099 306.365 415.252 306.701 415.331 306.887L415.377 306.981C415.454 307.12 415.604 307.401 415.816 307.821C416.174 308.527 416.573 309.358 417.004 310.31C418.238 313.036 419.473 316.171 420.627 319.668C424.302 330.809 426.324 342.965 425.83 355.642C425.189 372.119 420.311 388.147 410.327 403.254C407.554 407.45 404.398 411.553 400.846 415.554C400.761 415.642 400.545 415.866 400.225 416.192C399.69 416.738 399.059 417.371 398.336 418.085C396.267 420.128 393.875 422.405 391.192 424.858C383.524 431.868 375.062 438.878 366.053 445.419C362.205 448.214 358.329 450.867 354.439 453.357C353.973 453.654 353.838 454.273 354.135 454.738C354.433 455.203 355.052 455.339 355.517 455.041C359.441 452.529 363.349 449.854 367.229 447.037C376.302 440.449 384.821 433.392 392.541 426.334C395.244 423.864 397.654 421.569 399.741 419.509C400.472 418.787 401.111 418.145 401.653 417.592C401.98 417.259 402.203 417.028 402.318 416.908C405.956 412.81 409.17 408.632 411.996 404.356C422.187 388.935 427.173 372.552 427.829 355.72C428.332 342.785 426.271 330.396 422.526 319.042C421.35 315.475 420.088 312.274 418.826 309.485C418.383 308.507 417.971 307.649 417.6 306.917C417.47 306.66 417.354 306.436 417.253 306.247C417.209 306.164 417.175 306.1 417.15 306.055C417.124 305.995 417.086 305.911 417.038 305.804C416.934 305.575 416.813 305.32 416.679 305.046C416.293 304.262 415.865 303.478 415.406 302.741C414.694 301.599 413.968 300.675 413.223 300.033C410.932 298.061 408.276 298.341 405.582 300.668C405.267 299.449 404.906 298.232 404.501 297.088C403.282 293.644 401.974 291.533 400.187 291.251ZM475.289 604.732C474.739 604.787 474.339 605.278 474.394 605.827L474.409 605.967L474.422 606.09L474.447 606.331C474.49 606.739 474.541 607.213 474.6 607.746C474.769 609.268 474.967 610.964 475.192 612.791C475.837 618.01 476.576 623.23 477.398 628.105C478.393 634.012 479.437 638.978 480.527 642.749L482.576 652.846C482.644 653.163 482.649 653.186 482.675 653.313C482.749 653.678 482.801 653.982 482.832 654.264C482.909 654.958 482.836 655.348 482.783 655.383C480.425 656.91 477.136 656.168 473.132 651.446C470.299 648.104 467.415 640.363 464.671 629.656C463.321 624.388 462.09 618.739 461.003 613.089C460.622 611.112 460.287 609.275 460 607.628C459.9 607.051 459.813 606.54 459.739 606.1C459.695 605.836 459.666 605.655 459.651 605.563C459.499 604.616 458.231 604.405 457.781 605.251C453.473 613.345 449.566 617.855 446.336 619.774C445.224 620.434 443.87 620.414 442.933 619.713C440.734 618.066 441.367 613.307 447.043 603.267C453.158 592.449 454.918 588.343 454.342 587.225C454.211 586.969 453.987 586.78 453.718 586.699C453.189 586.539 452.631 586.839 452.472 587.367C452.416 587.553 452.417 587.742 452.464 587.917C452.46 587.935 452.456 587.957 452.451 587.98C452.447 587.996 452.443 588.013 452.439 588.031C452.346 588.422 452.122 589.051 451.74 589.943C450.678 592.42 448.61 596.431 445.302 602.283C439.179 613.114 438.418 618.83 441.735 621.314C443.346 622.519 445.574 622.553 447.357 621.494C450.561 619.589 454.22 615.554 458.158 608.702C458.417 610.167 458.712 611.765 459.039 613.467C460.133 619.154 461.373 624.84 462.734 630.152C465.555 641.161 468.505 649.081 471.607 652.74C476.223 658.184 480.609 659.173 483.87 657.061C484.78 656.472 484.975 655.436 484.82 654.043C484.781 653.692 484.72 653.334 484.635 652.915C484.619 652.836 484.611 652.795 484.594 652.716C484.581 652.655 484.563 652.574 484.534 652.438L484.005 649.832C486.315 652.576 489.184 654.068 492.583 653.548C494.584 653.244 495.537 651.769 495.454 648.492C495.451 648.376 495.443 648.243 495.429 648.092C497.652 650.135 500.34 650.615 503.254 648.634L503.398 648.514C503.596 648.317 503.863 647.992 504.127 647.559C504.445 647.036 504.679 646.473 504.788 645.873C504.877 645.385 504.708 643.91 504.228 640.453C504.047 639.148 503.403 634.673 503.026 632.05C502.888 631.093 502.786 630.382 502.754 630.163C502.657 629.476 502.564 628.824 502.476 628.194C501.585 621.847 501.034 617.398 500.813 614.473C500.772 613.922 500.292 613.509 499.741 613.551C499.19 613.592 498.778 614.072 498.819 614.623C499.043 617.605 499.598 622.083 500.495 628.472C500.584 629.103 500.676 629.757 500.774 630.445C500.805 630.662 500.905 631.357 501.04 632.294L501.046 632.334C501.423 634.957 502.066 639.427 502.247 640.728C502.642 643.573 502.847 645.367 502.82 645.516C502.759 645.851 502.618 646.191 502.419 646.519C502.278 646.75 502.139 646.93 502.042 647.038C499.737 648.558 497.802 647.932 496.028 645.827C495.626 645.35 495.271 644.834 494.969 644.318C494.842 644.1 494.745 643.919 494.68 643.79C494.612 643.456 494.539 643.104 494.462 642.732C494.357 642.226 494.032 640.695 493.664 638.962L493.658 638.934C493.181 636.691 492.635 634.118 492.401 632.991C492.119 631.637 491.864 630.381 491.626 629.179C490.171 621.838 489.388 616.577 489.388 613.367C489.388 612.815 488.941 612.367 488.388 612.367C487.836 612.367 487.388 612.815 487.388 613.367C487.388 616.752 488.184 622.098 489.664 629.568C489.903 630.776 490.16 632.038 490.443 633.398C490.679 634.537 491.232 637.141 491.711 639.395C492.077 641.119 492.4 642.638 492.504 643.139L492.571 643.461L492.628 643.742C492.655 643.874 492.682 644.003 492.708 644.129C492.713 644.223 492.731 644.317 492.764 644.408C493.217 646.653 493.44 647.979 493.455 648.542C493.514 650.9 493.168 651.436 492.282 651.571C489.648 651.974 487.385 650.777 485.468 648.463C484.868 647.738 484.35 646.958 483.918 646.178C483.661 645.714 483.492 645.359 483.414 645.17C483.099 644.323 482.786 643.36 482.475 642.29L482.322 641.54C482.294 641.398 482.236 641.27 482.158 641.159C481.201 637.627 480.266 633.088 479.37 627.773C478.554 622.93 477.819 617.738 477.177 612.545C476.952 610.728 476.756 609.04 476.588 607.526C476.529 606.996 476.478 606.526 476.436 606.121C476.41 605.878 476.393 605.712 476.384 605.626C476.329 605.077 475.838 604.676 475.289 604.732ZM452.464 587.917C452.47 587.887 452.473 587.863 452.475 587.846C452.477 587.904 452.496 588.009 452.564 588.141C452.65 588.307 452.788 588.447 452.961 588.539C452.712 588.408 452.535 588.179 452.464 587.917ZM247.942 438.972C248.494 438.972 248.942 439.419 248.942 439.972C248.942 440.524 248.494 440.972 247.942 440.972C247.891 440.972 247.767 440.976 247.57 440.991C247.226 441.017 246.812 441.065 246.331 441.139C244.933 441.355 243.281 441.746 241.386 442.358C235.924 444.12 229.631 447.302 222.599 452.265C222.148 452.584 221.524 452.476 221.206 452.025C220.887 451.574 220.995 450.95 221.446 450.632C228.64 445.553 235.115 442.279 240.772 440.454C242.768 439.811 244.523 439.395 246.025 439.163C246.946 439.02 247.589 438.972 247.942 438.972ZM356.694 396.718C356.643 397.268 357.047 397.755 357.597 397.806L364.317 398.435C364.867 398.487 365.354 398.083 365.406 397.533C365.457 396.983 365.053 396.496 364.503 396.444L357.783 395.815C357.233 395.764 356.746 396.168 356.694 396.718Z" fill="#371D0A"/></g></g></g></g></svg>