<svg viewBox="0 0 999.9999999999998 999.9999999999998" fill="none" xmlns="http://www.w3.org/2000/svg" xmlns:xlink="http://www.w3.org/1999/xlink" overflow="visible" width="999.9999999999998px" height="999.9999999999998px"><g id="Master/Stickers/Arrow"><rect width="1000" height="1000" fill="white"/><path id="Vector" d="M236.519 632.324C235.472 613.637 235.472 594.724 241.759 577.237C248.121 559.675 403.802 430.887 421.914 433.889C441.225 437.116 506.865 524.776 506.865 524.776L622.952 397.039C622.952 397.039 549.827 343.077 559.408 339.85C568.988 336.623 752.063 279.584 761.643 311.856C771.298 344.053 748.994 529.579 736.195 513.443C723.396 497.307 665.465 449.425 665.465 449.425C665.465 449.425 525.727 652.138 509.635 655.365C493.543 658.592 417.948 558.999 417.948 558.999C379.402 606.807 247.223 787.605 237.118 642.982C236.894 639.454 236.594 635.852 236.445 632.249L236.519 632.324Z" fill="#CA7A8C"/></g></svg>