<svg viewBox="362.5 325 275.0000000000002 349.9999999999998" fill="none" xmlns="http://www.w3.org/2000/svg" xmlns:xlink="http://www.w3.org/1999/xlink" overflow="visible" width="275.0000000000002px" height="349.9999999999998px"><g id="Master/Stickers/Email Open"><g id="Group 25"><path id="Path 21" fill-rule="evenodd" clip-rule="evenodd" d="M369 453.23V664.955L631.365 608.354V405L369 453.23Z" fill="#E3D4C5"/><path id="Path 23" fill-rule="evenodd" clip-rule="evenodd" d="M407 372.818V478.334L526.443 548.475L597.738 453.5V336L407 372.818Z" fill="#E8E8E8"/><path id="Path 22 (Stroke)" fill-rule="evenodd" clip-rule="evenodd" d="M628.091 420.122L527.975 552.115L373.051 461.344L375.073 457.893L526.934 546.869L624.904 417.705L628.091 420.122Z" fill="#CDB1AA"/><path id="Path 24 (Stroke)" fill-rule="evenodd" clip-rule="evenodd" d="M575.216 462.553L445.617 485.149L445.102 482.193L574.701 459.598L575.216 462.553Z" fill="#C1C1C1"/><path id="Path 24 (Stroke)_2" fill-rule="evenodd" clip-rule="evenodd" d="M575.216 432.553L445.617 455.149L445.102 452.193L574.701 429.598L575.216 432.553Z" fill="#C1C1C1"/><path id="Path 24 (Stroke)_3" fill-rule="evenodd" clip-rule="evenodd" d="M575.216 402.553L445.617 425.149L445.102 422.193L574.701 399.598L575.216 402.553Z" fill="#C1C1C1"/></g></g></svg>