<svg viewBox="105.70512820512818 62.25 435.25641025641033 522.8999999999999" fill="none" xmlns="http://www.w3.org/2000/svg" xmlns:xlink="http://www.w3.org/1999/xlink" overflow="visible" width="435.25641025641033px" height="522.8999999999999px"><g id="Master/Character/Bust"><g id="Hairstyle" transform="translate(210.939 86) scale(0.9953051643192489 1)"><g id="Hairstyle/Turban"><g id="Turban"><path id="Skin" fill-rule="evenodd" clip-rule="evenodd" d="M173.264 103.444C172.402 103.498 171.671 102.831 171.688 101.968C171.693 101.724 171.696 101.479 171.696 101.235C171.696 73.567 144.285 51.139 110.473 51.139C76.6604 51.139 49.2495 73.567 49.2495 101.235C49.2495 101.495 49.2525 101.755 49.2575 102.015C49.2755 102.888 48.5295 103.563 47.6605 103.482C47.1675 103.436 46.6665 103.412 46.1595 103.412C38.3065 103.412 31.9395 108.76 31.9395 115.356C31.9395 121.953 38.3065 127.301 46.1595 127.301C49.3455 127.301 52.2805 126.415 54.6495 124.926C55.3905 124.46 56.3485 124.653 56.8375 125.379C65.0825 137.616 79.3905 146.726 96.4565 149.999C97.9295 150.281 98.9605 151.615 98.8745 153.113L97.2535 182H123.692L122.07 153.113C121.985 151.615 123.017 150.281 124.49 149.998C141.458 146.745 155.701 137.721 163.968 125.589C164.443 124.891 165.361 124.681 166.086 125.111C168.4 126.487 171.218 127.301 174.268 127.301C182.121 127.301 188.487 121.953 188.487 115.356C188.487 108.76 182.121 103.412 174.268 103.412C173.93 103.412 173.595 103.424 173.264 103.444Z" fill="#583318"/><path id="Hair" fill-rule="evenodd" clip-rule="evenodd" d="M49.2581 102.014C49.2581 102.014 94.9991 93.4515 98.1331 63.9035C98.1331 63.9035 109.058 99.5645 171.689 101.967C171.689 101.967 174.002 82.8685 161.148 66.7375C148.294 50.6065 119.057 44.0535 95.1131 46.8265C68.2291 49.9395 46.2171 80.3475 49.2581 102.014" fill="#010101"/><g id="Turban_2"><path id="Mask" fill-rule="evenodd" clip-rule="evenodd" d="M121.221 44.6165C128.832 38.0886 133.547 29.0298 133.547 19.0165C133.547 -0.875502 114.942 -16.9995 91.9906 -16.9995C69.0386 -16.9995 50.4336 -0.875502 50.4336 19.0165C50.4336 33.4068 60.1714 45.8261 74.248 51.5944C49.6666 65.4413 49.1406 94.5565 49.1406 94.5565L127.827 70.9725L171.689 101.967C171.689 101.967 181.909 49.9423 121.221 44.6165Z" fill="#5BA092"/><g id="Object"><mask id="mask0_413_84531f35a82cd-3492-40cb-b0ba-1a7ca99bfe77" style="mask-type:alpha" maskUnits="userSpaceOnUse" x="49" y="-17" width="124" height="119" fill="#ffffff"><path id="Mask_2" fill-rule="evenodd" clip-rule="evenodd" d="M121.221 44.6165C128.832 38.0886 133.547 29.0298 133.547 19.0165C133.547 -0.875502 114.942 -16.9995 91.9906 -16.9995C69.0386 -16.9995 50.4336 -0.875502 50.4336 19.0165C50.4336 33.4068 60.1714 45.8261 74.248 51.5944C49.6666 65.4413 49.1406 94.5565 49.1406 94.5565L127.827 70.9725L171.689 101.967C171.689 101.967 181.909 49.9423 121.221 44.6165Z" fill="#ffffff"/></mask><g mask="url(#mask0_413_84531f35a82cd-3492-40cb-b0ba-1a7ca99bfe77)"><g id="Pattern"><path id="Pattern_2" fill-rule="evenodd" clip-rule="evenodd" d="M117.589 -57.4339C117.757 -56.064 116.899 -53.8777 115.53 -53.7099C114.161 -53.542 112.8 -55.4555 112.631 -56.8244C112.463 -58.1943 113.391 -59.818 114.76 -59.9858C116.129 -60.1537 117.422 -58.8028 117.589 -57.4339ZM146.501 -50.7123C147.869 -50.8801 148.727 -53.0664 148.56 -54.4363C148.392 -55.8052 147.099 -57.1561 145.73 -56.9882C144.361 -56.8204 143.434 -55.1967 143.601 -53.8268C143.77 -52.4579 145.131 -50.5444 146.501 -50.7123ZM232.637 -43.0617C233.74 -43.0617 234.635 -45.0201 234.635 -46.3281C234.635 -47.636 233.74 -49.0569 232.637 -49.0569C231.534 -49.0569 230.639 -47.636 230.639 -46.3281C230.639 -45.0201 231.534 -43.0617 232.637 -43.0617ZM20.4558 -35.4953C21.5587 -35.4953 22.4538 -37.4527 22.4538 -38.7616C22.4538 -40.0696 21.5587 -41.4904 20.4558 -41.4904C19.3528 -41.4904 18.4577 -40.0696 18.4577 -38.7616C18.4577 -37.4527 19.3528 -35.4953 20.4558 -35.4953ZM222.147 -21.9145C223.25 -21.9145 224.145 -23.872 224.145 -25.1809C224.145 -26.4889 223.25 -27.9097 222.147 -27.9097C221.044 -27.9097 220.149 -26.4889 220.149 -25.1809C220.149 -23.872 221.044 -21.9145 222.147 -21.9145ZM199.169 -21.459C200.549 -21.459 201.667 -19.9612 201.667 -18.5813C201.667 -17.2014 200.549 -15.1361 199.169 -15.1361C197.789 -15.1361 196.671 -17.2014 196.671 -18.5813C196.671 -19.9612 197.789 -21.459 199.169 -21.459ZM59.8036 57.3576C59.8036 58.7375 58.6856 60.8029 57.306 60.8029C55.9263 60.8029 54.8084 58.7375 54.8084 57.3576C54.8084 55.9777 55.9263 54.4799 57.306 54.4799C58.6856 54.4799 59.8036 55.9777 59.8036 57.3576ZM129.237 138.74C130.616 138.74 131.734 136.676 131.734 135.296C131.734 133.916 130.616 132.418 129.237 132.418C127.857 132.418 126.739 133.916 126.739 135.296C126.739 136.676 127.857 138.74 129.237 138.74ZM166.944 59.8039C165.566 59.8039 164.447 57.7385 164.447 56.3586C164.447 54.9787 165.566 53.4809 166.944 53.4809C168.324 53.4809 169.442 54.9787 169.442 56.3586C169.442 57.7385 168.324 59.8039 166.944 59.8039ZM25.0812 135.742C26.4608 135.742 27.5788 133.678 27.5788 132.298C27.5788 130.918 26.4608 129.42 25.0812 129.42C23.7025 129.42 22.5836 130.918 22.5836 132.298C22.5836 133.678 23.7025 135.742 25.0812 135.742ZM238.875 131.418C240.254 131.418 241.372 132.916 241.372 134.296C241.372 135.676 240.254 137.74 238.875 137.74C237.496 137.74 236.377 135.676 236.377 134.296C236.377 132.916 237.496 131.418 238.875 131.418ZM90.5463 -13.3799C91.9259 -13.3799 93.0439 -15.4452 93.0439 -16.8251C93.0439 -18.205 91.9259 -19.7028 90.5463 -19.7028C89.1666 -19.7028 88.0487 -18.205 88.0487 -16.8251C88.0487 -15.4452 89.1666 -13.3799 90.5463 -13.3799ZM35.8438 -10.8299C35.8438 -9.45002 34.7249 -7.38468 33.3462 -7.38468C31.9665 -7.38468 30.8486 -9.45002 30.8486 -10.8299C30.8486 -12.2098 31.9665 -13.7076 33.3462 -13.7076C34.7249 -13.7076 35.8438 -12.2098 35.8438 -10.8299ZM82.2819 50.7582C82.2819 52.0672 81.3867 54.0246 80.2838 54.0246C79.1808 54.0246 78.2857 52.0672 78.2857 50.7582C78.2857 49.4503 79.1808 48.0294 80.2838 48.0294C81.3867 48.0294 82.2819 49.4503 82.2819 50.7582ZM154.212 128.696C154.212 130.004 153.317 131.962 152.214 131.962C151.111 131.962 150.216 130.004 150.216 128.696C150.216 127.388 151.111 125.967 152.214 125.967C153.317 125.967 154.212 127.388 154.212 128.696ZM189.922 53.0254C191.026 53.0254 191.92 51.068 191.92 49.759C191.92 48.4511 191.026 47.0302 189.922 47.0302C188.819 47.0302 187.924 48.4511 187.924 49.759C187.924 51.068 188.819 53.0254 189.922 53.0254ZM50.0571 125.698C50.0571 127.006 49.1629 128.965 48.059 128.965C46.9561 128.965 46.0609 127.006 46.0609 125.698C46.0609 124.39 46.9561 122.969 48.059 122.969C49.1629 122.969 50.0571 124.39 50.0571 125.698ZM261.853 124.968C260.75 124.968 259.855 126.389 259.855 127.697C259.855 129.005 260.75 130.963 261.853 130.963C262.957 130.963 263.851 129.005 263.851 127.697C263.851 126.389 262.957 124.968 261.853 124.968ZM115.522 -23.4245C115.522 -22.1166 114.627 -20.1581 113.524 -20.1581C112.421 -20.1581 111.526 -22.1166 111.526 -23.4245C111.526 -24.7325 112.421 -26.1533 113.524 -26.1533C114.627 -26.1533 115.522 -24.7325 115.522 -23.4245ZM92.7717 29.6111C92.7717 30.919 91.8766 32.8774 90.7737 32.8774C89.6707 32.8774 88.7756 30.919 88.7756 29.6111C88.7756 28.3031 89.6707 26.8823 90.7737 26.8823C91.8766 26.8823 92.7717 28.3031 92.7717 29.6111ZM160.706 107.549C160.706 108.857 161.601 110.815 162.704 110.815C163.807 110.815 164.702 108.857 164.702 107.549C164.702 106.24 163.807 104.82 162.704 104.82C161.601 104.82 160.706 106.24 160.706 107.549ZM198.414 28.6119C198.414 27.3039 199.309 25.8831 200.412 25.8831C201.516 25.8831 202.41 27.3039 202.41 28.6119C202.41 29.9198 201.516 31.8783 200.412 31.8783C199.309 31.8783 198.414 29.9198 198.414 28.6119ZM58.5489 107.817C59.6528 107.817 60.5469 105.859 60.5469 104.551C60.5469 103.243 59.6528 101.822 58.5489 101.822C57.4459 101.822 56.5508 103.243 56.5508 104.551C56.5508 105.859 57.4459 107.817 58.5489 107.817ZM14.9356 120.729C14.9356 122.037 14.0415 123.995 12.9375 123.995C11.8346 123.995 10.9395 122.037 10.9395 120.729C10.9395 119.421 11.8346 118 12.9375 118C14.0415 118 14.9356 119.421 14.9356 120.729ZM2.87561 60.3442C2.87561 61.6522 3.76975 63.6106 4.87368 63.6106C5.97662 63.6106 6.87176 61.6522 6.87176 60.3442C6.87176 59.0363 5.97662 57.6154 4.87368 57.6154C3.76975 57.6154 2.87561 59.0363 2.87561 60.3442ZM126.012 -44.5717C126.012 -43.2637 125.117 -41.3053 124.014 -41.3053C122.911 -41.3053 122.016 -43.2637 122.016 -44.5717C122.016 -45.8796 122.911 -47.3005 124.014 -47.3005C125.117 -47.3005 126.012 -45.8796 126.012 -44.5717ZM234.217 5.03696C235.513 4.56535 235.859 2.24221 235.386 0.945244C234.915 -0.350716 233.351 -1.3759 232.055 -0.904274C230.759 -0.432652 230.221 1.35791 230.693 2.65487C231.164 3.95084 232.921 5.50859 234.217 5.03696ZM92.3538 80.9759C91.0581 81.4475 89.3008 79.8898 88.8292 78.5938C88.3577 77.2969 88.8952 75.5063 90.1919 75.0347C91.4887 74.563 93.0512 75.5882 93.5227 76.8852C93.9952 78.1812 93.6506 80.5043 92.3538 80.9759ZM162.123 152.973C160.826 153.444 160.288 155.235 160.76 156.532C161.232 157.827 162.989 159.385 164.285 158.914C165.58 158.442 165.926 156.118 165.453 154.823C164.982 153.526 163.418 152.5 162.123 152.973ZM203.162 75.8852C203.633 77.1821 203.289 79.5053 201.993 79.9769C200.697 80.4485 198.94 78.8908 198.468 77.5948C197.997 76.2979 198.534 74.5073 199.83 74.0357C201.127 73.564 202.69 74.5892 203.162 75.8852ZM56.6049 153.534C57.0765 154.83 58.8338 156.387 60.1295 155.917C61.4263 155.444 61.77 153.121 61.2984 151.825C60.8269 150.528 59.2634 149.503 57.9676 149.975C56.6709 150.446 56.1334 152.237 56.6049 153.534ZM126.763 2.70164C127.236 3.9986 126.89 6.32174 125.595 6.79336C124.299 7.26498 122.541 5.70723 122.07 4.41027C121.598 3.11431 122.137 1.32374 123.433 0.852119C124.728 0.380497 126.292 1.40568 126.763 2.70164ZM249.536 13.7444C249.704 15.1143 251.065 17.0278 252.434 16.8589C253.804 16.691 254.662 14.5048 254.493 13.1359C254.325 11.767 253.033 10.4151 251.664 10.5829C250.295 10.7518 249.368 12.3745 249.536 13.7444ZM110.571 92.798C109.202 92.9669 107.841 91.0534 107.673 89.6835C107.505 88.3136 108.432 86.6909 109.801 86.5221C111.169 86.3542 112.462 87.7061 112.63 89.075C112.799 90.4439 111.941 92.6302 110.571 92.798ZM217.311 88.6843C217.479 90.0542 218.841 91.9677 220.21 91.7988C221.579 91.631 222.437 89.4447 222.269 88.0758C222.1 86.7069 220.809 85.355 219.439 85.5229C218.07 85.6917 217.143 87.3144 217.311 88.6843ZM143.041 12.3399C144.411 12.171 145.703 13.522 145.871 14.8919C146.039 16.2608 145.181 18.447 143.811 18.6159C142.443 18.7837 141.081 16.8693 140.913 15.5004C140.745 14.1315 141.672 12.5078 143.041 12.3399ZM222.898 22.4718C224.268 22.3039 225.125 20.1177 224.959 18.7478C224.79 17.3789 223.497 16.028 222.128 16.1958C220.759 16.3637 219.831 17.9874 220 19.3563C220.168 20.7262 221.529 22.6397 222.898 22.4718ZM80.2647 92.1349C81.6344 91.967 82.9271 93.3179 83.095 94.6868C83.2628 96.0567 82.4046 98.243 81.035 98.4108C79.6663 98.5787 78.3046 96.6652 78.1368 95.2953C77.9689 93.9264 78.896 92.3027 80.2647 92.1349ZM192.733 93.6877C192.901 95.0576 192.043 97.2439 190.674 97.4117C189.305 97.5796 187.944 95.6661 187.776 94.2962C187.607 92.9273 188.534 91.3036 189.904 91.1358C191.273 90.9679 192.565 92.3188 192.733 93.6877ZM114.276 24.2277C115.646 24.0598 116.503 21.8736 116.336 20.5037C116.167 19.1348 114.874 17.7838 113.506 17.9517C112.136 18.1196 111.209 19.7433 111.378 21.1132C111.546 22.4821 112.906 24.3955 114.276 24.2277ZM193.988 15.7502C194.155 17.1201 193.298 19.3063 191.928 19.4742C190.559 19.6421 189.198 17.7286 189.03 16.3587C188.861 14.9898 189.788 13.3661 191.158 13.1982C192.527 13.0304 193.82 14.3813 193.988 15.7502ZM50.0654 95.4133C51.435 95.2455 52.2922 93.0592 52.1244 91.6893C51.9565 90.3204 50.6638 88.9695 49.2951 89.1374C47.9254 89.3052 46.9983 90.9289 47.1672 92.2978C47.335 93.6677 48.6957 95.5812 50.0654 95.4133ZM-1.55031 47.482C-1.38347 48.8519 -2.24065 51.0382 -3.61032 51.2061C-4.979 51.3739 -6.34069 49.4605 -6.50853 48.0916C-6.67736 46.7216 -5.75026 45.098 -4.38058 44.9301C-3.0119 44.7622 -1.71915 46.1131 -1.55031 47.482ZM260.96 94.2965C261.128 95.6664 262.49 97.5799 263.859 97.412C265.228 97.2432 266.086 95.0569 265.919 93.688C265.75 92.3191 264.457 90.9672 263.088 91.1351C261.72 91.3039 260.793 92.9276 260.96 94.2965ZM159.704 94.4141C161.073 94.2463 161.931 92.06 161.763 90.6901C161.595 89.3212 160.303 87.9703 158.934 88.1382C157.564 88.306 156.637 89.9297 156.806 91.2986C156.974 92.6685 158.334 94.582 159.704 94.4141ZM85.3658 17.5061C85.5326 18.876 84.6754 21.0622 83.3058 21.2301C81.9361 21.3979 80.5754 19.4845 80.4076 18.1156C80.2387 16.7457 81.1658 15.122 82.5355 14.9541C83.9042 14.7862 85.1969 16.1372 85.3658 17.5061ZM26.1056 27.2253C27.4743 27.0574 28.3324 24.8712 28.1646 23.5013C27.9968 22.1324 26.704 20.7814 25.3353 20.9493C23.9657 21.1172 23.0385 22.7409 23.2074 24.1108C23.3752 25.4797 24.7359 27.3932 26.1056 27.2253ZM184.935 -6.50469C183.566 -6.33682 182.204 -8.25029 182.037 -9.62019C181.869 -10.9891 182.796 -12.6128 184.165 -12.7817C185.533 -12.9495 186.826 -11.5976 186.995 -10.2287C187.163 -8.8598 186.304 -6.67355 184.935 -6.50469ZM43.0721 69.4342C44.4418 69.2663 45.299 67.08 45.1311 65.7101C44.9633 64.3412 43.6705 62.9903 42.3018 63.1582C40.9322 63.326 40.0051 64.9497 40.1739 66.3186C40.3417 67.6886 41.7024 69.602 43.0721 69.4342ZM256.095 65.1565C257.465 64.9886 258.757 66.3395 258.925 67.7084C259.093 69.0783 258.235 71.2646 256.865 71.4324C255.497 71.6003 254.136 69.6869 253.967 68.317C253.799 66.948 254.726 65.3243 256.095 65.1565ZM115.003 147.372C116.372 147.203 117.23 145.018 117.063 143.648C116.894 142.278 115.601 140.928 114.232 141.096C112.863 141.264 111.936 142.887 112.104 144.257C112.272 145.626 113.633 147.54 115.003 147.372ZM152.711 68.4353C151.342 68.6031 149.98 66.6897 149.812 65.3197C149.645 63.9508 150.572 62.3271 151.94 62.1583C153.309 61.9904 154.602 63.3423 154.77 64.7112C154.938 66.0801 154.079 68.2664 152.711 68.4353ZM12.9069 140.65C12.7391 139.281 11.4463 137.93 10.0767 138.098C8.70798 138.265 7.78088 139.889 7.94971 141.259C8.11755 142.628 9.47824 144.542 10.8479 144.374C12.2166 144.206 13.0748 142.019 12.9069 140.65ZM226.7 142.648C226.868 144.018 226.01 146.204 224.641 146.372C223.272 146.54 221.911 144.627 221.743 143.258C221.574 141.888 222.501 140.264 223.871 140.097C225.24 139.929 226.533 141.279 226.7 142.648ZM73.4139 -7.8638C73.5818 -6.49389 74.9434 -4.58043 76.3121 -4.74929C77.6818 -4.91716 78.54 -7.1034 78.3721 -8.47231C78.2033 -9.84221 76.9105 -11.1931 75.5419 -11.0253C74.1732 -10.8574 73.2461 -9.2337 73.4139 -7.8638ZM19.1119 1.2459C17.7433 1.41477 16.3816 -0.498699 16.2137 -1.8686C16.0459 -3.2385 16.973 -4.8622 18.3417 -5.03007C19.7104 -5.19793 21.0031 -3.84702 21.171 -2.47711C21.3398 -1.10821 20.4806 1.07804 19.1119 1.2459ZM203.919 -35.5467C204.824 -36.5879 203.999 -38.7871 202.958 -39.6914C201.917 -40.5967 200.053 -40.7365 199.148 -39.6954C198.243 -38.6532 198.64 -36.8267 199.681 -35.9214C200.722 -35.0161 203.014 -34.5055 203.919 -35.5467ZM61.0951 36.2477C62.1361 37.152 62.9613 39.3513 62.0562 40.3924C61.1511 41.4336 58.8593 40.923 57.8183 40.0177C56.7773 39.1124 56.3797 37.2859 57.2848 36.2438C58.1899 35.2026 60.0541 35.3425 61.0951 36.2477ZM2.22818 -49.1274C3.1333 -50.1686 2.3081 -52.3678 1.26711 -53.2721C0.226109 -54.1774 -1.63809 -54.3173 -2.54322 -53.2761C-3.44834 -52.2339 -3.05073 -50.4074 -2.00973 -49.5021C-0.968737 -48.5969 1.32305 -48.0863 2.22818 -49.1274ZM133.026 114.185C134.067 115.09 134.892 117.288 133.987 118.33C133.082 119.371 130.79 118.86 129.749 117.955C128.708 117.05 128.31 115.223 129.215 114.182C130.12 113.141 131.985 113.28 133.026 114.185ZM166.924 35.2448C166.019 36.2859 166.416 38.1135 167.457 39.0187C168.498 39.924 170.79 40.4346 171.694 39.3934C172.6 38.3523 171.775 36.153 170.734 35.2477C169.693 34.3435 167.829 34.2036 166.924 35.2448ZM25.5942 114.957C24.5532 114.053 24.1556 112.225 25.0607 111.184C25.9658 110.143 27.83 110.283 28.871 111.187C29.912 112.092 30.7372 114.29 29.8311 115.333C28.927 116.373 26.6352 115.863 25.5942 114.957ZM13.4432 91.7294C12.5381 92.7706 12.9357 94.5981 13.9767 95.5024C15.0177 96.4086 17.3095 96.9182 18.2146 95.8771C19.1197 94.8359 18.2945 92.6376 17.2535 91.7324C16.2125 90.8271 14.3483 90.6882 13.4432 91.7294ZM239.388 116.955C238.347 116.051 237.949 114.223 238.854 113.182C239.759 112.141 241.624 112.281 242.665 113.185C243.706 114.091 244.531 116.289 243.625 117.331C242.721 118.371 240.429 117.862 239.388 116.955ZM95.2966 -33.7903C96.2017 -34.8315 95.3765 -37.0307 94.3355 -37.936C93.2945 -38.8413 91.4303 -38.9802 90.5252 -37.939C89.6201 -36.8978 90.0177 -35.0703 91.0587 -34.165C92.0997 -33.2597 94.3915 -32.7492 95.2966 -33.7903ZM37.1353 -31.9408C38.1763 -31.0355 39.0015 -28.8363 38.0964 -27.7951C37.1913 -26.754 34.8995 -27.2645 33.8585 -28.1698C32.8175 -29.0751 32.4199 -30.9026 33.325 -31.9438C34.2301 -32.985 36.0943 -32.8461 37.1353 -31.9408ZM177.518 -24.7312C179.157 -24.5014 180.83 -26.7685 181.06 -28.4072C181.291 -30.0469 180.213 -32.0143 178.574 -32.2452C176.934 -32.475 175.355 -30.8812 175.125 -29.2416C174.895 -27.6029 175.878 -24.961 177.518 -24.7312ZM33.2614 46.6976C33.4922 45.0579 35.0706 43.4642 36.71 43.694C38.3495 43.9248 39.4284 45.8922 39.1976 47.5319C38.9669 49.1706 37.2935 51.4378 35.6541 51.208C34.0156 50.9781 33.0316 48.3363 33.2614 46.6976ZM250.504 45.6924C248.864 45.4626 247.286 47.0563 247.055 48.696C246.825 50.3347 247.809 52.9765 249.448 53.2064C251.087 53.4362 252.76 51.169 252.991 49.5303C253.222 47.8906 252.143 45.9232 250.504 45.6924ZM107.585 129.146C105.946 128.915 104.963 126.275 105.192 124.635C105.422 122.995 107.002 121.402 108.641 121.631C110.28 121.862 111.358 123.83 111.128 125.469C110.898 127.109 109.224 129.376 107.585 129.146ZM148.836 46.5325C149.066 44.8928 147.988 42.9254 146.349 42.6946C144.71 42.4648 143.131 44.0585 142.901 45.6982C142.67 47.3379 143.654 49.9787 145.294 50.2086C146.932 50.4394 148.606 48.1722 148.836 46.5325ZM-6.02717 128.026C-5.79639 126.386 -4.21792 124.792 -2.5785 125.022C-0.939083 125.252 0.138876 127.22 -0.0909023 128.86C-0.321679 130.499 -1.99506 132.767 -3.63448 132.537C-5.2739 132.305 -6.25795 129.664 -6.02717 128.026ZM214.831 123.636C214.6 125.275 215.584 127.915 217.224 128.147C218.863 128.377 220.537 126.11 220.766 124.47C220.997 122.83 219.918 120.863 218.28 120.632C216.64 120.402 215.061 121.996 214.831 123.636ZM72.4375 -26.6518C72.2077 -25.0122 70.5343 -22.745 68.8949 -22.9748C67.2555 -23.2056 66.2724 -25.8465 66.5022 -27.4862C66.732 -29.1249 68.3114 -30.7186 69.9509 -30.4888C71.5903 -30.2589 72.6682 -28.2905 72.4375 -26.6518ZM11.6947 -16.9796C13.3341 -16.7498 15.0075 -19.017 15.2373 -20.6566C15.4681 -22.2953 14.3891 -24.2637 12.7507 -24.4936C11.1113 -24.7234 9.53179 -23.1297 9.30201 -21.491C9.07123 -19.8513 10.0553 -17.2104 11.6947 -16.9796ZM167.724 -21.647C168.434 -20.465 168.54 -18.1179 167.357 -17.4074C166.175 -16.697 164.153 -17.8911 163.443 -19.0731C162.732 -20.2562 162.919 -22.1167 164.102 -22.8271C165.283 -23.5375 167.014 -22.8291 167.724 -21.647ZM21.5797 56.8655C22.29 58.0476 24.312 59.2416 25.4939 58.5312C26.6767 57.8218 26.5718 55.4746 25.8615 54.2926C25.1512 53.1095 23.4209 52.4011 22.238 53.1115C21.0562 53.823 20.8693 55.6825 21.5797 56.8655ZM239.287 60.5296C238.106 61.24 236.084 60.046 235.373 58.8639C234.663 57.6809 234.85 55.8214 236.032 55.1099C237.214 54.3995 238.945 55.1079 239.655 56.291C240.365 57.473 240.47 59.8202 239.287 60.5296ZM97.4249 136.469C98.6078 135.759 98.5019 133.412 97.7916 132.23C97.0813 131.047 95.3509 130.338 94.1691 131.05C92.9862 131.76 92.7994 133.62 93.5107 134.803C94.22 135.986 96.2421 137.18 97.4249 136.469ZM135.5 53.2929C136.211 54.4749 136.315 56.8221 135.133 57.5325C133.951 58.2429 131.928 57.0489 131.218 55.8668C130.508 54.6838 130.695 52.8233 131.877 52.1128C133.059 51.4024 134.789 52.1108 135.5 53.2929ZM-7.73041 155.704C-6.54755 154.994 -6.65245 152.647 -7.36277 151.465C-8.07408 150.281 -9.80441 149.573 -10.9863 150.284C-12.1681 150.995 -12.3549 152.854 -11.6446 154.037C-10.9353 155.221 -8.91227 156.415 -7.73041 155.704ZM203.148 133.804C202.438 132.621 202.625 130.761 203.808 130.051C204.989 129.339 206.72 130.048 207.43 131.231C208.14 132.413 208.245 134.76 207.063 135.47C205.882 136.181 203.858 134.986 203.148 133.804ZM1.53461 -9.65586C2.71647 -10.3663 2.61157 -12.7134 1.90125 -13.8955C1.19094 -15.0775 -0.53939 -15.7869 -1.72125 -15.0755C-2.90411 -14.3651 -3.09093 -12.5046 -2.38061 -11.3225C-1.6703 -10.1395 0.35175 -8.94543 1.53461 -9.65586ZM182.139 -49.1672C183.18 -48.2619 184.006 -46.0627 183.101 -45.0215C182.195 -43.9803 179.904 -44.4909 178.863 -45.3962C177.822 -46.3015 177.424 -48.129 178.329 -49.1702C179.234 -50.2114 181.098 -50.0725 182.139 -49.1672ZM41.2375 30.9176C42.1426 29.8765 41.3174 27.6772 40.2764 26.7719C39.2354 25.8667 37.3712 25.7278 36.4661 26.769C35.561 27.8101 35.9586 29.6376 36.9996 30.5429C38.0406 31.4482 40.3324 31.9588 41.2375 30.9176ZM13.2535 16.7324C14.2945 17.6377 15.1197 19.8369 14.2146 20.8781C13.3095 21.9192 11.0177 21.4086 9.97669 20.5034C8.93569 19.5981 8.53808 17.7705 9.4432 16.7294C10.3483 15.6882 12.2125 15.8271 13.2535 16.7324ZM250.26 28.7674C249.355 29.8086 249.752 31.6361 250.793 32.5414C251.834 33.4467 254.126 33.9573 255.031 32.9161C255.936 31.875 255.111 29.6757 254.07 28.7704C253.029 27.8652 251.165 27.7263 250.26 28.7674ZM112.207 104.71C113.248 105.615 114.073 107.813 113.168 108.855C112.263 109.896 109.971 109.385 108.93 108.48C107.889 107.576 107.492 105.748 108.397 104.707C109.302 103.666 111.166 103.805 112.207 104.71ZM149.915 25.7729C148.874 24.8676 147.01 24.7287 146.105 25.7699C145.2 26.811 145.597 28.6385 146.638 29.5438C147.679 30.4491 149.971 30.9597 150.875 29.9185C151.781 28.8774 150.956 26.6781 149.915 25.7729ZM-5.02331 109.502C-6.06431 108.598 -6.46192 106.77 -5.5568 105.729C-4.65167 104.688 -2.78747 104.828 -1.74647 105.732C-0.705479 106.637 0.119724 108.836 -0.786401 109.877C-1.69053 110.918 -3.98232 110.408 -5.02331 109.502ZM222.806 107.855C223.711 106.814 222.887 104.616 221.846 103.711C220.805 102.805 218.94 102.667 218.036 103.708C217.13 104.749 217.527 106.576 218.568 107.481C219.609 108.386 221.901 108.897 222.806 107.855ZM73.5167 -47.4103C74.5577 -46.506 75.3829 -44.3068 74.4778 -43.2656C73.5727 -42.2245 71.2809 -42.735 70.2399 -43.6403C69.1989 -44.5456 68.8013 -46.3721 69.7064 -47.4133C70.6115 -48.4545 72.4757 -48.3156 73.5167 -47.4103ZM29.2021 -47.1296C30.1073 -48.1707 29.2821 -50.37 28.2411 -51.2742C27.2001 -52.1795 25.3359 -52.3184 24.4307 -51.2772C23.5256 -50.2361 23.9232 -48.4095 24.9642 -47.5043C26.0052 -46.599 28.297 -46.0884 29.2021 -47.1296ZM256.787 -3.42975C255.746 -4.33503 255.349 -6.16256 256.254 -7.20373C257.159 -8.24489 259.023 -8.106 260.064 -7.20073C261.105 -6.29545 261.931 -4.09622 261.025 -3.05505C260.12 -2.01389 257.828 -2.52448 256.787 -3.42975ZM114.391 68.7354C113.486 69.7766 113.883 71.6041 114.924 72.5094C115.965 73.4147 118.257 73.9252 119.162 72.8841C120.067 71.8429 119.242 69.6437 118.201 68.7384C117.16 67.8331 115.296 67.6942 114.391 68.7354ZM190.132 146.676C191.173 147.582 191.998 149.78 191.093 150.821C190.188 151.862 187.896 151.352 186.855 150.446C185.814 149.542 185.416 147.715 186.321 146.673C187.227 145.632 189.091 145.771 190.132 146.676ZM227.84 67.7392C226.799 66.8339 224.935 66.695 224.03 67.7362C223.125 68.7774 223.522 70.6049 224.563 71.5102C225.604 72.4155 227.896 72.9261 228.8 71.8849C229.706 70.8437 228.881 68.6445 227.84 67.7392ZM82.7001 147.448C81.6591 146.544 81.2615 144.717 82.1667 143.675C83.0718 142.634 84.936 142.774 85.977 143.678C87.018 144.584 87.8432 146.782 86.9371 147.823C86.0329 148.864 83.7411 148.355 82.7001 147.448ZM147.631 -5.44724C146.726 -4.40607 147.124 -2.57853 148.165 -1.67426C149.206 -0.767982 151.498 -0.257393 152.403 -1.29956C153.308 -2.34072 152.483 -4.53896 151.442 -5.44424C150.401 -6.34951 148.536 -6.4884 147.631 -5.44724ZM251.302 -19.3739C251.774 -18.0769 251.429 -15.7548 250.133 -15.2822C248.837 -14.8105 247.08 -16.3683 246.609 -17.6652C246.136 -18.9612 246.675 -20.7528 247.971 -21.2244C249.267 -21.696 250.831 -20.6708 251.302 -19.3739ZM108.27 60.657C109.566 60.1844 109.911 57.8622 109.439 56.5653C108.968 55.2683 107.404 54.2431 106.107 54.7148C104.812 55.1864 104.273 56.9779 104.746 58.2739C105.217 59.5709 106.974 61.1286 108.27 60.657ZM176.676 136.212C176.204 134.915 176.743 133.125 178.039 132.653C179.334 132.18 180.898 133.207 181.369 134.503C181.842 135.798 181.497 138.123 180.201 138.594C178.905 139.066 177.147 137.508 176.676 136.212ZM217.909 59.6578C219.204 59.1852 219.55 56.863 219.078 55.5661C218.606 54.2691 217.043 53.2439 215.747 53.7156C214.45 54.1872 213.913 55.9787 214.384 57.2747C214.856 58.5717 216.613 60.1294 217.909 59.6578ZM72.521 133.215C72.0494 131.918 72.5879 130.127 73.8837 129.655C75.1794 129.183 76.7429 130.209 77.2144 131.506C77.687 132.801 77.3423 135.125 76.0456 135.597C74.7498 136.068 72.9925 134.51 72.521 133.215ZM141.511 -13.5258C142.807 -13.9984 143.151 -16.3205 142.68 -17.6175C142.208 -18.9144 140.645 -19.9396 139.348 -19.468C138.052 -18.9964 137.514 -17.2058 137.986 -15.9088C138.458 -14.6119 140.215 -13.0541 141.511 -13.5258ZM260.294 -39.3579C260.765 -38.0609 260.42 -35.7388 259.125 -35.2661C257.828 -34.7945 256.072 -36.3523 255.6 -37.6492C255.128 -38.9452 255.666 -40.7367 256.962 -41.2084C258.259 -41.68 259.822 -40.6548 260.294 -39.3579ZM115.099 34.731C113.804 35.2026 113.265 36.9941 113.737 38.2901C114.208 39.5861 115.965 41.1448 117.262 40.6732C118.558 40.2006 118.903 37.8774 118.43 36.5815C117.959 35.2845 116.395 34.2593 115.099 34.731ZM189.192 118.611C187.895 119.081 186.139 117.525 185.667 116.228C185.195 114.931 185.733 113.14 187.03 112.669C188.326 112.197 189.889 113.222 190.361 114.519C190.832 115.815 190.489 118.138 189.192 118.611ZM224.738 33.7318C223.441 34.2034 222.904 35.9949 223.375 37.2909C223.847 38.5869 225.604 40.1456 226.9 39.674C228.196 39.2014 228.541 36.8782 228.069 35.5823C227.597 34.2853 226.034 33.2601 224.738 33.7318ZM81.5123 113.231C81.0407 111.934 81.5782 110.143 82.875 109.671C84.1707 109.199 85.7342 110.225 86.2058 111.522C86.6783 112.817 86.3326 115.141 85.0369 115.613C83.7411 116.084 81.9838 114.527 81.5123 113.231ZM146.977 -35.8926C147.449 -34.5967 149.206 -33.0389 150.502 -33.5095C151.799 -33.9822 152.142 -36.3053 151.671 -37.6013C151.199 -38.8982 149.636 -39.9234 148.34 -39.4518C147.043 -38.9802 146.505 -37.1896 146.977 -35.8926ZM221.819 -8.45912C220.549 -8.99768 220.418 -10.8902 220.957 -12.1601C221.497 -13.4301 223.036 -13.9267 224.306 -13.3872C225.576 -12.8476 226.095 -11.4777 225.556 -10.2077C225.017 -8.93773 223.088 -7.91955 221.819 -8.45912ZM79.9555 67.4801C81.2253 68.0197 83.1534 67.0015 83.6929 65.7315C84.2314 64.4615 83.7129 63.0906 82.4431 62.5521C81.1733 62.0125 79.6338 62.5091 79.0943 63.7791C78.5559 65.0491 78.6857 66.9406 79.9555 67.4801ZM-4.14291 -30.626C-4.68238 -29.356 -6.61052 -28.3378 -7.8803 -28.8774C-9.15007 -29.4169 -9.27995 -31.3084 -8.74147 -32.5784C-8.20199 -33.8484 -6.66247 -34.345 -5.3927 -33.8054C-4.12293 -33.2668 -3.60443 -31.8959 -4.14291 -30.626ZM151.025 141.716C150.486 142.986 150.616 144.878 151.886 145.417C153.156 145.957 155.084 144.938 155.624 143.668C156.162 142.399 155.644 141.029 154.374 140.489C153.104 139.949 151.564 140.446 151.025 141.716ZM189.594 66.4808C188.324 65.9423 188.194 64.0498 188.733 62.7798C189.272 61.5098 190.812 61.0132 192.082 61.5528C193.351 62.0923 193.87 63.4622 193.331 64.7322C192.792 66.0022 190.864 67.0204 189.594 66.4808ZM46.8697 138.718C46.3313 139.988 46.4611 141.881 47.7309 142.419C49.0007 142.959 50.9288 141.941 51.4683 140.671C52.0068 139.402 51.4883 138.031 50.2185 137.491C48.9487 136.952 47.4092 137.448 46.8697 138.718ZM261.525 144.418C260.255 143.879 260.125 141.987 260.663 140.717C261.203 139.447 262.742 138.95 264.012 139.49C265.282 140.029 265.8 141.4 265.262 142.669C264.722 143.939 262.794 144.957 261.525 144.418ZM115.684 -11.6308C114.414 -12.1703 112.873 -11.6737 112.335 -10.4038C111.795 -9.13378 111.926 -7.24129 113.196 -6.70273C114.466 -6.16416 116.394 -7.18134 116.932 -8.45132C117.472 -9.72131 116.953 -11.0922 115.684 -11.6308ZM166.763 9.84601C165.493 9.30744 165.362 7.41496 165.902 6.14497C166.441 4.87499 167.981 4.3784 169.251 4.91796C170.52 5.45753 171.039 6.82743 170.5 8.09741C169.961 9.36739 168.033 10.3856 166.763 9.84601ZM24.0387 82.0841C23.4992 83.3541 23.6301 85.2466 24.8999 85.7851C26.1696 86.3247 28.0978 85.3065 28.6372 84.0365C29.1757 82.7666 28.6572 81.3967 27.3875 80.8571C26.1177 80.3175 24.5782 80.8141 24.0387 82.0841ZM-3.05986 69.8058C-3.59933 71.0758 -5.52747 72.094 -6.79725 71.5545C-8.06702 71.0149 -8.1969 69.1234 -7.65842 67.8534C-7.11894 66.5834 -5.57942 66.0868 -4.30965 66.6264C-3.03988 67.165 -2.52138 68.5359 -3.05986 69.8058ZM237.832 84.0825C237.293 85.3525 237.424 87.245 238.693 87.7835C239.963 88.3231 241.891 87.3049 242.431 86.0349C242.969 84.765 242.451 83.3951 241.181 82.8555C239.911 82.3159 238.372 82.8125 237.832 84.0825ZM134.538 84.7859C133.268 84.2474 133.138 82.3549 133.677 81.0849C134.217 79.8149 135.756 79.3183 137.026 79.8579C138.296 80.3975 138.814 81.7674 138.276 83.0374C137.736 84.3073 135.808 85.3255 134.538 84.7859ZM58.1401 11.6025C59.4098 12.1421 61.338 11.1239 61.8775 9.8539C62.4159 8.58392 61.8974 7.21302 60.6277 6.67445C59.3579 6.13489 57.8184 6.63148 57.2789 7.90147C56.7404 9.17145 56.8703 11.0629 58.1401 11.6025ZM3.10078 6.14366C1.83101 5.60509 1.70013 3.71261 2.23961 2.44263C2.77909 1.17265 4.3186 0.676044 5.58838 1.21561C6.85815 1.75518 7.37665 3.12508 6.83817 4.39507C6.29869 5.66505 4.37055 6.68323 3.10078 6.14366ZM207.723 -50.1058C208.993 -49.5663 210.921 -50.5845 211.461 -51.8544C211.999 -53.1244 211.481 -54.4953 210.211 -55.0339C208.941 -55.5735 207.402 -55.0769 206.862 -53.8069C206.324 -52.5369 206.453 -50.6454 207.723 -50.1058ZM69.5976 24.0847C69.0581 25.3547 67.13 26.3729 65.8602 25.8333C64.5904 25.2937 64.4606 23.4022 64.999 22.1323C65.5385 20.8623 67.078 20.3657 68.3478 20.9053C69.6176 21.4438 70.1361 22.8147 69.5976 24.0847ZM140.279 98.8427C139.009 98.3031 137.468 98.8007 136.93 100.07C136.39 101.341 136.521 103.232 137.791 103.771C139.061 104.309 140.989 103.292 141.527 102.022C142.067 100.752 141.548 99.3822 140.279 98.8427ZM179.235 23.0855C178.697 24.3555 176.769 25.3737 175.499 24.8341C174.229 24.2945 174.098 22.403 174.638 21.1331C175.176 19.8631 176.717 19.3665 177.987 19.9061C179.256 20.4446 179.775 21.8155 179.235 23.0855ZM261.101 45.1437C262.371 45.6832 264.299 44.665 264.837 43.3951C265.377 42.1251 264.858 40.7542 263.588 40.2156C262.319 39.676 260.778 40.1726 260.24 41.4426C259.7 42.7126 259.831 44.6041 261.101 45.1437ZM36.1237 95.8452C37.3935 96.3838 37.912 97.7547 37.3725 99.0246C36.833 100.295 34.9059 101.312 33.6361 100.773C32.3663 100.235 32.2355 98.3422 32.7739 97.0722C33.3134 95.8022 34.8539 95.3056 36.1237 95.8452ZM1.93902 86.5424C3.20879 87.082 5.13693 86.0638 5.67541 84.7938C6.21489 83.5238 5.69639 82.153 4.42662 81.6144C3.15684 81.0748 1.61633 81.5714 1.07785 82.8414C0.53837 84.1114 0.669244 86.0029 1.93902 86.5424ZM251.166 101.023C250.627 102.293 248.699 103.31 247.43 102.772C246.16 102.233 246.029 100.341 246.568 99.0706C247.107 97.8006 248.647 97.304 249.917 97.8436C251.187 98.3822 251.705 99.7531 251.166 101.023ZM99.1005 -48.3494C100.37 -47.8099 102.298 -48.8281 102.838 -50.098C103.376 -51.368 102.858 -52.7389 101.588 -53.2775C100.318 -53.8171 98.7788 -53.3205 98.2393 -52.0505C97.7009 -50.7805 97.8307 -48.889 99.1005 -48.3494ZM45.6368 -44.1028C45.0984 -42.8329 43.1702 -41.8147 41.9004 -42.3543C40.6307 -42.8938 40.4998 -44.7853 41.0393 -46.0553C41.5778 -47.3253 43.1183 -47.8219 44.388 -47.2823C45.6578 -46.7437 46.1763 -45.3728 45.6368 -44.1028ZM205.725 4.85011C206.995 5.38968 208.923 4.3715 209.463 3.10152C210.001 1.83154 209.483 0.460632 208.213 -0.0779343C206.943 -0.617504 205.403 -0.120903 204.864 1.14908C204.326 2.41906 204.455 4.31055 205.725 4.85011ZM67.5995 79.0406C67.0601 80.3106 65.1319 81.3288 63.8621 80.7892C62.5924 80.2497 62.4625 78.3582 63.001 77.0882C63.5405 75.8182 65.08 75.3216 66.3497 75.8612C67.6195 76.3998 68.138 77.7707 67.5995 79.0406ZM10.1864 36.5825C11.4561 37.122 13.3843 36.1039 13.9237 34.8339C14.4622 33.5639 13.9437 32.193 12.674 31.6544C11.4042 31.1149 9.86467 31.6115 9.32519 32.8814C8.78671 34.1514 8.91658 36.0429 10.1864 36.5825ZM-5.16227 19.3951C-5.70175 20.665 -7.62989 21.6832 -8.89966 21.1437C-10.1694 20.6041 -10.2993 18.7126 -9.76083 17.4426C-9.22135 16.1726 -7.68184 15.676 -6.41206 16.2156C-5.14229 16.7542 -4.62379 18.1251 -5.16227 19.3951ZM138.28 153.799C137.011 153.26 135.47 153.756 134.932 155.026C134.392 156.296 134.523 158.189 135.793 158.727C137.063 159.266 138.991 158.248 139.529 156.979C140.069 155.708 139.55 154.338 138.28 153.799ZM177.237 78.0415C176.699 79.3114 174.771 80.3296 173.501 79.7901C172.231 79.2505 172.1 77.359 172.64 76.089C173.178 74.819 174.719 74.3224 175.988 74.862C177.258 75.4006 177.777 76.7715 177.237 78.0415ZM31.6378 155.729C32.9076 156.268 34.8358 155.251 35.3742 153.981C35.9137 152.711 35.3952 151.34 34.1254 150.801C32.8557 150.262 31.3152 150.758 30.7767 152.028C30.2372 153.298 30.3681 155.191 31.6378 155.729ZM249.168 155.979C248.629 157.249 246.701 158.266 245.431 157.728C244.162 157.189 244.031 155.297 244.57 154.027C245.109 152.757 246.649 152.26 247.919 152.8C249.189 153.338 249.707 154.709 249.168 155.979ZM97.1024 6.60651C98.3722 7.14607 100.3 6.12789 100.84 4.85791C101.378 3.58793 100.86 2.21703 99.59 1.67846C98.3203 1.13889 96.7808 1.63549 96.2413 2.90548C95.7028 4.17545 95.8327 6.06694 97.1024 6.60651ZM43.6388 10.8531C43.1003 12.1231 41.1721 13.1413 39.9024 12.6017C38.6326 12.0621 38.5017 10.1706 39.0412 8.90067C39.5797 7.63068 41.1202 7.13409 42.39 7.67365C43.6597 8.21222 44.1782 9.58312 43.6388 10.8531Z" fill="#F4F0F0"/></g></g></g><path id="Details" fill-rule="evenodd" clip-rule="evenodd" d="M127.827 70.9725C127.827 70.9725 126.953 43.3025 159.979 38.4575C159.979 38.4575 160.961 68.4215 127.827 70.9725ZM127.827 70.9725C127.827 70.9725 104.791 73.2385 94.5391 49.7735C94.5391 49.7735 117.548 39.2935 127.827 70.9725Z" fill="#2F6858"/><mask id="mask1_413_84531f35a82cd-3492-40cb-b0ba-1a7ca99bfe77" style="mask-type:alpha" maskUnits="userSpaceOnUse" x="94" y="38" width="66" height="34" fill="#ffffff"><path id="Details_2" fill-rule="evenodd" clip-rule="evenodd" d="M127.827 70.9725C127.827 70.9725 126.953 43.3025 159.979 38.4575C159.979 38.4575 160.961 68.4215 127.827 70.9725ZM127.827 70.9725C127.827 70.9725 104.791 73.2385 94.5391 49.7735C94.5391 49.7735 117.548 39.2935 127.827 70.9725Z" fill="#ffffff"/></mask><g mask="url(#mask1_413_84531f35a82cd-3492-40cb-b0ba-1a7ca99bfe77)"/></g></g></g></g><g id="Expression" transform="translate(299.939 177) scale(0.989010989010989 1)"><g id="Expression/Glasses"><g id="Glasses"><path id="Combined Shape" fill-rule="evenodd" clip-rule="evenodd" d="M41.3675 28.686C41.3675 18.9275 33.2219 11 23.1535 11C13.085 11 4.93945 18.9275 4.93945 28.686C4.93945 38.4445 13.085 46.372 23.1535 46.372C33.2219 46.372 41.3675 38.4445 41.3675 28.686ZM43.6867 33.9054C41.314 42.8081 33.0143 49.372 23.1535 49.372C11.4461 49.372 1.93945 40.1198 1.93945 28.686C1.93945 17.2522 11.4461 8 23.1535 8C34.8608 8 44.3675 17.2522 44.3675 28.686C44.3675 29.4354 44.3266 30.1753 44.247 30.904L51.2744 30.886C51.2412 30.3919 51.2243 29.8931 51.2243 29.3901C51.2243 17.9873 59.9106 8.7041 70.6763 8.7041C81.4426 8.7041 90.1283 17.987 90.1283 29.3901C90.1283 40.7932 81.4426 50.0761 70.6763 50.0761C61.3674 50.0761 53.6132 43.1353 51.6851 33.885L43.6867 33.9054ZM87.1283 29.3901C87.1283 19.6009 79.7395 11.7041 70.6763 11.7041C61.6136 11.7041 54.2243 19.6012 54.2243 29.3901C54.2243 39.179 61.6136 47.0761 70.6763 47.0761C79.7395 47.0761 87.1283 39.1793 87.1283 29.3901Z" fill="#F3705A"/><path id="Stroke 7" fill-rule="evenodd" clip-rule="evenodd" d="M33.5315 49.5163C33.2464 48.7385 33.6457 47.8768 34.4235 47.5917C35.2013 47.3065 36.063 47.7058 36.3482 48.4836C36.4012 48.6284 36.5244 48.9185 36.7177 49.3038C37.0445 49.9553 37.4419 50.607 37.9059 51.2082C40.1478 54.1131 42.8695 54.7915 46.7365 52.0076C47.4088 51.5236 48.3462 51.6763 48.8302 52.3486C49.3142 53.0209 49.1616 53.9583 48.4893 54.4423C43.1907 58.2568 38.6906 57.1352 35.5309 53.0411C34.5184 51.7291 33.8662 50.4291 33.5315 49.5163Z" fill="#010101"/><path id="Fill 9" fill-rule="evenodd" clip-rule="evenodd" d="M20.3086 34.9805C20.3086 32.6421 21.6514 30.7463 23.3086 30.7463C24.9658 30.7463 26.3086 32.6421 26.3086 34.9805C26.3086 37.319 24.9658 39.2147 23.3086 39.2147C21.6514 39.2147 20.3086 37.319 20.3086 34.9805" fill="#010101"/><path id="Fill 11" fill-rule="evenodd" clip-rule="evenodd" d="M66.0938 34.9805C66.0938 32.6421 67.4366 30.7463 69.0938 30.7463C70.7493 30.7463 72.0938 32.6421 72.0938 34.9805C72.0938 37.319 70.7493 39.2147 69.0938 39.2147C67.4366 39.2147 66.0938 37.319 66.0938 34.9805" fill="#010101"/></g></g></g><g id="Upper Body" transform="translate(25.9395 48) scale(0.9988674971687429 1)"><g id="Upper Body/Phone"><g id="Body"><g id="Jumper"><path id="Jumper_2" fill-rule="evenodd" clip-rule="evenodd" d="M427.866 245.619C427.383 244.981 426.901 244.464 426.423 244.083C411.373 232.094 345.307 220.615 345.307 220.615C345.307 220.615 342.501 208.881 338.929 205.309C335.359 201.739 281.919 202.172 279.582 203.34C277.245 204.509 274.129 217.361 274.129 217.361C260.185 218.025 247.782 221.407 234.695 225.07C214.266 228.803 184.931 239.31 162.334 268.303C123.757 317.797 82.2699 403.683 87.3649 445.899C92.4599 488.115 144.671 506.292 195.815 443.716C207.211 429.772 214.704 420.629 222.58 409.822C220.589 413.536 218.756 422.741 222.58 423.315C272.431 430.794 343.514 427.837 384.104 423.315C387.487 486.847 406.768 504.83 423.634 516.934C437.086 526.59 454.974 526.873 469.053 518.159C482.822 509.636 498.946 492.793 499.227 460.584C499.717 404.22 485.013 358.638 468.839 299.824C461.202 272.053 443.951 255.432 427.866 245.619Z" fill="#2F6858"/><path id="Jumper details" fill-rule="evenodd" clip-rule="evenodd" d="M289.07 202.793C289.185 202.253 289.715 201.908 290.256 202.022C290.796 202.136 291.141 202.667 291.027 203.207L287.917 217.926C287.803 218.466 287.272 218.812 286.732 218.698C286.192 218.583 285.846 218.053 285.96 217.512L289.07 202.793ZM209.943 317.066L210.156 316.916L210.264 316.841L255.475 352.295C254.163 358.987 247.066 371.983 236.48 388.228C232.622 394.149 228.543 400.116 224.992 405.106C223.612 407.044 222.424 408.675 221.664 409.679C221.539 409.844 221.428 409.989 221.334 410.111C221.192 410.19 221.068 410.305 220.975 410.453C220.844 410.662 220.784 410.768 220.737 410.905L220.726 410.922L220.717 410.935C220.709 410.949 220.702 410.961 220.696 410.974C220.656 411.067 220.693 411.194 220.883 411.844L220.884 411.845L220.884 411.845C221.493 412.285 221.493 412.285 221.928 412.214L221.929 412.214L221.93 412.213C222.087 412.157 222.136 412.14 222.181 412.115C222.202 412.103 222.221 412.09 222.249 412.071C222.352 412.003 222.41 411.945 222.493 411.854C222.634 411.699 222.888 411.377 223.259 410.886C224.032 409.864 225.231 408.219 226.621 406.265C230.188 401.254 234.282 395.264 238.156 389.32C249.234 372.318 256.489 358.939 257.551 352.03C257.606 351.673 257.464 351.314 257.18 351.091L210.918 314.812C210.576 314.543 210.099 314.527 209.739 314.771C209.696 314.8 209.614 314.857 209.494 314.94C209.294 315.078 209.06 315.242 208.791 315.432C208.024 315.972 207.135 316.612 206.134 317.347C203.279 319.446 200.098 321.894 196.673 324.668C186.89 332.591 177.107 341.541 167.974 351.334C161.55 358.222 155.677 365.292 150.48 372.511C150.157 372.96 150.259 373.585 150.707 373.907C151.155 374.23 151.78 374.128 152.103 373.68C157.248 366.533 163.067 359.527 169.437 352.698C178.502 342.978 188.217 334.09 197.932 326.222C201.331 323.468 204.487 321.04 207.319 318.959C208.309 318.231 209.187 317.599 209.943 317.066ZM384.055 350.56C384.101 347.743 384.15 345.182 384.199 342.926C384.215 342.149 384.231 341.463 384.245 340.875L444.73 325.026C448.478 334.047 452.1 348.815 455.516 367.716C457.602 379.261 459.484 391.634 461.129 404.008C461.704 408.339 462.21 412.361 462.64 415.97C462.791 417.232 462.921 418.353 463.031 419.319C463.07 419.657 463.103 419.952 463.131 420.201L463.164 420.502C463.224 421.051 463.717 421.447 464.266 421.388C464.815 421.328 465.212 420.834 465.152 420.285L465.118 419.979C465.103 419.846 465.087 419.699 465.069 419.54L465.018 419.093C464.908 418.124 464.777 416.999 464.626 415.733C464.194 412.115 463.688 408.085 463.111 403.744C461.462 391.342 459.577 378.939 457.484 367.36C453.941 347.754 450.177 332.56 446.231 323.442C446.035 322.989 445.537 322.747 445.06 322.872L383.011 339.131C382.58 339.244 382.276 339.628 382.264 340.072L382.261 340.211L382.255 340.464L382.246 340.8C382.232 341.396 382.216 342.092 382.199 342.883C382.15 345.142 382.101 347.707 382.055 350.528C381.828 364.572 381.765 379.157 381.966 392.788C382.141 404.692 382.511 415.04 383.106 423.386C383.146 423.937 383.624 424.351 384.175 424.312C384.726 424.273 385.141 423.794 385.101 423.244C384.509 414.941 384.14 404.628 383.965 392.758C383.765 379.151 383.828 364.585 384.055 350.56ZM302.894 202.001C302.342 202.026 301.915 202.493 301.94 203.045L302.562 216.935C302.586 217.486 303.054 217.914 303.605 217.889C304.157 217.864 304.584 217.397 304.56 216.845L303.938 202.955C303.913 202.404 303.446 201.976 302.894 202.001ZM314.944 203.106C314.886 202.556 315.284 202.064 315.833 202.006C316.382 201.947 316.875 202.345 316.933 202.895L318.384 216.577C318.442 217.126 318.044 217.618 317.495 217.677C316.946 217.735 316.453 217.337 316.395 216.788L314.944 203.106ZM328.885 203.165C328.346 203.29 328.011 203.827 328.136 204.365L331.244 217.769C331.369 218.307 331.906 218.642 332.444 218.517C332.982 218.392 333.317 217.855 333.192 217.317L330.085 203.914C329.96 203.376 329.423 203.041 328.885 203.165Z" fill="#5BA092"/></g><path id="Phone" fill-rule="evenodd" clip-rule="evenodd" d="M353.817 200.59L403.631 222.114C406.419 223.319 407.714 226.547 406.533 229.345L363.428 331.417C362.154 334.434 358.963 336.167 355.739 335.594L301.739 325.993C297.256 325.196 294.684 320.433 296.476 316.247L344.384 204.349C345.946 200.701 350.174 199.016 353.817 200.59" fill="#010101"/><path id="Skin" fill-rule="evenodd" clip-rule="evenodd" d="M352.529 307.706C352.529 307.706 329.982 288.56 324.828 278.047C319.141 266.446 327.814 266.317 327.814 266.317C321.025 250.287 336.641 254.548 336.641 254.548C330.478 245.217 335.651 241.218 339.507 241.996C348.479 243.806 368.391 259.202 368.391 259.202C365.946 256.389 362.798 253.619 359.61 250.813C354.02 245.893 348.304 240.863 346.026 235.295C338.935 217.962 359.105 228.237 368.219 236.101C376.371 243.134 396.834 260.902 396.834 260.902C396.834 260.902 391.911 246.749 391.911 236.595C391.911 226.442 399.603 217.519 403.295 225.519C404.111 227.287 406.055 231.885 408.397 237.426C412.376 246.84 417.507 258.978 420.218 264.595C424.526 273.519 445.313 323.84 445.313 323.84L384.538 339.524C384.538 339.524 365.807 332.889 352.529 307.706ZM241.903 263.382C223.398 274.029 210.301 315.599 210.301 315.599L256.563 351.878L267.479 335.824C267.479 335.856 267.482 335.889 267.485 335.922C267.49 335.985 267.496 336.048 267.481 336.108C265.52 343.812 274.795 346.012 279.935 342.375C301.971 326.783 291.312 315.033 291.312 315.033C302.002 303.181 292.686 295.408 292.686 295.408C302.995 277.587 287.422 275.693 287.422 275.693C312.984 265.468 326.494 245.937 312.729 245.937C298.964 245.937 241.903 263.382 241.903 263.382Z" fill="#583318"/><path id="Skin shadows" fill-rule="evenodd" clip-rule="evenodd" d="M336.282 255.481C335.766 255.283 335.509 254.704 335.708 254.189C335.906 253.673 336.485 253.416 337 253.615C337.098 253.652 337.281 253.724 337.544 253.832C337.978 254.009 338.482 254.221 339.048 254.466C340.662 255.167 342.458 256.001 344.392 256.967C349.917 259.727 355.442 262.994 360.604 266.755C365.097 270.03 369.107 273.536 372.508 277.273C372.88 277.681 372.851 278.313 372.442 278.685C372.034 279.057 371.401 279.027 371.03 278.619C367.725 274.989 363.815 271.571 359.426 268.372C354.362 264.681 348.93 261.47 343.498 258.756C341.598 257.807 339.833 256.988 338.252 256.301C337.699 256.061 337.21 255.855 336.788 255.684C336.538 255.581 336.367 255.514 336.282 255.481ZM380.809 268.948C381.212 268.57 381.232 267.937 380.854 267.534C380.745 267.418 380.54 267.207 380.248 266.914C379.764 266.431 379.205 265.892 378.578 265.313C376.789 263.661 374.811 262.008 372.696 260.465C370.985 259.216 369.254 258.09 367.518 257.119C367.036 256.849 366.426 257.021 366.157 257.503C365.887 257.985 366.059 258.595 366.541 258.864C368.204 259.794 369.868 260.876 371.517 262.08C373.565 263.575 375.485 265.179 377.221 266.782C377.828 267.343 378.368 267.863 378.834 268.329C379.111 268.606 379.301 268.802 379.395 268.903C379.773 269.306 380.406 269.326 380.809 268.948ZM292.257 294.037C292.6 293.319 292.944 292.523 293.264 291.673C294.031 289.636 294.542 287.624 294.678 285.769C294.952 282.044 293.716 279.443 290.516 278.164C287.403 276.918 282.222 276.929 275.612 277.975C272.61 278.45 269.417 279.121 266.134 279.939C263.729 280.539 261.416 281.181 259.28 281.823C258.533 282.047 257.862 282.256 257.277 282.443C256.928 282.554 256.685 282.634 256.561 282.675C256.038 282.851 255.471 282.569 255.295 282.045C255.12 281.521 255.402 280.955 255.926 280.779C256.059 280.734 256.31 280.652 256.668 280.538C257.264 280.347 257.946 280.136 258.704 279.908C260.869 279.257 263.212 278.606 265.65 277.999C268.986 277.168 272.235 276.484 275.299 275.999C282.242 274.901 287.716 274.889 291.259 276.307C295.367 277.95 297.005 281.396 296.673 285.915C296.521 287.986 295.965 290.176 295.135 292.378C294.794 293.285 294.428 294.134 294.061 294.901C294.027 294.972 293.994 295.041 293.961 295.108C296.862 297.23 298.189 299.983 298.103 303.162C298.027 305.944 296.89 308.855 295.054 311.752C294.397 312.787 293.695 313.747 292.993 314.612C292.84 314.8 292.693 314.975 292.555 315.137C295.387 318.393 295.469 323.417 293.247 328.961C291.014 334.534 286.704 339.846 282.443 342.203C278.154 344.575 273.952 345.49 270.896 344.63C267.42 343.653 265.783 340.55 266.492 335.954C266.909 333.252 268.001 330.972 269.557 329.099C270.779 327.627 272.01 326.692 272.869 326.23C273.355 325.969 273.962 326.151 274.223 326.637C274.485 327.124 274.302 327.73 273.816 327.992C273.672 328.069 273.385 328.25 273.005 328.54C272.356 329.033 271.704 329.644 271.095 330.377C269.761 331.982 268.828 333.932 268.469 336.259C267.904 339.921 269.014 342.023 271.438 342.705C273.905 343.399 277.604 342.594 281.475 340.453C285.304 338.335 289.319 333.386 291.391 328.217C293.625 322.644 293.243 317.942 290.005 315.479C287.603 313.651 283.826 313.079 279.045 313.584C276.215 313.883 273.176 314.543 270.084 315.457C268.56 315.907 267.123 316.389 265.818 316.871C265.362 317.04 264.955 317.196 264.604 317.336C264.395 317.419 264.252 317.477 264.181 317.507C263.672 317.722 263.086 317.484 262.871 316.975C262.656 316.466 262.895 315.879 263.404 315.665C263.487 315.629 263.643 315.565 263.865 315.477C264.231 315.331 264.653 315.169 265.125 314.995C266.47 314.498 267.949 314.002 269.517 313.539C272.717 312.593 275.87 311.908 278.835 311.595C283.993 311.05 288.189 311.665 291.079 313.785C291.194 313.65 291.315 313.505 291.441 313.35C292.097 312.543 292.753 311.645 293.364 310.681C295.026 308.061 296.039 305.465 296.103 303.107C296.181 300.226 294.835 297.842 291.664 295.996C288.281 294.027 283.387 293.683 277.379 294.715C273.7 295.346 269.762 296.466 265.737 297.934C263.454 298.767 261.287 299.659 259.307 300.551C258.614 300.862 257.995 301.152 257.458 301.411C257.138 301.565 256.918 301.675 256.807 301.732C256.315 301.983 255.713 301.787 255.462 301.295C255.211 300.803 255.406 300.201 255.898 299.95C256.022 299.887 256.255 299.771 256.589 299.61C257.141 299.343 257.777 299.046 258.485 298.727C260.508 297.816 262.72 296.905 265.051 296.055C269.181 294.549 273.23 293.398 277.04 292.744C283.242 291.678 288.424 291.99 292.257 294.037ZM326.916 265.876C326.673 266.372 326.877 266.971 327.373 267.215C327.462 267.258 327.64 267.348 327.902 267.484C328.342 267.713 328.853 267.986 329.43 268.305C331.083 269.216 332.926 270.301 334.913 271.556C340.591 275.144 346.269 279.371 351.566 284.206C355.68 287.963 359.397 291.943 362.621 296.139C362.957 296.577 363.585 296.66 364.023 296.323C364.461 295.987 364.543 295.359 364.207 294.921C360.908 290.627 357.112 286.562 352.914 282.729C347.524 277.808 341.753 273.513 335.981 269.866C333.96 268.589 332.083 267.484 330.396 266.553C329.804 266.227 329.278 265.945 328.823 265.709C328.548 265.567 328.357 265.47 328.255 265.42C327.759 265.176 327.16 265.381 326.916 265.876Z" fill="#6D4038"/></g></g></g></g></svg>