<svg viewBox="400 362.5 200.00000000000017 275.0000000000002" fill="none" xmlns="http://www.w3.org/2000/svg" xmlns:xlink="http://www.w3.org/1999/xlink" overflow="visible" width="200.00000000000017px" height="275.0000000000002px"><g id="Master/Stickers/Mug"><g id="Group"><path id="Fill 20" fill-rule="evenodd" clip-rule="evenodd" d="M405 498H539L533.864 583.179C532.313 608.919 510.983 629 485.194 629H458.809C433.019 629 411.69 608.919 410.136 583.179L405 498Z" fill="#F3705A"/><path id="Fill 22" fill-rule="evenodd" clip-rule="evenodd" d="M525 598L527.059 581.466C550.904 579.631 579.326 570.335 579.326 536.485C579.326 525.449 574.917 522.856 573.463 522.006C564.151 516.548 543.219 522.859 532.215 528.131L525.152 514.813C528.856 513.029 561.914 497.716 581.665 509.291C587.749 512.852 595 520.461 595 536.485C595 571.262 567.374 594.739 525 598" fill="#F3705A"/><path id="Fill 72" fill-rule="evenodd" clip-rule="evenodd" d="M539 497.999C539 509.598 509.004 519 472.003 519C434.999 519 405 509.598 405 497.999C405 486.402 434.999 477 472.003 477C509.004 477 539 486.402 539 497.999" fill="#E74B33"/><path id="Combined Shape" fill-rule="evenodd" clip-rule="evenodd" d="M482.743 372.258C481.844 373.572 482.186 375.361 483.506 376.255C501.461 388.416 509.815 399.708 509.815 415.794C509.815 426.824 505.684 435.791 497.539 444.04C491.214 450.447 484.778 454.879 469.258 464.311C465.903 466.349 464.411 467.262 462.56 468.412C437.959 483.707 426 495.958 426 515.44C426 515.581 426.375 515.639 427.02 515.739C427.476 515.81 428.066 515.902 428.753 516.058C429.21 516.162 429.642 516.268 430.029 516.362C431.048 516.612 431.749 516.783 431.749 516.638C431.749 499.055 442.097 487.919 465.625 473.292C467.454 472.155 468.935 471.25 472.281 469.216C488.214 459.534 494.887 454.938 501.666 448.072C510.818 438.801 515.598 428.426 515.598 415.794C515.598 397.412 506.136 384.621 486.76 371.499C485.44 370.605 483.641 370.945 482.743 372.258ZM582.108 411.277C580.511 411.277 579.217 412.565 579.217 414.154C579.217 425.384 575.078 434.511 566.927 442.9C560.601 449.411 554.168 453.913 538.653 463.494C522.72 473.332 516.049 478.001 509.272 484.976C500.128 494.387 495.356 504.911 495.356 517.724C495.356 519.209 496.058 519.091 497.408 518.865C497.501 518.849 497.598 518.833 497.698 518.817C498.03 518.763 498.378 518.72 498.721 518.678C499.969 518.527 501.139 518.384 501.139 517.724C501.139 506.492 505.278 497.366 513.43 488.975C519.756 482.464 526.189 477.962 541.705 468.381C557.637 458.543 564.308 453.874 571.085 446.9C580.228 437.489 585 426.966 585 414.154C585 412.565 583.705 411.277 582.108 411.277Z" fill="#F4F0F0"/></g></g></svg>